%TF.GenerationSoftware,KiCad,Pcbnew,7.0.2*%
%TF.CreationDate,2024-01-22T00:44:54+01:00*%
%TF.ProjectId,MOSH_ISS_THANG_STEPH_JUNJIANG,4d4f5348-5f49-4535-935f-5448414e475f,rev?*%
%TF.SameCoordinates,Original*%
%TF.FileFunction,Copper,L1,Top*%
%TF.FilePolarity,Positive*%
%FSLAX46Y46*%
G04 Gerber Fmt 4.6, Leading zero omitted, Abs format (unit mm)*
G04 Created by KiCad (PCBNEW 7.0.2) date 2024-01-22 00:44:54*
%MOMM*%
%LPD*%
G01*
G04 APERTURE LIST*
%TA.AperFunction,ComponentPad*%
%ADD10R,1.700000X1.700000*%
%TD*%
%TA.AperFunction,ComponentPad*%
%ADD11O,1.700000X1.700000*%
%TD*%
%TA.AperFunction,ComponentPad*%
%ADD12R,2.000000X2.000000*%
%TD*%
%TA.AperFunction,ComponentPad*%
%ADD13O,2.540000X2.000000*%
%TD*%
%TA.AperFunction,ComponentPad*%
%ADD14O,1.800000X1.300000*%
%TD*%
%TA.AperFunction,ComponentPad*%
%ADD15O,1.500000X1.500000*%
%TD*%
%TA.AperFunction,ComponentPad*%
%ADD16O,2.200000X3.500000*%
%TD*%
%TA.AperFunction,ComponentPad*%
%ADD17R,1.500000X2.500000*%
%TD*%
%TA.AperFunction,ComponentPad*%
%ADD18O,1.500000X2.500000*%
%TD*%
%TA.AperFunction,ComponentPad*%
%ADD19C,1.600000*%
%TD*%
%TA.AperFunction,ComponentPad*%
%ADD20O,1.600000X1.600000*%
%TD*%
%TA.AperFunction,ComponentPad*%
%ADD21R,1.905000X2.000000*%
%TD*%
%TA.AperFunction,ComponentPad*%
%ADD22O,1.905000X2.000000*%
%TD*%
%TA.AperFunction,ComponentPad*%
%ADD23R,1.600000X1.600000*%
%TD*%
%TA.AperFunction,ViaPad*%
%ADD24C,0.600000*%
%TD*%
%TA.AperFunction,Conductor*%
%ADD25C,0.250000*%
%TD*%
G04 APERTURE END LIST*
D10*
%TO.P,J1,1,Pin_1*%
%TO.N,unconnected-(J1-Pin_1-Pad1)*%
X127940000Y-97460000D03*
D11*
%TO.P,J1,2,Pin_2*%
%TO.N,/IOREF*%
X130480000Y-97460000D03*
%TO.P,J1,3,Pin_3*%
%TO.N,/~{RESET}*%
X133020000Y-97460000D03*
%TO.P,J1,4,Pin_4*%
%TO.N,+3V3*%
X135560000Y-97460000D03*
%TO.P,J1,5,Pin_5*%
%TO.N,+5V*%
X138100000Y-97460000D03*
%TO.P,J1,6,Pin_6*%
%TO.N,GND*%
X140640000Y-97460000D03*
%TO.P,J1,7,Pin_7*%
X143180000Y-97460000D03*
%TO.P,J1,8,Pin_8*%
%TO.N,VCC*%
X145720000Y-97460000D03*
%TD*%
D10*
%TO.P,J3,1,Pin_1*%
%TO.N,ADC1*%
X150800000Y-97460000D03*
D11*
%TO.P,J3,2,Pin_2*%
%TO.N,ADC2*%
X153340000Y-97460000D03*
%TO.P,J3,3,Pin_3*%
%TO.N,/A2*%
X155880000Y-97460000D03*
%TO.P,J3,4,Pin_4*%
%TO.N,/A3*%
X158420000Y-97460000D03*
%TO.P,J3,5,Pin_5*%
%TO.N,/SDA{slash}A4*%
X160960000Y-97460000D03*
%TO.P,J3,6,Pin_6*%
%TO.N,/SCL{slash}A5*%
X163500000Y-97460000D03*
%TD*%
D10*
%TO.P,J2,1,Pin_1*%
%TO.N,/SCL{slash}A5*%
X118796000Y-49200000D03*
D11*
%TO.P,J2,2,Pin_2*%
%TO.N,/SDA{slash}A4*%
X121336000Y-49200000D03*
%TO.P,J2,3,Pin_3*%
%TO.N,/AREF*%
X123876000Y-49200000D03*
%TO.P,J2,4,Pin_4*%
%TO.N,GND*%
X126416000Y-49200000D03*
%TO.P,J2,5,Pin_5*%
%TO.N,SCK*%
X128956000Y-49200000D03*
%TO.P,J2,6,Pin_6*%
%TO.N,/12*%
X131496000Y-49200000D03*
%TO.P,J2,7,Pin_7*%
%TO.N,MOSI*%
X134036000Y-49200000D03*
%TO.P,J2,8,Pin_8*%
%TO.N,CS*%
X136576000Y-49200000D03*
%TO.P,J2,9,Pin_9*%
%TO.N,/\u002A9*%
X139116000Y-49200000D03*
%TO.P,J2,10,Pin_10*%
%TO.N,/8*%
X141656000Y-49200000D03*
%TD*%
D10*
%TO.P,J4,1,Pin_1*%
%TO.N,/7*%
X145720000Y-49200000D03*
D11*
%TO.P,J4,2,Pin_2*%
%TO.N,RX*%
X148260000Y-49200000D03*
%TO.P,J4,3,Pin_3*%
%TO.N,TX*%
X150800000Y-49200000D03*
%TO.P,J4,4,Pin_4*%
%TO.N,RST*%
X153340000Y-49200000D03*
%TO.P,J4,5,Pin_5*%
%TO.N,/\u002A3*%
X155880000Y-49200000D03*
%TO.P,J4,6,Pin_6*%
%TO.N,SW_CTL*%
X158420000Y-49200000D03*
%TO.P,J4,7,Pin_7*%
%TO.N,/TX{slash}1*%
X160960000Y-49200000D03*
%TO.P,J4,8,Pin_8*%
%TO.N,/RX{slash}0*%
X163500000Y-49200000D03*
%TD*%
D12*
%TO.P,U1,1,NC_2*%
%TO.N,unconnected-(U1-NC_2-Pad1)*%
X115740000Y-81490000D03*
D13*
%TO.P,U1,2,IN-*%
%TO.N,R_potentiometer *%
X115740000Y-84030000D03*
%TO.P,U1,3,IN+*%
%TO.N,IN+*%
X115740000Y-86570000D03*
%TO.P,U1,4,V-*%
%TO.N,GND*%
X115740000Y-89110000D03*
%TO.P,U1,5,CLOCK*%
%TO.N,unconnected-(U1-CLOCK-Pad5)*%
X123260000Y-89110000D03*
%TO.P,U1,6,OUT*%
%TO.N,Net-(U1-OUT)*%
X123260000Y-86570000D03*
%TO.P,U1,7,V+*%
%TO.N,+5V*%
X123260000Y-84030000D03*
%TO.P,U1,8,NC*%
%TO.N,unconnected-(U1-NC-Pad8)*%
X123260000Y-81490000D03*
%TD*%
D14*
%TO.P,U2,1,R_ALU_IN*%
%TO.N,ADC2*%
X142085000Y-78000000D03*
D15*
%TO.P,U2,2,R_Sens_1_IN*%
%TO.N,+5V*%
X142642670Y-79716333D03*
%TO.P,U2,3,R_Poly_IN*%
%TO.N,SW_12V*%
X144102670Y-80777085D03*
%TO.P,U2,4,R_Sens_1_OUT*%
%TO.N,SW_1*%
X145907330Y-80777085D03*
%TO.P,U2,5,NC*%
%TO.N,unconnected-(U2-NC-Pad5)*%
X147367330Y-79716333D03*
%TO.P,U2,6,R_ALU_OUT*%
%TO.N,GND*%
X147925000Y-78000000D03*
%TO.P,U2,7,R_Sens_2_IN*%
%TO.N,+5V*%
X147367330Y-76283667D03*
%TO.P,U2,8,R_Poly_OUT*%
%TO.N,GND*%
X145907330Y-75222915D03*
%TO.P,U2,9,R_Sens_2_OUT*%
%TO.N,SW_2*%
X144102670Y-75222915D03*
%TO.P,U2,10,NC*%
%TO.N,unconnected-(U2-NC-Pad10)*%
X142642670Y-76283667D03*
%TD*%
D16*
%TO.P,SW1,*%
%TO.N,*%
X144100000Y-65000000D03*
X135900000Y-65000000D03*
D17*
%TO.P,SW1,1,A*%
%TO.N,SW_1*%
X142000000Y-65000000D03*
D18*
%TO.P,SW1,2,B*%
%TO.N,Isens*%
X140000000Y-65000000D03*
%TO.P,SW1,3,C*%
%TO.N,SW_2*%
X138000000Y-65000000D03*
%TD*%
D19*
%TO.P,R3,1*%
%TO.N,Net-(U1-OUT)*%
X119860000Y-72130000D03*
D20*
%TO.P,R3,2*%
%TO.N,R_potentiometer *%
X112240000Y-72130000D03*
%TD*%
D19*
%TO.P,R8,1*%
%TO.N,VCC*%
X145840000Y-92000000D03*
D20*
%TO.P,R8,2*%
%TO.N,SW_12V*%
X156000000Y-92000000D03*
%TD*%
D19*
%TO.P,R5,1*%
%TO.N,R_potentiometer *%
X130190000Y-54000000D03*
D20*
%TO.P,R5,2*%
%TO.N,GND*%
X137810000Y-54000000D03*
%TD*%
D19*
%TO.P,C4,1*%
%TO.N,ADC1*%
X130000000Y-72810000D03*
%TO.P,C4,2*%
%TO.N,GND*%
X130000000Y-67810000D03*
%TD*%
%TO.P,R2,1*%
%TO.N,IN+*%
X119810000Y-77000000D03*
D20*
%TO.P,R2,2*%
%TO.N,GND*%
X112190000Y-77000000D03*
%TD*%
D19*
%TO.P,C1,1*%
%TO.N,IN+*%
X118500000Y-94000000D03*
%TO.P,C1,2*%
%TO.N,GND*%
X123500000Y-94000000D03*
%TD*%
%TO.P,R7,1*%
%TO.N,SW_CTL*%
X162000000Y-55920000D03*
D20*
%TO.P,R7,2*%
%TO.N,Net-(Q1-G)*%
X162000000Y-66080000D03*
%TD*%
D21*
%TO.P,Q1,1,G*%
%TO.N,Net-(Q1-G)*%
X156460000Y-84945000D03*
D22*
%TO.P,Q1,2,D*%
%TO.N,SW_12V*%
X159000000Y-84945000D03*
%TO.P,Q1,3,S*%
%TO.N,GND*%
X161540000Y-84945000D03*
%TD*%
D23*
%TO.P,U3,1,~{CS}*%
%TO.N,CS*%
X118380000Y-61730000D03*
D20*
%TO.P,U3,2,SCK*%
%TO.N,SCK*%
X120920000Y-61730000D03*
%TO.P,U3,3,SI*%
%TO.N,MOSI*%
X123460000Y-61730000D03*
%TO.P,U3,4,VSS*%
%TO.N,GND*%
X126000000Y-61730000D03*
%TO.P,U3,5,PA0*%
%TO.N,R_potentiometer *%
X126000000Y-54110000D03*
%TO.P,U3,6,PW0*%
%TO.N,GND*%
X123460000Y-54110000D03*
%TO.P,U3,7,PB0*%
X120920000Y-54110000D03*
%TO.P,U3,8,VDD*%
%TO.N,+5V*%
X118380000Y-54110000D03*
%TD*%
D19*
%TO.P,R4,1*%
%TO.N,Net-(U1-OUT)*%
X130000000Y-83620000D03*
D20*
%TO.P,R4,2*%
%TO.N,ADC1*%
X130000000Y-76000000D03*
%TD*%
D19*
%TO.P,C3,1*%
%TO.N,Net-(U1-OUT)*%
X119710000Y-66630000D03*
%TO.P,C3,2*%
%TO.N,R_potentiometer *%
X112210000Y-66630000D03*
%TD*%
D10*
%TO.P,J7,1,Pin_1*%
%TO.N,RX*%
X156000000Y-73240000D03*
D11*
%TO.P,J7,2,Pin_2*%
%TO.N,TX*%
X156000000Y-70700000D03*
%TO.P,J7,3,Pin_3*%
%TO.N,unconnected-(J7-Pin_3-Pad3)*%
X156000000Y-68160000D03*
%TO.P,J7,4,Pin_4*%
%TO.N,unconnected-(J7-Pin_4-Pad4)*%
X156000000Y-65620000D03*
%TO.P,J7,5,Pin_5*%
%TO.N,RST*%
X156000000Y-63080000D03*
%TO.P,J7,6,Pin_6*%
%TO.N,+3V3*%
X156000000Y-60540000D03*
%TO.P,J7,7,Pin_7*%
%TO.N,unconnected-(J7-Pin_7-Pad7)*%
X156000000Y-58000000D03*
%TO.P,J7,8,Pin_8*%
%TO.N,GND*%
X156000000Y-55460000D03*
%TD*%
D19*
%TO.P,C2,1*%
%TO.N,+5V*%
X130500000Y-93000000D03*
%TO.P,C2,2*%
%TO.N,GND*%
X135500000Y-93000000D03*
%TD*%
%TO.P,R6,1*%
%TO.N,ADC2*%
X140000000Y-88000000D03*
D20*
%TO.P,R6,2*%
%TO.N,+5V*%
X129840000Y-88000000D03*
%TD*%
D19*
%TO.P,R1,1*%
%TO.N,Isens*%
X124000000Y-67000000D03*
D20*
%TO.P,R1,2*%
%TO.N,IN+*%
X124000000Y-74620000D03*
%TD*%
D24*
%TO.N,+5V*%
X142000000Y-85000000D03*
X136000000Y-85000000D03*
%TO.N,ADC1*%
X143000000Y-95000000D03*
X150800000Y-95200000D03*
%TO.N,ADC2*%
X153000000Y-94000000D03*
X143000000Y-94000000D03*
%TO.N,+3V3*%
X168000000Y-79000000D03*
X155000000Y-79000000D03*
%TD*%
D25*
%TO.N,+5V*%
X142000000Y-85000000D02*
X136000000Y-85000000D01*
%TO.N,ADC1*%
X143000000Y-95000000D02*
X150600000Y-95000000D01*
X150600000Y-95000000D02*
X150800000Y-95200000D01*
%TO.N,ADC2*%
X153000000Y-94000000D02*
X143000000Y-94000000D01*
%TO.N,+3V3*%
X168000000Y-79000000D02*
X155000000Y-79000000D01*
%TD*%
M02*
