%TF.GenerationSoftware,KiCad,Pcbnew,7.0.2*%
%TF.CreationDate,2024-01-22T00:44:54+01:00*%
%TF.ProjectId,MOSH_ISS_THANG_STEPH_JUNJIANG,4d4f5348-5f49-4535-935f-5448414e475f,rev?*%
%TF.SameCoordinates,Original*%
%TF.FileFunction,Soldermask,Top*%
%TF.FilePolarity,Negative*%
%FSLAX46Y46*%
G04 Gerber Fmt 4.6, Leading zero omitted, Abs format (unit mm)*
G04 Created by KiCad (PCBNEW 7.0.2) date 2024-01-22 00:44:54*
%MOMM*%
%LPD*%
G01*
G04 APERTURE LIST*
%ADD10R,1.700000X1.700000*%
%ADD11O,1.700000X1.700000*%
%ADD12R,2.000000X2.000000*%
%ADD13O,2.540000X2.000000*%
%ADD14O,1.800000X1.300000*%
%ADD15O,1.500000X1.500000*%
%ADD16O,2.200000X3.500000*%
%ADD17R,1.500000X2.500000*%
%ADD18O,1.500000X2.500000*%
%ADD19C,1.600000*%
%ADD20O,1.600000X1.600000*%
%ADD21C,3.200000*%
%ADD22R,1.905000X2.000000*%
%ADD23O,1.905000X2.000000*%
%ADD24R,1.600000X1.600000*%
G04 APERTURE END LIST*
D10*
%TO.C,J1*%
X127940000Y-97460000D03*
D11*
X130480000Y-97460000D03*
X133020000Y-97460000D03*
X135560000Y-97460000D03*
X138100000Y-97460000D03*
X140640000Y-97460000D03*
X143180000Y-97460000D03*
X145720000Y-97460000D03*
%TD*%
D10*
%TO.C,J3*%
X150800000Y-97460000D03*
D11*
X153340000Y-97460000D03*
X155880000Y-97460000D03*
X158420000Y-97460000D03*
X160960000Y-97460000D03*
X163500000Y-97460000D03*
%TD*%
D10*
%TO.C,J2*%
X118796000Y-49200000D03*
D11*
X121336000Y-49200000D03*
X123876000Y-49200000D03*
X126416000Y-49200000D03*
X128956000Y-49200000D03*
X131496000Y-49200000D03*
X134036000Y-49200000D03*
X136576000Y-49200000D03*
X139116000Y-49200000D03*
X141656000Y-49200000D03*
%TD*%
D10*
%TO.C,J4*%
X145720000Y-49200000D03*
D11*
X148260000Y-49200000D03*
X150800000Y-49200000D03*
X153340000Y-49200000D03*
X155880000Y-49200000D03*
X158420000Y-49200000D03*
X160960000Y-49200000D03*
X163500000Y-49200000D03*
%TD*%
D12*
%TO.C,U1*%
X115740000Y-81490000D03*
D13*
X115740000Y-84030000D03*
X115740000Y-86570000D03*
X115740000Y-89110000D03*
X123260000Y-89110000D03*
X123260000Y-86570000D03*
X123260000Y-84030000D03*
X123260000Y-81490000D03*
%TD*%
D14*
%TO.C,U2*%
X142085000Y-78000000D03*
D15*
X142642670Y-79716333D03*
X144102670Y-80777085D03*
X145907330Y-80777085D03*
X147367330Y-79716333D03*
X147925000Y-78000000D03*
X147367330Y-76283667D03*
X145907330Y-75222915D03*
X144102670Y-75222915D03*
X142642670Y-76283667D03*
%TD*%
D16*
%TO.C,SW1*%
X144100000Y-65000000D03*
X135900000Y-65000000D03*
D17*
X142000000Y-65000000D03*
D18*
X140000000Y-65000000D03*
X138000000Y-65000000D03*
%TD*%
D19*
%TO.C,R3*%
X119860000Y-72130000D03*
D20*
X112240000Y-72130000D03*
%TD*%
D19*
%TO.C,R8*%
X145840000Y-92000000D03*
D20*
X156000000Y-92000000D03*
%TD*%
D19*
%TO.C,R5*%
X130190000Y-54000000D03*
D20*
X137810000Y-54000000D03*
%TD*%
D19*
%TO.C,C4*%
X130000000Y-72810000D03*
X130000000Y-67810000D03*
%TD*%
%TO.C,R2*%
X119810000Y-77000000D03*
D20*
X112190000Y-77000000D03*
%TD*%
D19*
%TO.C,C1*%
X118500000Y-94000000D03*
X123500000Y-94000000D03*
%TD*%
D21*
%TO.C,MH1*%
X115240000Y-49200000D03*
%TD*%
D19*
%TO.C,R7*%
X162000000Y-55920000D03*
D20*
X162000000Y-66080000D03*
%TD*%
D22*
%TO.C,Q1*%
X156460000Y-84945000D03*
D23*
X159000000Y-84945000D03*
X161540000Y-84945000D03*
%TD*%
D24*
%TO.C,U3*%
X118380000Y-61730000D03*
D20*
X120920000Y-61730000D03*
X123460000Y-61730000D03*
X126000000Y-61730000D03*
X126000000Y-54110000D03*
X123460000Y-54110000D03*
X120920000Y-54110000D03*
X118380000Y-54110000D03*
%TD*%
D19*
%TO.C,R4*%
X130000000Y-83620000D03*
D20*
X130000000Y-76000000D03*
%TD*%
D19*
%TO.C,C3*%
X119710000Y-66630000D03*
X112210000Y-66630000D03*
%TD*%
D10*
%TO.C,J7*%
X156000000Y-73240000D03*
D11*
X156000000Y-70700000D03*
X156000000Y-68160000D03*
X156000000Y-65620000D03*
X156000000Y-63080000D03*
X156000000Y-60540000D03*
X156000000Y-58000000D03*
X156000000Y-55460000D03*
%TD*%
D19*
%TO.C,C2*%
X130500000Y-93000000D03*
X135500000Y-93000000D03*
%TD*%
D21*
%TO.C,MH2*%
X113970000Y-97460000D03*
%TD*%
D19*
%TO.C,R6*%
X140000000Y-88000000D03*
D20*
X129840000Y-88000000D03*
%TD*%
D19*
%TO.C,R1*%
X124000000Y-67000000D03*
D20*
X124000000Y-74620000D03*
%TD*%
D21*
%TO.C,MH3*%
X166040000Y-64440000D03*
%TD*%
%TO.C,MH4*%
X166040000Y-92380000D03*
%TD*%
M02*
