M48
; DRILL file {KiCad 7.0.2} date Mon Jan 22 00:45:08 2024
; FORMAT={-:-/ absolute / metric / decimal}
; #@! TF.CreationDate,2024-01-22T00:45:08+01:00
; #@! TF.GenerationSoftware,Kicad,Pcbnew,7.0.2
; #@! TF.FileFunction,Plated,1,2,PTH
FMAT,2
METRIC
; #@! TA.AperFunction,Plated,PTH,ViaDrill
T1C0.400
; #@! TA.AperFunction,Plated,PTH,ComponentDrill
T2C0.700
; #@! TA.AperFunction,Plated,PTH,ComponentDrill
T3C0.800
; #@! TA.AperFunction,Plated,PTH,ComponentDrill
T4C0.900
; #@! TA.AperFunction,Plated,PTH,ComponentDrill
T5C1.000
; #@! TA.AperFunction,Plated,PTH,ComponentDrill
T6C1.100
; #@! TA.AperFunction,Plated,PTH,ComponentDrill
T7C1.500
%
G90
G05
T1
X136.0Y-85.0
X142.0Y-85.0
X143.0Y-94.0
X143.0Y-95.0
X150.8Y-95.2
X153.0Y-94.0
X155.0Y-79.0
X168.0Y-79.0
T2
X142.085Y-78.0
X142.643Y-76.284
X142.643Y-79.716
X144.103Y-75.223
X144.103Y-80.777
X145.907Y-75.223
X145.907Y-80.777
X147.367Y-76.284
X147.367Y-79.716
X147.925Y-78.0
T3
X112.19Y-77.0
X112.21Y-66.63
X112.24Y-72.13
X115.74Y-84.03
X115.74Y-86.57
X115.74Y-89.11
X118.38Y-54.11
X118.38Y-61.73
X118.5Y-94.0
X119.71Y-66.63
X119.81Y-77.0
X119.86Y-72.13
X120.92Y-54.11
X120.92Y-61.73
X123.26Y-81.49
X123.26Y-84.03
X123.26Y-86.57
X123.26Y-89.11
X123.46Y-54.11
X123.46Y-61.73
X123.5Y-94.0
X124.0Y-67.0
X124.0Y-74.62
X126.0Y-54.11
X126.0Y-61.73
X129.84Y-88.0
X130.0Y-67.81
X130.0Y-72.81
X130.0Y-76.0
X130.0Y-83.62
X130.19Y-54.0
X130.5Y-93.0
X135.5Y-93.0
X137.81Y-54.0
X140.0Y-88.0
X145.84Y-92.0
X156.0Y-92.0
X162.0Y-55.92
X162.0Y-66.08
T4
X138.0Y-65.0
X140.0Y-65.0
X142.0Y-65.0
T5
X115.74Y-81.49
X118.796Y-49.2
X121.336Y-49.2
X123.876Y-49.2
X126.416Y-49.2
X127.94Y-97.46
X128.956Y-49.2
X130.48Y-97.46
X131.496Y-49.2
X133.02Y-97.46
X134.036Y-49.2
X135.56Y-97.46
X136.576Y-49.2
X138.1Y-97.46
X139.116Y-49.2
X140.64Y-97.46
X141.656Y-49.2
X143.18Y-97.46
X145.72Y-49.2
X145.72Y-97.46
X148.26Y-49.2
X150.8Y-49.2
X150.8Y-97.46
X153.34Y-49.2
X153.34Y-97.46
X155.88Y-49.2
X155.88Y-97.46
X156.0Y-55.46
X156.0Y-58.0
X156.0Y-60.54
X156.0Y-63.08
X156.0Y-65.62
X156.0Y-68.16
X156.0Y-70.7
X156.0Y-73.24
X158.42Y-49.2
X158.42Y-97.46
X160.96Y-49.2
X160.96Y-97.46
X163.5Y-49.2
X163.5Y-97.46
T6
X156.46Y-84.945
X159.0Y-84.945
X161.54Y-84.945
T7
X135.9Y-65.0
X144.1Y-65.0
T0
M30
