%TF.GenerationSoftware,KiCad,Pcbnew,7.0.2*%
%TF.CreationDate,2024-01-22T00:44:54+01:00*%
%TF.ProjectId,MOSH_ISS_THANG_STEPH_JUNJIANG,4d4f5348-5f49-4535-935f-5448414e475f,rev?*%
%TF.SameCoordinates,Original*%
%TF.FileFunction,Copper,L2,Bot*%
%TF.FilePolarity,Positive*%
%FSLAX46Y46*%
G04 Gerber Fmt 4.6, Leading zero omitted, Abs format (unit mm)*
G04 Created by KiCad (PCBNEW 7.0.2) date 2024-01-22 00:44:54*
%MOMM*%
%LPD*%
G01*
G04 APERTURE LIST*
%TA.AperFunction,ComponentPad*%
%ADD10R,1.700000X1.700000*%
%TD*%
%TA.AperFunction,ComponentPad*%
%ADD11O,1.700000X1.700000*%
%TD*%
%TA.AperFunction,ComponentPad*%
%ADD12R,2.000000X2.000000*%
%TD*%
%TA.AperFunction,ComponentPad*%
%ADD13O,2.540000X2.000000*%
%TD*%
%TA.AperFunction,ComponentPad*%
%ADD14O,1.800000X1.300000*%
%TD*%
%TA.AperFunction,ComponentPad*%
%ADD15O,1.500000X1.500000*%
%TD*%
%TA.AperFunction,ComponentPad*%
%ADD16O,2.200000X3.500000*%
%TD*%
%TA.AperFunction,ComponentPad*%
%ADD17R,1.500000X2.500000*%
%TD*%
%TA.AperFunction,ComponentPad*%
%ADD18O,1.500000X2.500000*%
%TD*%
%TA.AperFunction,ComponentPad*%
%ADD19C,1.600000*%
%TD*%
%TA.AperFunction,ComponentPad*%
%ADD20O,1.600000X1.600000*%
%TD*%
%TA.AperFunction,ComponentPad*%
%ADD21R,1.905000X2.000000*%
%TD*%
%TA.AperFunction,ComponentPad*%
%ADD22O,1.905000X2.000000*%
%TD*%
%TA.AperFunction,ComponentPad*%
%ADD23R,1.600000X1.600000*%
%TD*%
%TA.AperFunction,ViaPad*%
%ADD24C,0.600000*%
%TD*%
%TA.AperFunction,Conductor*%
%ADD25C,0.250000*%
%TD*%
G04 APERTURE END LIST*
D10*
%TO.P,J1,1,Pin_1*%
%TO.N,unconnected-(J1-Pin_1-Pad1)*%
X127940000Y-97460000D03*
D11*
%TO.P,J1,2,Pin_2*%
%TO.N,/IOREF*%
X130480000Y-97460000D03*
%TO.P,J1,3,Pin_3*%
%TO.N,/~{RESET}*%
X133020000Y-97460000D03*
%TO.P,J1,4,Pin_4*%
%TO.N,+3V3*%
X135560000Y-97460000D03*
%TO.P,J1,5,Pin_5*%
%TO.N,+5V*%
X138100000Y-97460000D03*
%TO.P,J1,6,Pin_6*%
%TO.N,GND*%
X140640000Y-97460000D03*
%TO.P,J1,7,Pin_7*%
X143180000Y-97460000D03*
%TO.P,J1,8,Pin_8*%
%TO.N,VCC*%
X145720000Y-97460000D03*
%TD*%
D10*
%TO.P,J3,1,Pin_1*%
%TO.N,ADC1*%
X150800000Y-97460000D03*
D11*
%TO.P,J3,2,Pin_2*%
%TO.N,ADC2*%
X153340000Y-97460000D03*
%TO.P,J3,3,Pin_3*%
%TO.N,/A2*%
X155880000Y-97460000D03*
%TO.P,J3,4,Pin_4*%
%TO.N,/A3*%
X158420000Y-97460000D03*
%TO.P,J3,5,Pin_5*%
%TO.N,/SDA{slash}A4*%
X160960000Y-97460000D03*
%TO.P,J3,6,Pin_6*%
%TO.N,/SCL{slash}A5*%
X163500000Y-97460000D03*
%TD*%
D10*
%TO.P,J2,1,Pin_1*%
%TO.N,/SCL{slash}A5*%
X118796000Y-49200000D03*
D11*
%TO.P,J2,2,Pin_2*%
%TO.N,/SDA{slash}A4*%
X121336000Y-49200000D03*
%TO.P,J2,3,Pin_3*%
%TO.N,/AREF*%
X123876000Y-49200000D03*
%TO.P,J2,4,Pin_4*%
%TO.N,GND*%
X126416000Y-49200000D03*
%TO.P,J2,5,Pin_5*%
%TO.N,SCK*%
X128956000Y-49200000D03*
%TO.P,J2,6,Pin_6*%
%TO.N,/12*%
X131496000Y-49200000D03*
%TO.P,J2,7,Pin_7*%
%TO.N,MOSI*%
X134036000Y-49200000D03*
%TO.P,J2,8,Pin_8*%
%TO.N,CS*%
X136576000Y-49200000D03*
%TO.P,J2,9,Pin_9*%
%TO.N,/\u002A9*%
X139116000Y-49200000D03*
%TO.P,J2,10,Pin_10*%
%TO.N,/8*%
X141656000Y-49200000D03*
%TD*%
D10*
%TO.P,J4,1,Pin_1*%
%TO.N,/7*%
X145720000Y-49200000D03*
D11*
%TO.P,J4,2,Pin_2*%
%TO.N,RX*%
X148260000Y-49200000D03*
%TO.P,J4,3,Pin_3*%
%TO.N,TX*%
X150800000Y-49200000D03*
%TO.P,J4,4,Pin_4*%
%TO.N,RST*%
X153340000Y-49200000D03*
%TO.P,J4,5,Pin_5*%
%TO.N,/\u002A3*%
X155880000Y-49200000D03*
%TO.P,J4,6,Pin_6*%
%TO.N,SW_CTL*%
X158420000Y-49200000D03*
%TO.P,J4,7,Pin_7*%
%TO.N,/TX{slash}1*%
X160960000Y-49200000D03*
%TO.P,J4,8,Pin_8*%
%TO.N,/RX{slash}0*%
X163500000Y-49200000D03*
%TD*%
D12*
%TO.P,U1,1,NC_2*%
%TO.N,unconnected-(U1-NC_2-Pad1)*%
X115740000Y-81490000D03*
D13*
%TO.P,U1,2,IN-*%
%TO.N,R_potentiometer *%
X115740000Y-84030000D03*
%TO.P,U1,3,IN+*%
%TO.N,IN+*%
X115740000Y-86570000D03*
%TO.P,U1,4,V-*%
%TO.N,GND*%
X115740000Y-89110000D03*
%TO.P,U1,5,CLOCK*%
%TO.N,unconnected-(U1-CLOCK-Pad5)*%
X123260000Y-89110000D03*
%TO.P,U1,6,OUT*%
%TO.N,Net-(U1-OUT)*%
X123260000Y-86570000D03*
%TO.P,U1,7,V+*%
%TO.N,+5V*%
X123260000Y-84030000D03*
%TO.P,U1,8,NC*%
%TO.N,unconnected-(U1-NC-Pad8)*%
X123260000Y-81490000D03*
%TD*%
D14*
%TO.P,U2,1,R_ALU_IN*%
%TO.N,ADC2*%
X142085000Y-78000000D03*
D15*
%TO.P,U2,2,R_Sens_1_IN*%
%TO.N,+5V*%
X142642670Y-79716333D03*
%TO.P,U2,3,R_Poly_IN*%
%TO.N,SW_12V*%
X144102670Y-80777085D03*
%TO.P,U2,4,R_Sens_1_OUT*%
%TO.N,SW_1*%
X145907330Y-80777085D03*
%TO.P,U2,5,NC*%
%TO.N,unconnected-(U2-NC-Pad5)*%
X147367330Y-79716333D03*
%TO.P,U2,6,R_ALU_OUT*%
%TO.N,GND*%
X147925000Y-78000000D03*
%TO.P,U2,7,R_Sens_2_IN*%
%TO.N,+5V*%
X147367330Y-76283667D03*
%TO.P,U2,8,R_Poly_OUT*%
%TO.N,GND*%
X145907330Y-75222915D03*
%TO.P,U2,9,R_Sens_2_OUT*%
%TO.N,SW_2*%
X144102670Y-75222915D03*
%TO.P,U2,10,NC*%
%TO.N,unconnected-(U2-NC-Pad10)*%
X142642670Y-76283667D03*
%TD*%
D16*
%TO.P,SW1,*%
%TO.N,*%
X144100000Y-65000000D03*
X135900000Y-65000000D03*
D17*
%TO.P,SW1,1,A*%
%TO.N,SW_1*%
X142000000Y-65000000D03*
D18*
%TO.P,SW1,2,B*%
%TO.N,Isens*%
X140000000Y-65000000D03*
%TO.P,SW1,3,C*%
%TO.N,SW_2*%
X138000000Y-65000000D03*
%TD*%
D19*
%TO.P,R3,1*%
%TO.N,Net-(U1-OUT)*%
X119860000Y-72130000D03*
D20*
%TO.P,R3,2*%
%TO.N,R_potentiometer *%
X112240000Y-72130000D03*
%TD*%
D19*
%TO.P,R8,1*%
%TO.N,VCC*%
X145840000Y-92000000D03*
D20*
%TO.P,R8,2*%
%TO.N,SW_12V*%
X156000000Y-92000000D03*
%TD*%
D19*
%TO.P,R5,1*%
%TO.N,R_potentiometer *%
X130190000Y-54000000D03*
D20*
%TO.P,R5,2*%
%TO.N,GND*%
X137810000Y-54000000D03*
%TD*%
D19*
%TO.P,C4,1*%
%TO.N,ADC1*%
X130000000Y-72810000D03*
%TO.P,C4,2*%
%TO.N,GND*%
X130000000Y-67810000D03*
%TD*%
%TO.P,R2,1*%
%TO.N,IN+*%
X119810000Y-77000000D03*
D20*
%TO.P,R2,2*%
%TO.N,GND*%
X112190000Y-77000000D03*
%TD*%
D19*
%TO.P,C1,1*%
%TO.N,IN+*%
X118500000Y-94000000D03*
%TO.P,C1,2*%
%TO.N,GND*%
X123500000Y-94000000D03*
%TD*%
%TO.P,R7,1*%
%TO.N,SW_CTL*%
X162000000Y-55920000D03*
D20*
%TO.P,R7,2*%
%TO.N,Net-(Q1-G)*%
X162000000Y-66080000D03*
%TD*%
D21*
%TO.P,Q1,1,G*%
%TO.N,Net-(Q1-G)*%
X156460000Y-84945000D03*
D22*
%TO.P,Q1,2,D*%
%TO.N,SW_12V*%
X159000000Y-84945000D03*
%TO.P,Q1,3,S*%
%TO.N,GND*%
X161540000Y-84945000D03*
%TD*%
D23*
%TO.P,U3,1,~{CS}*%
%TO.N,CS*%
X118380000Y-61730000D03*
D20*
%TO.P,U3,2,SCK*%
%TO.N,SCK*%
X120920000Y-61730000D03*
%TO.P,U3,3,SI*%
%TO.N,MOSI*%
X123460000Y-61730000D03*
%TO.P,U3,4,VSS*%
%TO.N,GND*%
X126000000Y-61730000D03*
%TO.P,U3,5,PA0*%
%TO.N,R_potentiometer *%
X126000000Y-54110000D03*
%TO.P,U3,6,PW0*%
%TO.N,GND*%
X123460000Y-54110000D03*
%TO.P,U3,7,PB0*%
X120920000Y-54110000D03*
%TO.P,U3,8,VDD*%
%TO.N,+5V*%
X118380000Y-54110000D03*
%TD*%
D19*
%TO.P,R4,1*%
%TO.N,Net-(U1-OUT)*%
X130000000Y-83620000D03*
D20*
%TO.P,R4,2*%
%TO.N,ADC1*%
X130000000Y-76000000D03*
%TD*%
D19*
%TO.P,C3,1*%
%TO.N,Net-(U1-OUT)*%
X119710000Y-66630000D03*
%TO.P,C3,2*%
%TO.N,R_potentiometer *%
X112210000Y-66630000D03*
%TD*%
D10*
%TO.P,J7,1,Pin_1*%
%TO.N,RX*%
X156000000Y-73240000D03*
D11*
%TO.P,J7,2,Pin_2*%
%TO.N,TX*%
X156000000Y-70700000D03*
%TO.P,J7,3,Pin_3*%
%TO.N,unconnected-(J7-Pin_3-Pad3)*%
X156000000Y-68160000D03*
%TO.P,J7,4,Pin_4*%
%TO.N,unconnected-(J7-Pin_4-Pad4)*%
X156000000Y-65620000D03*
%TO.P,J7,5,Pin_5*%
%TO.N,RST*%
X156000000Y-63080000D03*
%TO.P,J7,6,Pin_6*%
%TO.N,+3V3*%
X156000000Y-60540000D03*
%TO.P,J7,7,Pin_7*%
%TO.N,unconnected-(J7-Pin_7-Pad7)*%
X156000000Y-58000000D03*
%TO.P,J7,8,Pin_8*%
%TO.N,GND*%
X156000000Y-55460000D03*
%TD*%
D19*
%TO.P,C2,1*%
%TO.N,+5V*%
X130500000Y-93000000D03*
%TO.P,C2,2*%
%TO.N,GND*%
X135500000Y-93000000D03*
%TD*%
%TO.P,R6,1*%
%TO.N,ADC2*%
X140000000Y-88000000D03*
D20*
%TO.P,R6,2*%
%TO.N,+5V*%
X129840000Y-88000000D03*
%TD*%
D19*
%TO.P,R1,1*%
%TO.N,Isens*%
X124000000Y-67000000D03*
D20*
%TO.P,R1,2*%
%TO.N,IN+*%
X124000000Y-74620000D03*
%TD*%
D24*
%TO.N,+5V*%
X142000000Y-85000000D03*
X136000000Y-85000000D03*
%TO.N,ADC1*%
X143000000Y-95000000D03*
X150800000Y-95200000D03*
%TO.N,ADC2*%
X153000000Y-94000000D03*
X143000000Y-94000000D03*
%TO.N,+3V3*%
X168000000Y-79000000D03*
X155000000Y-79000000D03*
%TD*%
D25*
%TO.N,+5V*%
X136000000Y-85000000D02*
X133000000Y-88000000D01*
X142642670Y-84357330D02*
X142000000Y-85000000D01*
X131000000Y-95000000D02*
X135640000Y-95000000D01*
X118380000Y-54110000D02*
X110000000Y-62490000D01*
X133000000Y-88000000D02*
X129840000Y-88000000D01*
X128000000Y-93000000D02*
X130500000Y-93000000D01*
X113000000Y-84000000D02*
X113000000Y-92000000D01*
X130500000Y-93000000D02*
X130500000Y-94500000D01*
X113000000Y-92000000D02*
X118000000Y-97000000D01*
X128000000Y-88000000D02*
X129840000Y-88000000D01*
X110000000Y-81000000D02*
X113000000Y-84000000D01*
X135640000Y-95000000D02*
X138100000Y-97460000D01*
X146617330Y-77033667D02*
X145325336Y-77033667D01*
X147367330Y-76283667D02*
X146617330Y-77033667D01*
X130500000Y-94500000D02*
X131000000Y-95000000D01*
X118000000Y-97000000D02*
X123000000Y-97000000D01*
X128000000Y-88000000D02*
X128000000Y-93000000D01*
X124000000Y-97000000D02*
X123000000Y-97000000D01*
X145325336Y-77033667D02*
X142642670Y-79716333D01*
X123260000Y-84030000D02*
X124030000Y-84030000D01*
X128000000Y-93000000D02*
X124000000Y-97000000D01*
X142642670Y-79716333D02*
X142642670Y-84357330D01*
X110000000Y-62490000D02*
X110000000Y-81000000D01*
X124030000Y-84030000D02*
X128000000Y-88000000D01*
%TO.N,IN+*%
X119240000Y-86570000D02*
X115740000Y-86570000D01*
X119810000Y-92690000D02*
X118500000Y-94000000D01*
X119810000Y-86000000D02*
X119240000Y-86570000D01*
X119810000Y-77000000D02*
X121620000Y-77000000D01*
X119810000Y-77000000D02*
X119810000Y-86000000D01*
X121620000Y-77000000D02*
X124000000Y-74620000D01*
X119810000Y-86000000D02*
X119810000Y-92690000D01*
%TO.N,Net-(U1-OUT)*%
X121000000Y-79000000D02*
X121000000Y-86000000D01*
X121000000Y-86000000D02*
X121570000Y-86570000D01*
X121570000Y-86570000D02*
X123260000Y-86570000D01*
X127000000Y-79000000D02*
X121000000Y-79000000D01*
X127000000Y-70000000D02*
X127000000Y-79000000D01*
X119710000Y-70000000D02*
X119710000Y-71980000D01*
X119710000Y-71980000D02*
X119860000Y-72130000D01*
X127000000Y-83000000D02*
X127000000Y-79000000D01*
X119710000Y-70000000D02*
X127000000Y-70000000D01*
X119710000Y-66630000D02*
X119710000Y-70000000D01*
X127620000Y-83620000D02*
X127000000Y-83000000D01*
X130000000Y-83620000D02*
X127620000Y-83620000D01*
%TO.N,R_potentiometer *%
X112210000Y-66630000D02*
X112210000Y-72100000D01*
X112210000Y-61790000D02*
X112210000Y-66630000D01*
X112240000Y-74240000D02*
X114000000Y-76000000D01*
X116000000Y-58000000D02*
X112210000Y-61790000D01*
X122110000Y-58000000D02*
X116000000Y-58000000D01*
X130190000Y-54000000D02*
X126110000Y-54000000D01*
X112210000Y-72100000D02*
X112240000Y-72130000D01*
X114000000Y-82290000D02*
X115740000Y-84030000D01*
X112240000Y-72130000D02*
X112240000Y-74240000D01*
X114000000Y-76000000D02*
X114000000Y-82290000D01*
X126000000Y-54110000D02*
X122110000Y-58000000D01*
X126110000Y-54000000D02*
X126000000Y-54110000D01*
%TO.N,ADC1*%
X142000000Y-95000000D02*
X143000000Y-95000000D01*
X137550000Y-83550000D02*
X137550000Y-90550000D01*
X130000000Y-76000000D02*
X137550000Y-83550000D01*
X137550000Y-90550000D02*
X142000000Y-95000000D01*
X130000000Y-76000000D02*
X130000000Y-72810000D01*
X151000000Y-95000000D02*
X150800000Y-95200000D01*
X150800000Y-97460000D02*
X150800000Y-95200000D01*
%TO.N,SCK*%
X132000000Y-55000000D02*
X130000000Y-57000000D01*
X125650000Y-57000000D02*
X120920000Y-61730000D01*
X132000000Y-52244000D02*
X132000000Y-55000000D01*
X130000000Y-57000000D02*
X125650000Y-57000000D01*
X128956000Y-49200000D02*
X132000000Y-52244000D01*
%TO.N,MOSI*%
X127190000Y-58000000D02*
X123460000Y-61730000D01*
X134036000Y-49200000D02*
X134036000Y-53964000D01*
X130000000Y-58000000D02*
X127190000Y-58000000D01*
X134036000Y-53964000D02*
X130000000Y-58000000D01*
%TO.N,CS*%
X136000000Y-52000000D02*
X136000000Y-55000000D01*
X118380000Y-63380000D02*
X118380000Y-61730000D01*
X119000000Y-64000000D02*
X118380000Y-63380000D01*
X136000000Y-55000000D02*
X127000000Y-64000000D01*
X127000000Y-64000000D02*
X119000000Y-64000000D01*
X136576000Y-51424000D02*
X136000000Y-52000000D01*
X136576000Y-49200000D02*
X136576000Y-51424000D01*
%TO.N,ADC2*%
X153000000Y-94000000D02*
X153340000Y-94340000D01*
X140000000Y-92000000D02*
X142000000Y-94000000D01*
X153340000Y-94340000D02*
X153340000Y-97460000D01*
X140000000Y-88000000D02*
X140000000Y-80085000D01*
X140000000Y-88000000D02*
X140000000Y-92000000D01*
X142000000Y-94000000D02*
X143000000Y-94000000D01*
X140000000Y-80085000D02*
X142085000Y-78000000D01*
%TO.N,RX*%
X148260000Y-65500000D02*
X156000000Y-73240000D01*
X148260000Y-49200000D02*
X148260000Y-51260000D01*
X148260000Y-49200000D02*
X148260000Y-65500000D01*
%TO.N,+3V3*%
X165000000Y-99000000D02*
X168000000Y-96000000D01*
X156000000Y-60540000D02*
X159000000Y-63540000D01*
X155000000Y-79000000D02*
X159000000Y-75000000D01*
X168000000Y-96000000D02*
X168000000Y-79000000D01*
X135560000Y-97460000D02*
X137000000Y-98900000D01*
X137000000Y-99000000D02*
X165000000Y-99000000D01*
X137000000Y-98900000D02*
X137000000Y-99000000D01*
X159000000Y-75000000D02*
X159000000Y-64000000D01*
X159000000Y-63540000D02*
X159000000Y-64000000D01*
%TO.N,VCC*%
X145840000Y-92000000D02*
X145840000Y-97340000D01*
X145840000Y-97340000D02*
X145720000Y-97460000D01*
%TO.N,TX*%
X150800000Y-49200000D02*
X150800000Y-65500000D01*
X150800000Y-65500000D02*
X156000000Y-70700000D01*
%TO.N,RST*%
X153340000Y-49200000D02*
X153340000Y-60420000D01*
X153340000Y-60420000D02*
X156000000Y-63080000D01*
%TO.N,SW_CTL*%
X158420000Y-49200000D02*
X158420000Y-52340000D01*
X158420000Y-52340000D02*
X162000000Y-55920000D01*
%TO.N,Net-(Q1-G)*%
X160000000Y-68080000D02*
X160000000Y-78000000D01*
X162000000Y-66080000D02*
X160000000Y-68080000D01*
X160000000Y-78000000D02*
X156460000Y-81540000D01*
X156460000Y-81540000D02*
X156460000Y-84945000D01*
%TO.N,SW_12V*%
X156000000Y-92000000D02*
X156000000Y-88000000D01*
X156000000Y-88000000D02*
X146000000Y-88000000D01*
X144102670Y-86102670D02*
X146000000Y-88000000D01*
X159000000Y-89000000D02*
X159000000Y-84945000D01*
X156000000Y-92000000D02*
X159000000Y-89000000D01*
X144102670Y-80777085D02*
X144102670Y-86102670D01*
%TO.N,SW_1*%
X142000000Y-65000000D02*
X142000000Y-66500000D01*
X148130245Y-83000000D02*
X145907330Y-80777085D01*
X142000000Y-66500000D02*
X151000000Y-75500000D01*
X151000000Y-82000000D02*
X150000000Y-83000000D01*
X150000000Y-83000000D02*
X148130245Y-83000000D01*
X151000000Y-75500000D02*
X151000000Y-82000000D01*
%TO.N,Isens*%
X129000000Y-65000000D02*
X132000000Y-62000000D01*
X126000000Y-65000000D02*
X129000000Y-65000000D01*
X140000000Y-64500000D02*
X140000000Y-65000000D01*
X124000000Y-67000000D02*
X126000000Y-65000000D01*
X137500000Y-62000000D02*
X140000000Y-64500000D01*
X132000000Y-62000000D02*
X137500000Y-62000000D01*
%TO.N,SW_2*%
X138000000Y-65000000D02*
X138000000Y-69120245D01*
X138000000Y-69120245D02*
X144102670Y-75222915D01*
%TD*%
%TA.AperFunction,Conductor*%
%TO.N,GND*%
G36*
X163748904Y-47019685D02*
G01*
X163769546Y-47036319D01*
X165928181Y-49194953D01*
X165961666Y-49256276D01*
X165964500Y-49282634D01*
X165964500Y-59315019D01*
X165961963Y-59334292D01*
X165964028Y-59357896D01*
X165964500Y-59368702D01*
X165964500Y-59381116D01*
X165967075Y-59392733D01*
X165967182Y-59393956D01*
X165971651Y-59403541D01*
X165978451Y-59411644D01*
X165978452Y-59411645D01*
X165979500Y-59412250D01*
X166005185Y-59431958D01*
X168468181Y-61894954D01*
X168501666Y-61956277D01*
X168504500Y-61982635D01*
X168504500Y-78145202D01*
X168484815Y-78212241D01*
X168432011Y-78257996D01*
X168362853Y-78267940D01*
X168339546Y-78262244D01*
X168214109Y-78218352D01*
X168181047Y-78206783D01*
X168181046Y-78206782D01*
X168181044Y-78206782D01*
X168000000Y-78186383D01*
X167818955Y-78206782D01*
X167646984Y-78266957D01*
X167492717Y-78363890D01*
X167363890Y-78492717D01*
X167266957Y-78646984D01*
X167206782Y-78818955D01*
X167186383Y-79000000D01*
X167206782Y-79181044D01*
X167266958Y-79353018D01*
X167347493Y-79481187D01*
X167366500Y-79547159D01*
X167366500Y-95686232D01*
X167346815Y-95753271D01*
X167330181Y-95773913D01*
X164933137Y-98170957D01*
X164871814Y-98204442D01*
X164802122Y-98199458D01*
X164746189Y-98157586D01*
X164721772Y-98092122D01*
X164731900Y-98033466D01*
X164789296Y-97902616D01*
X164844564Y-97684368D01*
X164863156Y-97460000D01*
X164844564Y-97235632D01*
X164789296Y-97017384D01*
X164698860Y-96811209D01*
X164575722Y-96622732D01*
X164423240Y-96457094D01*
X164245576Y-96318811D01*
X164047574Y-96211658D01*
X164047573Y-96211657D01*
X164047572Y-96211657D01*
X163834636Y-96138556D01*
X163612569Y-96101500D01*
X163387431Y-96101500D01*
X163165363Y-96138556D01*
X162952427Y-96211657D01*
X162754424Y-96318811D01*
X162576760Y-96457094D01*
X162424279Y-96622730D01*
X162333809Y-96761205D01*
X162280662Y-96806561D01*
X162211431Y-96815985D01*
X162148095Y-96786483D01*
X162126191Y-96761205D01*
X162035723Y-96622734D01*
X162035722Y-96622732D01*
X161883240Y-96457094D01*
X161705576Y-96318811D01*
X161507574Y-96211658D01*
X161507573Y-96211657D01*
X161507572Y-96211657D01*
X161294636Y-96138556D01*
X161072569Y-96101500D01*
X160847431Y-96101500D01*
X160625363Y-96138556D01*
X160412427Y-96211657D01*
X160214424Y-96318811D01*
X160036760Y-96457094D01*
X159884279Y-96622730D01*
X159793809Y-96761205D01*
X159740662Y-96806561D01*
X159671431Y-96815985D01*
X159608095Y-96786483D01*
X159586191Y-96761205D01*
X159495723Y-96622734D01*
X159495722Y-96622732D01*
X159343240Y-96457094D01*
X159165576Y-96318811D01*
X158967574Y-96211658D01*
X158967573Y-96211657D01*
X158967572Y-96211657D01*
X158754636Y-96138556D01*
X158532569Y-96101500D01*
X158307431Y-96101500D01*
X158085363Y-96138556D01*
X157872427Y-96211657D01*
X157674424Y-96318811D01*
X157496760Y-96457094D01*
X157344279Y-96622730D01*
X157253809Y-96761205D01*
X157200662Y-96806561D01*
X157131431Y-96815985D01*
X157068095Y-96786483D01*
X157046191Y-96761205D01*
X156955723Y-96622734D01*
X156955722Y-96622732D01*
X156803240Y-96457094D01*
X156625576Y-96318811D01*
X156427574Y-96211658D01*
X156427573Y-96211657D01*
X156427572Y-96211657D01*
X156214636Y-96138556D01*
X155992569Y-96101500D01*
X155767431Y-96101500D01*
X155545363Y-96138556D01*
X155332427Y-96211657D01*
X155134424Y-96318811D01*
X154956760Y-96457094D01*
X154804279Y-96622730D01*
X154713809Y-96761205D01*
X154660662Y-96806561D01*
X154591431Y-96815985D01*
X154528095Y-96786483D01*
X154506191Y-96761205D01*
X154415723Y-96622734D01*
X154415722Y-96622732D01*
X154263240Y-96457094D01*
X154093499Y-96324978D01*
X154085575Y-96318810D01*
X154038481Y-96293324D01*
X153988891Y-96244104D01*
X153973500Y-96184270D01*
X153973500Y-94423633D01*
X153975789Y-94402888D01*
X153975701Y-94400095D01*
X153975702Y-94400092D01*
X153973561Y-94331968D01*
X153973500Y-94328073D01*
X153973500Y-94304043D01*
X153973500Y-94300144D01*
X153972983Y-94296058D01*
X153972065Y-94284399D01*
X153971586Y-94269146D01*
X153970674Y-94240111D01*
X153964977Y-94220501D01*
X153961033Y-94201460D01*
X153958474Y-94181203D01*
X153942161Y-94140002D01*
X153938386Y-94128975D01*
X153926019Y-94086407D01*
X153915622Y-94068828D01*
X153907064Y-94051357D01*
X153899552Y-94032384D01*
X153899552Y-94032383D01*
X153873505Y-93996532D01*
X153867098Y-93986778D01*
X153844542Y-93948637D01*
X153833849Y-93937945D01*
X153800362Y-93876623D01*
X153798311Y-93864173D01*
X153793217Y-93818953D01*
X153733043Y-93646985D01*
X153636111Y-93492719D01*
X153507281Y-93363889D01*
X153353015Y-93266957D01*
X153181047Y-93206783D01*
X153181046Y-93206782D01*
X153181044Y-93206782D01*
X153000000Y-93186383D01*
X152818955Y-93206782D01*
X152646984Y-93266957D01*
X152492717Y-93363890D01*
X152363890Y-93492717D01*
X152266957Y-93646984D01*
X152206782Y-93818955D01*
X152186383Y-94000000D01*
X152206782Y-94181044D01*
X152206782Y-94181046D01*
X152206783Y-94181047D01*
X152266957Y-94353015D01*
X152363889Y-94507281D01*
X152492719Y-94636111D01*
X152646985Y-94733043D01*
X152646986Y-94733043D01*
X152648472Y-94733977D01*
X152694763Y-94786312D01*
X152706500Y-94838971D01*
X152706500Y-96184270D01*
X152686815Y-96251309D01*
X152641519Y-96293324D01*
X152594424Y-96318810D01*
X152416759Y-96457094D01*
X152353548Y-96525759D01*
X152293660Y-96561749D01*
X152223822Y-96559648D01*
X152166207Y-96520123D01*
X152146138Y-96485110D01*
X152118825Y-96411884D01*
X152100889Y-96363796D01*
X152057249Y-96305500D01*
X152013261Y-96246738D01*
X151896203Y-96159110D01*
X151759205Y-96108011D01*
X151701924Y-96101853D01*
X151701918Y-96101852D01*
X151698638Y-96101500D01*
X151695328Y-96101500D01*
X151557500Y-96101500D01*
X151490461Y-96081815D01*
X151444706Y-96029011D01*
X151433500Y-95977500D01*
X151433500Y-95747159D01*
X151452507Y-95681187D01*
X151470102Y-95653185D01*
X151533043Y-95553015D01*
X151593217Y-95381047D01*
X151613616Y-95200000D01*
X151613615Y-95199998D01*
X151614007Y-95196526D01*
X151614624Y-95169035D01*
X151628880Y-95079025D01*
X151638220Y-95020057D01*
X151623157Y-94860708D01*
X151568939Y-94710111D01*
X151478972Y-94577729D01*
X151358910Y-94471879D01*
X151216296Y-94399214D01*
X151060092Y-94364298D01*
X151060090Y-94364298D01*
X150900109Y-94369325D01*
X150853649Y-94382823D01*
X150805181Y-94386967D01*
X150800001Y-94386383D01*
X150618955Y-94406782D01*
X150446984Y-94466957D01*
X150292717Y-94563890D01*
X150163890Y-94692717D01*
X150066957Y-94846984D01*
X150006782Y-95018955D01*
X149986383Y-95199999D01*
X150006782Y-95381044D01*
X150066958Y-95553018D01*
X150147493Y-95681187D01*
X150166500Y-95747159D01*
X150166500Y-95977500D01*
X150146815Y-96044539D01*
X150094011Y-96090294D01*
X150042500Y-96101500D01*
X149901362Y-96101500D01*
X149898082Y-96101852D01*
X149898075Y-96101853D01*
X149840794Y-96108011D01*
X149703796Y-96159110D01*
X149586738Y-96246738D01*
X149499110Y-96363796D01*
X149448011Y-96500794D01*
X149441853Y-96558075D01*
X149441500Y-96561362D01*
X149441500Y-96564671D01*
X149441500Y-98242500D01*
X149421815Y-98309539D01*
X149369011Y-98355294D01*
X149317500Y-98366500D01*
X146979623Y-98366500D01*
X146912584Y-98346815D01*
X146866829Y-98294011D01*
X146856885Y-98224853D01*
X146875814Y-98174679D01*
X146918860Y-98108791D01*
X146951900Y-98033466D01*
X147009296Y-97902616D01*
X147064564Y-97684368D01*
X147083156Y-97460000D01*
X147064564Y-97235632D01*
X147009296Y-97017384D01*
X146918860Y-96811209D01*
X146795722Y-96622732D01*
X146643240Y-96457094D01*
X146643239Y-96457093D01*
X146521337Y-96362211D01*
X146480524Y-96305500D01*
X146473500Y-96264358D01*
X146473500Y-93218352D01*
X146493185Y-93151313D01*
X146526373Y-93116779D01*
X146684300Y-93006198D01*
X146846198Y-92844300D01*
X146977523Y-92656749D01*
X147074284Y-92449243D01*
X147133543Y-92228087D01*
X147153498Y-92000000D01*
X147133543Y-91771913D01*
X147074284Y-91550757D01*
X146977523Y-91343251D01*
X146846198Y-91155700D01*
X146684300Y-90993802D01*
X146496749Y-90862477D01*
X146496746Y-90862476D01*
X146496744Y-90862474D01*
X146289246Y-90765717D01*
X146289243Y-90765716D01*
X146076824Y-90708798D01*
X146068084Y-90706456D01*
X145840000Y-90686501D01*
X145611915Y-90706456D01*
X145390753Y-90765717D01*
X145183255Y-90862474D01*
X145132246Y-90898191D01*
X145005262Y-90987107D01*
X144995696Y-90993805D01*
X144833805Y-91155696D01*
X144702474Y-91343255D01*
X144605717Y-91550753D01*
X144546456Y-91771915D01*
X144526501Y-92000000D01*
X144546456Y-92228084D01*
X144546457Y-92228087D01*
X144599915Y-92427595D01*
X144605717Y-92449246D01*
X144702474Y-92656744D01*
X144702476Y-92656746D01*
X144702477Y-92656749D01*
X144833802Y-92844300D01*
X144995700Y-93006198D01*
X145153625Y-93116779D01*
X145197248Y-93171354D01*
X145206500Y-93218352D01*
X145206500Y-96119330D01*
X145186815Y-96186369D01*
X145141519Y-96228383D01*
X145021520Y-96293324D01*
X144974422Y-96318812D01*
X144796760Y-96457094D01*
X144644275Y-96622734D01*
X144550250Y-96766650D01*
X144497104Y-96812006D01*
X144427873Y-96821430D01*
X144364537Y-96791928D01*
X144344867Y-96769951D01*
X144218109Y-96588921D01*
X144051081Y-96421893D01*
X143857576Y-96286399D01*
X143643492Y-96186569D01*
X143430000Y-96129364D01*
X143430000Y-97024498D01*
X143322315Y-96975320D01*
X143215763Y-96960000D01*
X143144237Y-96960000D01*
X143037685Y-96975320D01*
X142930000Y-97024498D01*
X142930000Y-96129364D01*
X142929999Y-96129364D01*
X142716507Y-96186569D01*
X142502421Y-96286400D01*
X142308921Y-96421890D01*
X142141893Y-96588918D01*
X142011575Y-96775032D01*
X141956998Y-96818656D01*
X141887499Y-96825849D01*
X141825145Y-96794327D01*
X141808425Y-96775032D01*
X141678106Y-96588918D01*
X141511081Y-96421893D01*
X141317576Y-96286399D01*
X141103492Y-96186569D01*
X140890000Y-96129364D01*
X140890000Y-97024498D01*
X140782315Y-96975320D01*
X140675763Y-96960000D01*
X140604237Y-96960000D01*
X140497685Y-96975320D01*
X140390000Y-97024498D01*
X140390000Y-96129364D01*
X140389999Y-96129364D01*
X140176507Y-96186569D01*
X139962421Y-96286400D01*
X139768921Y-96421890D01*
X139601893Y-96588918D01*
X139475132Y-96769952D01*
X139420555Y-96813576D01*
X139351056Y-96820769D01*
X139288702Y-96789247D01*
X139269748Y-96766649D01*
X139175723Y-96622732D01*
X139081263Y-96520123D01*
X139023240Y-96457094D01*
X138845576Y-96318811D01*
X138647574Y-96211658D01*
X138647573Y-96211657D01*
X138647572Y-96211657D01*
X138434636Y-96138556D01*
X138212569Y-96101500D01*
X137987431Y-96101500D01*
X137755230Y-96140247D01*
X137754752Y-96137384D01*
X137701095Y-96139802D01*
X137642959Y-96107054D01*
X136147088Y-94611183D01*
X136134044Y-94594902D01*
X136132000Y-94592983D01*
X136132000Y-94592982D01*
X136082315Y-94546325D01*
X136079550Y-94543645D01*
X136062527Y-94526622D01*
X136059770Y-94523865D01*
X136056486Y-94521317D01*
X136047623Y-94513746D01*
X136015321Y-94483414D01*
X135997433Y-94473580D01*
X135981169Y-94462896D01*
X135965040Y-94450385D01*
X135959270Y-94447888D01*
X135905561Y-94403198D01*
X135884540Y-94336566D01*
X135902880Y-94269146D01*
X135954758Y-94222344D01*
X135956110Y-94221704D01*
X136152480Y-94130134D01*
X136225472Y-94079025D01*
X135544401Y-93397953D01*
X135625148Y-93385165D01*
X135738045Y-93327641D01*
X135827641Y-93238045D01*
X135885165Y-93125148D01*
X135897953Y-93044400D01*
X136579025Y-93725472D01*
X136630134Y-93652480D01*
X136726266Y-93446326D01*
X136785141Y-93226602D01*
X136804966Y-93000000D01*
X136785141Y-92773397D01*
X136726266Y-92553673D01*
X136630133Y-92347515D01*
X136579025Y-92274526D01*
X135897953Y-92955598D01*
X135885165Y-92874852D01*
X135827641Y-92761955D01*
X135738045Y-92672359D01*
X135625148Y-92614835D01*
X135544400Y-92602046D01*
X136225472Y-91920974D01*
X136225471Y-91920972D01*
X136152484Y-91869866D01*
X135946326Y-91773733D01*
X135726602Y-91714858D01*
X135500000Y-91695033D01*
X135273397Y-91714858D01*
X135053672Y-91773733D01*
X134847516Y-91869865D01*
X134774527Y-91920973D01*
X134774526Y-91920973D01*
X135455600Y-92602046D01*
X135374852Y-92614835D01*
X135261955Y-92672359D01*
X135172359Y-92761955D01*
X135114835Y-92874852D01*
X135102046Y-92955598D01*
X134420973Y-92274527D01*
X134369865Y-92347516D01*
X134273733Y-92553672D01*
X134214858Y-92773397D01*
X134195033Y-93000000D01*
X134214858Y-93226602D01*
X134273733Y-93446326D01*
X134369866Y-93652484D01*
X134420972Y-93725471D01*
X134420973Y-93725472D01*
X135102045Y-93044399D01*
X135114835Y-93125148D01*
X135172359Y-93238045D01*
X135261955Y-93327641D01*
X135374852Y-93385165D01*
X135455599Y-93397953D01*
X134774526Y-94079025D01*
X134774526Y-94079026D01*
X134856403Y-94136356D01*
X134855703Y-94137355D01*
X134899923Y-94176291D01*
X134919074Y-94243485D01*
X134898858Y-94310366D01*
X134845692Y-94355700D01*
X134795078Y-94366500D01*
X131313767Y-94366500D01*
X131246728Y-94346815D01*
X131226085Y-94330180D01*
X131188710Y-94292804D01*
X131155225Y-94231480D01*
X131160211Y-94161789D01*
X131202083Y-94105856D01*
X131205245Y-94103565D01*
X131344300Y-94006198D01*
X131506198Y-93844300D01*
X131637523Y-93656749D01*
X131734284Y-93449243D01*
X131793543Y-93228087D01*
X131813498Y-93000000D01*
X131793543Y-92771913D01*
X131734284Y-92550757D01*
X131637523Y-92343251D01*
X131506198Y-92155700D01*
X131344300Y-91993802D01*
X131156749Y-91862477D01*
X131156746Y-91862476D01*
X131156744Y-91862474D01*
X130949246Y-91765717D01*
X130949243Y-91765716D01*
X130759440Y-91714858D01*
X130728084Y-91706456D01*
X130500000Y-91686501D01*
X130271915Y-91706456D01*
X130050753Y-91765717D01*
X129843255Y-91862474D01*
X129655696Y-91993805D01*
X129493801Y-92155700D01*
X129383221Y-92313624D01*
X129328644Y-92357249D01*
X129281647Y-92366500D01*
X128757500Y-92366500D01*
X128690461Y-92346815D01*
X128644706Y-92294011D01*
X128633500Y-92242500D01*
X128633500Y-88943360D01*
X128653185Y-88876321D01*
X128705989Y-88830566D01*
X128775147Y-88820622D01*
X128838703Y-88849647D01*
X128845181Y-88855679D01*
X128995700Y-89006198D01*
X129183251Y-89137523D01*
X129390757Y-89234284D01*
X129611913Y-89293543D01*
X129840000Y-89313498D01*
X130068087Y-89293543D01*
X130289243Y-89234284D01*
X130496749Y-89137523D01*
X130684300Y-89006198D01*
X130846198Y-88844300D01*
X130909937Y-88753272D01*
X130956779Y-88686376D01*
X131011356Y-88642751D01*
X131058353Y-88633500D01*
X132916367Y-88633500D01*
X132937108Y-88635789D01*
X132939905Y-88635701D01*
X132939909Y-88635702D01*
X133008017Y-88633560D01*
X133011913Y-88633500D01*
X133035958Y-88633500D01*
X133039856Y-88633500D01*
X133043724Y-88633011D01*
X133043947Y-88632983D01*
X133055608Y-88632064D01*
X133099889Y-88630673D01*
X133119498Y-88624975D01*
X133138531Y-88621033D01*
X133158797Y-88618474D01*
X133200006Y-88602157D01*
X133211037Y-88598380D01*
X133253593Y-88586018D01*
X133271160Y-88575628D01*
X133288632Y-88567068D01*
X133307617Y-88559552D01*
X133343475Y-88533498D01*
X133353223Y-88527096D01*
X133391362Y-88504542D01*
X133405800Y-88490103D01*
X133420588Y-88477472D01*
X133437107Y-88465472D01*
X133465359Y-88431319D01*
X133473203Y-88422699D01*
X136062056Y-85833846D01*
X136123377Y-85800363D01*
X136135853Y-85798309D01*
X136138915Y-85797964D01*
X136181047Y-85793217D01*
X136353015Y-85733043D01*
X136507281Y-85636111D01*
X136636111Y-85507281D01*
X136687508Y-85425483D01*
X136739841Y-85379194D01*
X136808894Y-85368546D01*
X136872743Y-85396921D01*
X136911115Y-85455310D01*
X136916500Y-85491457D01*
X136916500Y-90466367D01*
X136914210Y-90487108D01*
X136916439Y-90558016D01*
X136916500Y-90561912D01*
X136916500Y-90589856D01*
X136916987Y-90593716D01*
X136916988Y-90593722D01*
X136917019Y-90593965D01*
X136917934Y-90605596D01*
X136919326Y-90649888D01*
X136925022Y-90669492D01*
X136928967Y-90688544D01*
X136931525Y-90708798D01*
X136947838Y-90750001D01*
X136951621Y-90761049D01*
X136963982Y-90803593D01*
X136974374Y-90821166D01*
X136982931Y-90838633D01*
X136990448Y-90857618D01*
X137016491Y-90893463D01*
X137022905Y-90903227D01*
X137045458Y-90941362D01*
X137059890Y-90955794D01*
X137072526Y-90970589D01*
X137084526Y-90987105D01*
X137118667Y-91015349D01*
X137127308Y-91023212D01*
X141492910Y-95388814D01*
X141505959Y-95405101D01*
X141507999Y-95407016D01*
X141508000Y-95407018D01*
X141557701Y-95453690D01*
X141560450Y-95456354D01*
X141580230Y-95476134D01*
X141583484Y-95478658D01*
X141592367Y-95486244D01*
X141624679Y-95516586D01*
X141642572Y-95526422D01*
X141658831Y-95537103D01*
X141674959Y-95549613D01*
X141715625Y-95567210D01*
X141726106Y-95572346D01*
X141747567Y-95584144D01*
X141764940Y-95593695D01*
X141784706Y-95598770D01*
X141784710Y-95598771D01*
X141803115Y-95605071D01*
X141821855Y-95613181D01*
X141865618Y-95620111D01*
X141877045Y-95622478D01*
X141919970Y-95633500D01*
X141940391Y-95633500D01*
X141959788Y-95635026D01*
X141968555Y-95636415D01*
X141979942Y-95638219D01*
X141979942Y-95638218D01*
X141979943Y-95638219D01*
X142024049Y-95634049D01*
X142035718Y-95633500D01*
X142452840Y-95633500D01*
X142518810Y-95652505D01*
X142646985Y-95733043D01*
X142818953Y-95793217D01*
X143000000Y-95813616D01*
X143181047Y-95793217D01*
X143353015Y-95733043D01*
X143507281Y-95636111D01*
X143636111Y-95507281D01*
X143733043Y-95353015D01*
X143793217Y-95181047D01*
X143813616Y-95000000D01*
X143793217Y-94818953D01*
X143733043Y-94646985D01*
X143682137Y-94565970D01*
X143663138Y-94498734D01*
X143682139Y-94434026D01*
X143733043Y-94353015D01*
X143793217Y-94181047D01*
X143813616Y-94000000D01*
X143793217Y-93818953D01*
X143733043Y-93646985D01*
X143636111Y-93492719D01*
X143507281Y-93363889D01*
X143353015Y-93266957D01*
X143181047Y-93206783D01*
X143181046Y-93206782D01*
X143181044Y-93206782D01*
X143000000Y-93186383D01*
X142818955Y-93206782D01*
X142646984Y-93266957D01*
X142572916Y-93313498D01*
X142518810Y-93347494D01*
X142452840Y-93366500D01*
X142313766Y-93366500D01*
X142246727Y-93346815D01*
X142226085Y-93330181D01*
X140669819Y-91773914D01*
X140636334Y-91712591D01*
X140633500Y-91686233D01*
X140633500Y-89218352D01*
X140653185Y-89151313D01*
X140686373Y-89116779D01*
X140844300Y-89006198D01*
X141006198Y-88844300D01*
X141137523Y-88656749D01*
X141234284Y-88449243D01*
X141293543Y-88228087D01*
X141313498Y-88000000D01*
X141293543Y-87771913D01*
X141234284Y-87550757D01*
X141137523Y-87343251D01*
X141006198Y-87155700D01*
X140844300Y-86993802D01*
X140686374Y-86883220D01*
X140642752Y-86828646D01*
X140633500Y-86781648D01*
X140633500Y-80398765D01*
X140653185Y-80331726D01*
X140669819Y-80311084D01*
X140915962Y-80064941D01*
X141182096Y-79798806D01*
X141243417Y-79765323D01*
X141313108Y-79770307D01*
X141369042Y-79812178D01*
X141393303Y-79875681D01*
X141398554Y-79935701D01*
X141455550Y-80148410D01*
X141484682Y-80210883D01*
X141548614Y-80347987D01*
X141674921Y-80528371D01*
X141830632Y-80684082D01*
X141956295Y-80772072D01*
X141999919Y-80826648D01*
X142009170Y-80873646D01*
X142009170Y-84043561D01*
X141989485Y-84110600D01*
X141972850Y-84131243D01*
X141937940Y-84166152D01*
X141876616Y-84199637D01*
X141864145Y-84201690D01*
X141818956Y-84206782D01*
X141818953Y-84206782D01*
X141818953Y-84206783D01*
X141646985Y-84266957D01*
X141646983Y-84266957D01*
X141646983Y-84266958D01*
X141492717Y-84363890D01*
X141363890Y-84492717D01*
X141266957Y-84646984D01*
X141206782Y-84818955D01*
X141186383Y-85000000D01*
X141206782Y-85181044D01*
X141206782Y-85181046D01*
X141206783Y-85181047D01*
X141266957Y-85353015D01*
X141363889Y-85507281D01*
X141492719Y-85636111D01*
X141646985Y-85733043D01*
X141818953Y-85793217D01*
X142000000Y-85813616D01*
X142181047Y-85793217D01*
X142353015Y-85733043D01*
X142507281Y-85636111D01*
X142636111Y-85507281D01*
X142733043Y-85353015D01*
X142793217Y-85181047D01*
X142798309Y-85135852D01*
X142825375Y-85071438D01*
X142833838Y-85062064D01*
X143031486Y-84864416D01*
X143047767Y-84851374D01*
X143049684Y-84849332D01*
X143049688Y-84849330D01*
X143096376Y-84799609D01*
X143098994Y-84796908D01*
X143118805Y-84777099D01*
X143121332Y-84773839D01*
X143128924Y-84764949D01*
X143159256Y-84732651D01*
X143169094Y-84714754D01*
X143179770Y-84698501D01*
X143192284Y-84682370D01*
X143209886Y-84641690D01*
X143215013Y-84631226D01*
X143230942Y-84602255D01*
X143236511Y-84592126D01*
X143286059Y-84542864D01*
X143354375Y-84528210D01*
X143419768Y-84552817D01*
X143461477Y-84608871D01*
X143469170Y-84651868D01*
X143469170Y-86019037D01*
X143466880Y-86039778D01*
X143466968Y-86042578D01*
X143466968Y-86042579D01*
X143467777Y-86068326D01*
X143469109Y-86110686D01*
X143469170Y-86114582D01*
X143469170Y-86142526D01*
X143469657Y-86146386D01*
X143469658Y-86146392D01*
X143469689Y-86146635D01*
X143470604Y-86158266D01*
X143471996Y-86202558D01*
X143477692Y-86222162D01*
X143481637Y-86241214D01*
X143484195Y-86261468D01*
X143500508Y-86302671D01*
X143504291Y-86313719D01*
X143516652Y-86356263D01*
X143527044Y-86373836D01*
X143535601Y-86391303D01*
X143543118Y-86410288D01*
X143569161Y-86446133D01*
X143575575Y-86455897D01*
X143598128Y-86494032D01*
X143612560Y-86508464D01*
X143625196Y-86523259D01*
X143637196Y-86539775D01*
X143671337Y-86568019D01*
X143679978Y-86575882D01*
X145492912Y-88388817D01*
X145505956Y-88405098D01*
X145507999Y-88407016D01*
X145508000Y-88407018D01*
X145557685Y-88453675D01*
X145560449Y-88456354D01*
X145580230Y-88476135D01*
X145583306Y-88478521D01*
X145583503Y-88478674D01*
X145592372Y-88486249D01*
X145624679Y-88516586D01*
X145642564Y-88526418D01*
X145658825Y-88537099D01*
X145674959Y-88549614D01*
X145715625Y-88567210D01*
X145726111Y-88572348D01*
X145731413Y-88575263D01*
X145764940Y-88593695D01*
X145783177Y-88598377D01*
X145784708Y-88598770D01*
X145803119Y-88605073D01*
X145821855Y-88613181D01*
X145865626Y-88620113D01*
X145877041Y-88622477D01*
X145919970Y-88633500D01*
X145940384Y-88633500D01*
X145959783Y-88635027D01*
X145979943Y-88638220D01*
X146024056Y-88634050D01*
X146035726Y-88633500D01*
X155242500Y-88633500D01*
X155309539Y-88653185D01*
X155355294Y-88705989D01*
X155366500Y-88757500D01*
X155366500Y-90781648D01*
X155346815Y-90848687D01*
X155313626Y-90883220D01*
X155155700Y-90993802D01*
X155155696Y-90993805D01*
X154993805Y-91155696D01*
X154862474Y-91343255D01*
X154765717Y-91550753D01*
X154706456Y-91771915D01*
X154686501Y-91999999D01*
X154706456Y-92228084D01*
X154706457Y-92228087D01*
X154759915Y-92427595D01*
X154765717Y-92449246D01*
X154862474Y-92656744D01*
X154862476Y-92656746D01*
X154862477Y-92656749D01*
X154993802Y-92844300D01*
X155155700Y-93006198D01*
X155343251Y-93137523D01*
X155550757Y-93234284D01*
X155771913Y-93293543D01*
X156000000Y-93313498D01*
X156228087Y-93293543D01*
X156449243Y-93234284D01*
X156656749Y-93137523D01*
X156844300Y-93006198D01*
X157006198Y-92844300D01*
X157137523Y-92656749D01*
X157234284Y-92449243D01*
X157293543Y-92228087D01*
X157313498Y-92000000D01*
X157293543Y-91771913D01*
X157276241Y-91707341D01*
X157277904Y-91637492D01*
X157308333Y-91587569D01*
X159388816Y-89507086D01*
X159405097Y-89494044D01*
X159407014Y-89492002D01*
X159407018Y-89492000D01*
X159453706Y-89442279D01*
X159456324Y-89439578D01*
X159476135Y-89419769D01*
X159478662Y-89416509D01*
X159486252Y-89407621D01*
X159516586Y-89375321D01*
X159526422Y-89357426D01*
X159537101Y-89341170D01*
X159549614Y-89325041D01*
X159567211Y-89284373D01*
X159572349Y-89273887D01*
X159584430Y-89251911D01*
X159593695Y-89235060D01*
X159598773Y-89215277D01*
X159605070Y-89196885D01*
X159613181Y-89178145D01*
X159620112Y-89134376D01*
X159622478Y-89122953D01*
X159633500Y-89080030D01*
X159633500Y-89059614D01*
X159635027Y-89040214D01*
X159638220Y-89020057D01*
X159634050Y-88975942D01*
X159633500Y-88964273D01*
X159633500Y-86384775D01*
X159653185Y-86317736D01*
X159698483Y-86275720D01*
X159714079Y-86267280D01*
X159801830Y-86219792D01*
X159992900Y-86071076D01*
X160156886Y-85892940D01*
X160171268Y-85870925D01*
X160224412Y-85825571D01*
X160293643Y-85816146D01*
X160356979Y-85845647D01*
X160378885Y-85870927D01*
X160389846Y-85887705D01*
X160552873Y-86064798D01*
X160742835Y-86212651D01*
X160954539Y-86327219D01*
X161182208Y-86405379D01*
X161290000Y-86423366D01*
X161290000Y-85436683D01*
X161318819Y-85454209D01*
X161464404Y-85495000D01*
X161577622Y-85495000D01*
X161689783Y-85479584D01*
X161790000Y-85436053D01*
X161790000Y-86423365D01*
X161897791Y-86405379D01*
X162125460Y-86327219D01*
X162337164Y-86212651D01*
X162527126Y-86064798D01*
X162690151Y-85887707D01*
X162821815Y-85686180D01*
X162918506Y-85465744D01*
X162977599Y-85232393D01*
X162980697Y-85195000D01*
X162034852Y-85195000D01*
X162083559Y-85057953D01*
X162093877Y-84907114D01*
X162063116Y-84759085D01*
X162029910Y-84695000D01*
X162980697Y-84695000D01*
X162977599Y-84657606D01*
X162918506Y-84424255D01*
X162821815Y-84203819D01*
X162690151Y-84002292D01*
X162527126Y-83825201D01*
X162337164Y-83677348D01*
X162125460Y-83562780D01*
X161897792Y-83484619D01*
X161790000Y-83466633D01*
X161790000Y-84453316D01*
X161761181Y-84435791D01*
X161615596Y-84395000D01*
X161502378Y-84395000D01*
X161390217Y-84410416D01*
X161290000Y-84453946D01*
X161290000Y-83466633D01*
X161289999Y-83466633D01*
X161182207Y-83484619D01*
X160954539Y-83562780D01*
X160742835Y-83677348D01*
X160552873Y-83825201D01*
X160389846Y-84002294D01*
X160378884Y-84019074D01*
X160325737Y-84064430D01*
X160256506Y-84073853D01*
X160193170Y-84044350D01*
X160171267Y-84019072D01*
X160164565Y-84008814D01*
X160156886Y-83997060D01*
X159992900Y-83818924D01*
X159801830Y-83670208D01*
X159588888Y-83554970D01*
X159588887Y-83554969D01*
X159588886Y-83554969D01*
X159359885Y-83476351D01*
X159121062Y-83436500D01*
X158878938Y-83436500D01*
X158640114Y-83476351D01*
X158411113Y-83554969D01*
X158198167Y-83670209D01*
X158063754Y-83774826D01*
X157998760Y-83800468D01*
X157930220Y-83786901D01*
X157879896Y-83738432D01*
X157871413Y-83720310D01*
X157863389Y-83698796D01*
X157863388Y-83698794D01*
X157775761Y-83581738D01*
X157658703Y-83494110D01*
X157521705Y-83443011D01*
X157464424Y-83436853D01*
X157464418Y-83436852D01*
X157461138Y-83436500D01*
X157457828Y-83436500D01*
X157217500Y-83436500D01*
X157150461Y-83416815D01*
X157104706Y-83364011D01*
X157093500Y-83312500D01*
X157093500Y-81853766D01*
X157113185Y-81786727D01*
X157129819Y-81766085D01*
X158747495Y-80148409D01*
X160388818Y-78507085D01*
X160405097Y-78494044D01*
X160407014Y-78492002D01*
X160407018Y-78492000D01*
X160453691Y-78442296D01*
X160456308Y-78439595D01*
X160476135Y-78419770D01*
X160478660Y-78416513D01*
X160486251Y-78407624D01*
X160516586Y-78375321D01*
X160526419Y-78357432D01*
X160537100Y-78341172D01*
X160549614Y-78325041D01*
X160567207Y-78284381D01*
X160572343Y-78273895D01*
X160593695Y-78235060D01*
X160598773Y-78215277D01*
X160605070Y-78196885D01*
X160613181Y-78178145D01*
X160620112Y-78134376D01*
X160622478Y-78122953D01*
X160633500Y-78080030D01*
X160633500Y-78059614D01*
X160635027Y-78040214D01*
X160638220Y-78020057D01*
X160634050Y-77975942D01*
X160633500Y-77964273D01*
X160633500Y-68393766D01*
X160653185Y-68326727D01*
X160669819Y-68306085D01*
X161127553Y-67848351D01*
X161587570Y-67388333D01*
X161648891Y-67354850D01*
X161707341Y-67356240D01*
X161771913Y-67373543D01*
X162000000Y-67393498D01*
X162228087Y-67373543D01*
X162449243Y-67314284D01*
X162656749Y-67217523D01*
X162844300Y-67086198D01*
X163006198Y-66924300D01*
X163137523Y-66736749D01*
X163234284Y-66529243D01*
X163293543Y-66308087D01*
X163313498Y-66080000D01*
X163293543Y-65851913D01*
X163234284Y-65630757D01*
X163137523Y-65423251D01*
X163006198Y-65235700D01*
X162844300Y-65073802D01*
X162656749Y-64942477D01*
X162656746Y-64942476D01*
X162656744Y-64942474D01*
X162449246Y-64845717D01*
X162449243Y-64845716D01*
X162338665Y-64816086D01*
X162228084Y-64786456D01*
X162000000Y-64766501D01*
X161771915Y-64786456D01*
X161550753Y-64845717D01*
X161343255Y-64942474D01*
X161155696Y-65073805D01*
X160993805Y-65235696D01*
X160862474Y-65423255D01*
X160765717Y-65630753D01*
X160706456Y-65851915D01*
X160686501Y-66080000D01*
X160706456Y-66308088D01*
X160723757Y-66372657D01*
X160722094Y-66442506D01*
X160691663Y-66492430D01*
X159845181Y-67338913D01*
X159783858Y-67372398D01*
X159714167Y-67367414D01*
X159658233Y-67325542D01*
X159633816Y-67260078D01*
X159633500Y-67251232D01*
X159633500Y-63623633D01*
X159635789Y-63602888D01*
X159635701Y-63600095D01*
X159635702Y-63600092D01*
X159633561Y-63531968D01*
X159633500Y-63528073D01*
X159633500Y-63504043D01*
X159633500Y-63504042D01*
X159633500Y-63500144D01*
X159632983Y-63496058D01*
X159632065Y-63484399D01*
X159632048Y-63483859D01*
X159630674Y-63440111D01*
X159624977Y-63420501D01*
X159621033Y-63401460D01*
X159618474Y-63381203D01*
X159602161Y-63340002D01*
X159598386Y-63328975D01*
X159586019Y-63286407D01*
X159575622Y-63268828D01*
X159567064Y-63251357D01*
X159559552Y-63232383D01*
X159533505Y-63196532D01*
X159527098Y-63186778D01*
X159504543Y-63148639D01*
X159504542Y-63148638D01*
X159490101Y-63134197D01*
X159477472Y-63119410D01*
X159465472Y-63102893D01*
X159431324Y-63074643D01*
X159422685Y-63066781D01*
X157349062Y-60993157D01*
X157315577Y-60931834D01*
X157316537Y-60875038D01*
X157344564Y-60764368D01*
X157363156Y-60540000D01*
X157344564Y-60315632D01*
X157289296Y-60097384D01*
X157198860Y-59891209D01*
X157075722Y-59702732D01*
X156923240Y-59537094D01*
X156745576Y-59398811D01*
X156709067Y-59379053D01*
X156659478Y-59329836D01*
X156644370Y-59261619D01*
X156668540Y-59196063D01*
X156709067Y-59160946D01*
X156745576Y-59141189D01*
X156923240Y-59002906D01*
X157075722Y-58837268D01*
X157198860Y-58648791D01*
X157289296Y-58442616D01*
X157344564Y-58224368D01*
X157363156Y-58000000D01*
X157344564Y-57775632D01*
X157289296Y-57557384D01*
X157198860Y-57351209D01*
X157075722Y-57162732D01*
X156923240Y-56997094D01*
X156784956Y-56889462D01*
X156745575Y-56858810D01*
X156702302Y-56835392D01*
X156652712Y-56786172D01*
X156637605Y-56717955D01*
X156661776Y-56652400D01*
X156690198Y-56624763D01*
X156871078Y-56498109D01*
X157038106Y-56331081D01*
X157173600Y-56137576D01*
X157273430Y-55923492D01*
X157330636Y-55710000D01*
X156433686Y-55710000D01*
X156459493Y-55669844D01*
X156500000Y-55531889D01*
X156500000Y-55388111D01*
X156459493Y-55250156D01*
X156433686Y-55210000D01*
X157330636Y-55210000D01*
X157330635Y-55209999D01*
X157273430Y-54996507D01*
X157173599Y-54782421D01*
X157038109Y-54588921D01*
X156871081Y-54421893D01*
X156677576Y-54286399D01*
X156463492Y-54186569D01*
X156250000Y-54129364D01*
X156250000Y-55024498D01*
X156142315Y-54975320D01*
X156035763Y-54960000D01*
X155964237Y-54960000D01*
X155857685Y-54975320D01*
X155750000Y-55024498D01*
X155750000Y-54129364D01*
X155749999Y-54129364D01*
X155536507Y-54186569D01*
X155322421Y-54286400D01*
X155128921Y-54421890D01*
X154961890Y-54588921D01*
X154826400Y-54782421D01*
X154726569Y-54996507D01*
X154669364Y-55209999D01*
X154669364Y-55210000D01*
X155566314Y-55210000D01*
X155540507Y-55250156D01*
X155500000Y-55388111D01*
X155500000Y-55531889D01*
X155540507Y-55669844D01*
X155566314Y-55710000D01*
X154669364Y-55710000D01*
X154726569Y-55923492D01*
X154826399Y-56137576D01*
X154961893Y-56331081D01*
X155128918Y-56498106D01*
X155309802Y-56624763D01*
X155353426Y-56679340D01*
X155360619Y-56748839D01*
X155329097Y-56811193D01*
X155297698Y-56835392D01*
X155254422Y-56858812D01*
X155076760Y-56997094D01*
X154924279Y-57162730D01*
X154801138Y-57351211D01*
X154710705Y-57557381D01*
X154655435Y-57775636D01*
X154636843Y-57999999D01*
X154655435Y-58224363D01*
X154655435Y-58224366D01*
X154655436Y-58224368D01*
X154710704Y-58442616D01*
X154724460Y-58473978D01*
X154801138Y-58648788D01*
X154801140Y-58648791D01*
X154924278Y-58837268D01*
X155076760Y-59002906D01*
X155254424Y-59141189D01*
X155254426Y-59141190D01*
X155290931Y-59160946D01*
X155340521Y-59210165D01*
X155355629Y-59278382D01*
X155331458Y-59343937D01*
X155290931Y-59379054D01*
X155254426Y-59398809D01*
X155076760Y-59537094D01*
X154924279Y-59702730D01*
X154801138Y-59891211D01*
X154710705Y-60097381D01*
X154710704Y-60097384D01*
X154679084Y-60222249D01*
X154655435Y-60315636D01*
X154637437Y-60532834D01*
X154612284Y-60598019D01*
X154555882Y-60639257D01*
X154486138Y-60643455D01*
X154426180Y-60610275D01*
X154009819Y-60193914D01*
X153976334Y-60132591D01*
X153973500Y-60106233D01*
X153973500Y-50475729D01*
X153993185Y-50408690D01*
X154038483Y-50366674D01*
X154085576Y-50341189D01*
X154263240Y-50202906D01*
X154415722Y-50037268D01*
X154506190Y-49898795D01*
X154559337Y-49853438D01*
X154628569Y-49844014D01*
X154691905Y-49873516D01*
X154713809Y-49898795D01*
X154804278Y-50037268D01*
X154956760Y-50202906D01*
X155134424Y-50341189D01*
X155332426Y-50448342D01*
X155545365Y-50521444D01*
X155767431Y-50558500D01*
X155992569Y-50558500D01*
X156214635Y-50521444D01*
X156427574Y-50448342D01*
X156625576Y-50341189D01*
X156803240Y-50202906D01*
X156955722Y-50037268D01*
X157046191Y-49898793D01*
X157099336Y-49853438D01*
X157168567Y-49844014D01*
X157231903Y-49873515D01*
X157253807Y-49898794D01*
X157344275Y-50037265D01*
X157344277Y-50037267D01*
X157344278Y-50037268D01*
X157496760Y-50202906D01*
X157674424Y-50341189D01*
X157721517Y-50366674D01*
X157771108Y-50415894D01*
X157786500Y-50475729D01*
X157786500Y-52256367D01*
X157784210Y-52277108D01*
X157786439Y-52348016D01*
X157786500Y-52351912D01*
X157786500Y-52379856D01*
X157786987Y-52383716D01*
X157786988Y-52383722D01*
X157787019Y-52383965D01*
X157787934Y-52395596D01*
X157789326Y-52439888D01*
X157795022Y-52459492D01*
X157798967Y-52478544D01*
X157801525Y-52498798D01*
X157817838Y-52540001D01*
X157821621Y-52551049D01*
X157833982Y-52593593D01*
X157844374Y-52611166D01*
X157852931Y-52628633D01*
X157860448Y-52647618D01*
X157886491Y-52683463D01*
X157892905Y-52693227D01*
X157915458Y-52731362D01*
X157929890Y-52745794D01*
X157942526Y-52760589D01*
X157954526Y-52777105D01*
X157954527Y-52777106D01*
X157954528Y-52777107D01*
X157977973Y-52796502D01*
X157988667Y-52805349D01*
X157997308Y-52813212D01*
X160691664Y-55507568D01*
X160725149Y-55568891D01*
X160723758Y-55627342D01*
X160706456Y-55691914D01*
X160686501Y-55920000D01*
X160706456Y-56148084D01*
X160706457Y-56148087D01*
X160764367Y-56364210D01*
X160765717Y-56369246D01*
X160862474Y-56576744D01*
X160862476Y-56576746D01*
X160862477Y-56576749D01*
X160993802Y-56764300D01*
X161155700Y-56926198D01*
X161343251Y-57057523D01*
X161550757Y-57154284D01*
X161771913Y-57213543D01*
X162000000Y-57233498D01*
X162228087Y-57213543D01*
X162449243Y-57154284D01*
X162656749Y-57057523D01*
X162844300Y-56926198D01*
X163006198Y-56764300D01*
X163137523Y-56576749D01*
X163234284Y-56369243D01*
X163293543Y-56148087D01*
X163313498Y-55920000D01*
X163293543Y-55691913D01*
X163234284Y-55470757D01*
X163147377Y-55284383D01*
X163137525Y-55263255D01*
X163137524Y-55263254D01*
X163137523Y-55263251D01*
X163006198Y-55075700D01*
X162844300Y-54913802D01*
X162656749Y-54782477D01*
X162656746Y-54782476D01*
X162656744Y-54782474D01*
X162449246Y-54685717D01*
X162449243Y-54685716D01*
X162325862Y-54652656D01*
X162228084Y-54626456D01*
X162000000Y-54606501D01*
X161771914Y-54626456D01*
X161707342Y-54643758D01*
X161637492Y-54642095D01*
X161587568Y-54611664D01*
X160342404Y-53366500D01*
X159089819Y-52113914D01*
X159056334Y-52052591D01*
X159053500Y-52026233D01*
X159053500Y-50475729D01*
X159073185Y-50408690D01*
X159118483Y-50366674D01*
X159165576Y-50341189D01*
X159343240Y-50202906D01*
X159495722Y-50037268D01*
X159586190Y-49898795D01*
X159639337Y-49853438D01*
X159708569Y-49844014D01*
X159771905Y-49873516D01*
X159793809Y-49898795D01*
X159884278Y-50037268D01*
X160036760Y-50202906D01*
X160214424Y-50341189D01*
X160412426Y-50448342D01*
X160625365Y-50521444D01*
X160847431Y-50558500D01*
X161072569Y-50558500D01*
X161294635Y-50521444D01*
X161507574Y-50448342D01*
X161705576Y-50341189D01*
X161883240Y-50202906D01*
X162035722Y-50037268D01*
X162126190Y-49898795D01*
X162179337Y-49853438D01*
X162248569Y-49844014D01*
X162311905Y-49873516D01*
X162333809Y-49898795D01*
X162424278Y-50037268D01*
X162576760Y-50202906D01*
X162754424Y-50341189D01*
X162952426Y-50448342D01*
X163165365Y-50521444D01*
X163387431Y-50558500D01*
X163612569Y-50558500D01*
X163834635Y-50521444D01*
X164047574Y-50448342D01*
X164245576Y-50341189D01*
X164423240Y-50202906D01*
X164575722Y-50037268D01*
X164698860Y-49848791D01*
X164789296Y-49642616D01*
X164844564Y-49424368D01*
X164863156Y-49200000D01*
X164844564Y-48975632D01*
X164789296Y-48757384D01*
X164698860Y-48551209D01*
X164575722Y-48362732D01*
X164423240Y-48197094D01*
X164245576Y-48058811D01*
X164047574Y-47951658D01*
X164047573Y-47951657D01*
X164047572Y-47951657D01*
X163834636Y-47878556D01*
X163612569Y-47841500D01*
X163387431Y-47841500D01*
X163165363Y-47878556D01*
X162952427Y-47951657D01*
X162754424Y-48058811D01*
X162576760Y-48197094D01*
X162424279Y-48362730D01*
X162333809Y-48501205D01*
X162280662Y-48546561D01*
X162211431Y-48555985D01*
X162148095Y-48526483D01*
X162126191Y-48501205D01*
X162035723Y-48362734D01*
X162035722Y-48362732D01*
X161883240Y-48197094D01*
X161705576Y-48058811D01*
X161507574Y-47951658D01*
X161507573Y-47951657D01*
X161507572Y-47951657D01*
X161294636Y-47878556D01*
X161072569Y-47841500D01*
X160847431Y-47841500D01*
X160625363Y-47878556D01*
X160412427Y-47951657D01*
X160214424Y-48058811D01*
X160036760Y-48197094D01*
X159884279Y-48362730D01*
X159793809Y-48501205D01*
X159740662Y-48546561D01*
X159671431Y-48555985D01*
X159608095Y-48526483D01*
X159586191Y-48501205D01*
X159495723Y-48362734D01*
X159495722Y-48362732D01*
X159343240Y-48197094D01*
X159165576Y-48058811D01*
X158967574Y-47951658D01*
X158967573Y-47951657D01*
X158967572Y-47951657D01*
X158754636Y-47878556D01*
X158532569Y-47841500D01*
X158307431Y-47841500D01*
X158085363Y-47878556D01*
X157872427Y-47951657D01*
X157674424Y-48058811D01*
X157496760Y-48197094D01*
X157344279Y-48362730D01*
X157253809Y-48501205D01*
X157200662Y-48546561D01*
X157131431Y-48555985D01*
X157068095Y-48526483D01*
X157046191Y-48501205D01*
X156955723Y-48362734D01*
X156955722Y-48362732D01*
X156803240Y-48197094D01*
X156625576Y-48058811D01*
X156427574Y-47951658D01*
X156427573Y-47951657D01*
X156427572Y-47951657D01*
X156214636Y-47878556D01*
X155992569Y-47841500D01*
X155767431Y-47841500D01*
X155545363Y-47878556D01*
X155332427Y-47951657D01*
X155134424Y-48058811D01*
X154956760Y-48197094D01*
X154804279Y-48362730D01*
X154713809Y-48501205D01*
X154660662Y-48546561D01*
X154591431Y-48555985D01*
X154528095Y-48526483D01*
X154506191Y-48501205D01*
X154415723Y-48362734D01*
X154415722Y-48362732D01*
X154263240Y-48197094D01*
X154085576Y-48058811D01*
X153887574Y-47951658D01*
X153887573Y-47951657D01*
X153887572Y-47951657D01*
X153674636Y-47878556D01*
X153452569Y-47841500D01*
X153227431Y-47841500D01*
X153005363Y-47878556D01*
X152792427Y-47951657D01*
X152594424Y-48058811D01*
X152416760Y-48197094D01*
X152264279Y-48362730D01*
X152173809Y-48501205D01*
X152120662Y-48546561D01*
X152051431Y-48555985D01*
X151988095Y-48526483D01*
X151966191Y-48501205D01*
X151875723Y-48362734D01*
X151875722Y-48362732D01*
X151723240Y-48197094D01*
X151545576Y-48058811D01*
X151347574Y-47951658D01*
X151347573Y-47951657D01*
X151347572Y-47951657D01*
X151134636Y-47878556D01*
X150912569Y-47841500D01*
X150687431Y-47841500D01*
X150465363Y-47878556D01*
X150252427Y-47951657D01*
X150054424Y-48058811D01*
X149876760Y-48197094D01*
X149724279Y-48362730D01*
X149633809Y-48501205D01*
X149580662Y-48546561D01*
X149511431Y-48555985D01*
X149448095Y-48526483D01*
X149426191Y-48501205D01*
X149335723Y-48362734D01*
X149335722Y-48362732D01*
X149183240Y-48197094D01*
X149005576Y-48058811D01*
X148807574Y-47951658D01*
X148807573Y-47951657D01*
X148807572Y-47951657D01*
X148594636Y-47878556D01*
X148372569Y-47841500D01*
X148147431Y-47841500D01*
X147925363Y-47878556D01*
X147712427Y-47951657D01*
X147514424Y-48058811D01*
X147336759Y-48197094D01*
X147273548Y-48265759D01*
X147213660Y-48301749D01*
X147143822Y-48299648D01*
X147086207Y-48260123D01*
X147066138Y-48225110D01*
X147041427Y-48158861D01*
X147020889Y-48103796D01*
X146962951Y-48026400D01*
X146933261Y-47986738D01*
X146816203Y-47899110D01*
X146679205Y-47848011D01*
X146621924Y-47841853D01*
X146621918Y-47841852D01*
X146618638Y-47841500D01*
X144821362Y-47841500D01*
X144818082Y-47841852D01*
X144818075Y-47841853D01*
X144760794Y-47848011D01*
X144623796Y-47899110D01*
X144506738Y-47986738D01*
X144419110Y-48103796D01*
X144368011Y-48240794D01*
X144361853Y-48298075D01*
X144361500Y-48301362D01*
X144361500Y-50098638D01*
X144361852Y-50101918D01*
X144361853Y-50101924D01*
X144368011Y-50159205D01*
X144419110Y-50296203D01*
X144506738Y-50413261D01*
X144623796Y-50500889D01*
X144760794Y-50551988D01*
X144760797Y-50551988D01*
X144760799Y-50551989D01*
X144821362Y-50558500D01*
X144824672Y-50558500D01*
X146615328Y-50558500D01*
X146618638Y-50558500D01*
X146679201Y-50551989D01*
X146679203Y-50551988D01*
X146679205Y-50551988D01*
X146765631Y-50519752D01*
X146816204Y-50500889D01*
X146933261Y-50413261D01*
X147020889Y-50296204D01*
X147066137Y-50174889D01*
X147108009Y-50118956D01*
X147173474Y-50094540D01*
X147241747Y-50109392D01*
X147273548Y-50134241D01*
X147310969Y-50174890D01*
X147336760Y-50202906D01*
X147514424Y-50341189D01*
X147561517Y-50366674D01*
X147611108Y-50415894D01*
X147626500Y-50475729D01*
X147626500Y-65416367D01*
X147624210Y-65437108D01*
X147626439Y-65508016D01*
X147626500Y-65511912D01*
X147626500Y-65539856D01*
X147626987Y-65543716D01*
X147626988Y-65543722D01*
X147627019Y-65543965D01*
X147627934Y-65555596D01*
X147629326Y-65599888D01*
X147635022Y-65619492D01*
X147638967Y-65638544D01*
X147641525Y-65658798D01*
X147657838Y-65700001D01*
X147661621Y-65711049D01*
X147673982Y-65753593D01*
X147684374Y-65771166D01*
X147692931Y-65788633D01*
X147700448Y-65807618D01*
X147726491Y-65843463D01*
X147732905Y-65853227D01*
X147755458Y-65891362D01*
X147769890Y-65905794D01*
X147782526Y-65920589D01*
X147794526Y-65937105D01*
X147828667Y-65965349D01*
X147837308Y-65973212D01*
X154605181Y-72741085D01*
X154638666Y-72802408D01*
X154641500Y-72828765D01*
X154641500Y-74138638D01*
X154641852Y-74141918D01*
X154641853Y-74141924D01*
X154648011Y-74199205D01*
X154699110Y-74336203D01*
X154786738Y-74453261D01*
X154903796Y-74540889D01*
X155040794Y-74591988D01*
X155040797Y-74591988D01*
X155040799Y-74591989D01*
X155101362Y-74598500D01*
X155104672Y-74598500D01*
X156895328Y-74598500D01*
X156898638Y-74598500D01*
X156959201Y-74591989D01*
X156959203Y-74591988D01*
X156959205Y-74591988D01*
X157037124Y-74562924D01*
X157096204Y-74540889D01*
X157213261Y-74453261D01*
X157300889Y-74336204D01*
X157327075Y-74265997D01*
X157351988Y-74199205D01*
X157351988Y-74199203D01*
X157351989Y-74199201D01*
X157358500Y-74138638D01*
X157358500Y-72341362D01*
X157351989Y-72280799D01*
X157351988Y-72280797D01*
X157351988Y-72280794D01*
X157300889Y-72143796D01*
X157213261Y-72026738D01*
X157096203Y-71939110D01*
X156978405Y-71895173D01*
X156922471Y-71853302D01*
X156898055Y-71787837D01*
X156912907Y-71719564D01*
X156930507Y-71695011D01*
X157075722Y-71537268D01*
X157198860Y-71348791D01*
X157289296Y-71142616D01*
X157344564Y-70924368D01*
X157363156Y-70700000D01*
X157344564Y-70475632D01*
X157289296Y-70257384D01*
X157198860Y-70051209D01*
X157075722Y-69862732D01*
X156923240Y-69697094D01*
X156745576Y-69558811D01*
X156709067Y-69539053D01*
X156659478Y-69489836D01*
X156644370Y-69421619D01*
X156668540Y-69356063D01*
X156709067Y-69320946D01*
X156745576Y-69301189D01*
X156923240Y-69162906D01*
X157075722Y-68997268D01*
X157198860Y-68808791D01*
X157289296Y-68602616D01*
X157344564Y-68384368D01*
X157363156Y-68160000D01*
X157344564Y-67935632D01*
X157289296Y-67717384D01*
X157198860Y-67511209D01*
X157075722Y-67322732D01*
X156923240Y-67157094D01*
X156745576Y-67018811D01*
X156709067Y-66999053D01*
X156659478Y-66949836D01*
X156644370Y-66881619D01*
X156668540Y-66816063D01*
X156709067Y-66780946D01*
X156745576Y-66761189D01*
X156923240Y-66622906D01*
X157075722Y-66457268D01*
X157198860Y-66268791D01*
X157289296Y-66062616D01*
X157344564Y-65844368D01*
X157363156Y-65620000D01*
X157363029Y-65618473D01*
X157354037Y-65509957D01*
X157344564Y-65395632D01*
X157289296Y-65177384D01*
X157198860Y-64971209D01*
X157075722Y-64782732D01*
X156923240Y-64617094D01*
X156745576Y-64478811D01*
X156709067Y-64459053D01*
X156659478Y-64409836D01*
X156644370Y-64341619D01*
X156668540Y-64276063D01*
X156709067Y-64240946D01*
X156745576Y-64221189D01*
X156923240Y-64082906D01*
X157075722Y-63917268D01*
X157198860Y-63728791D01*
X157289296Y-63522616D01*
X157344564Y-63304368D01*
X157362562Y-63087159D01*
X157387715Y-63021979D01*
X157444117Y-62980741D01*
X157513860Y-62976543D01*
X157573819Y-63009723D01*
X158330181Y-63766084D01*
X158363666Y-63827407D01*
X158366500Y-63853765D01*
X158366500Y-74686232D01*
X158346815Y-74753271D01*
X158330181Y-74773913D01*
X154937942Y-78166151D01*
X154876619Y-78199636D01*
X154864146Y-78201690D01*
X154818955Y-78206782D01*
X154646984Y-78266957D01*
X154492717Y-78363890D01*
X154363890Y-78492717D01*
X154266957Y-78646984D01*
X154206782Y-78818955D01*
X154186383Y-79000000D01*
X154206782Y-79181044D01*
X154206782Y-79181046D01*
X154206783Y-79181047D01*
X154266957Y-79353015D01*
X154363889Y-79507281D01*
X154492719Y-79636111D01*
X154646985Y-79733043D01*
X154818953Y-79793217D01*
X155000000Y-79813616D01*
X155181047Y-79793217D01*
X155353015Y-79733043D01*
X155507281Y-79636111D01*
X155636111Y-79507281D01*
X155733043Y-79353015D01*
X155793217Y-79181047D01*
X155798309Y-79135852D01*
X155825375Y-79071438D01*
X155833838Y-79062064D01*
X159154821Y-75741082D01*
X159216142Y-75707599D01*
X159285834Y-75712583D01*
X159341767Y-75754455D01*
X159366184Y-75819919D01*
X159366500Y-75828765D01*
X159366500Y-77686232D01*
X159346815Y-77753271D01*
X159330181Y-77773913D01*
X156071180Y-81032913D01*
X156054896Y-81045961D01*
X156006339Y-81097668D01*
X156003634Y-81100460D01*
X155983865Y-81120230D01*
X155981487Y-81123293D01*
X155981470Y-81123314D01*
X155981311Y-81123521D01*
X155973753Y-81132368D01*
X155943414Y-81164677D01*
X155933582Y-81182563D01*
X155922901Y-81198823D01*
X155910385Y-81214959D01*
X155892786Y-81255628D01*
X155887648Y-81266117D01*
X155866303Y-81304943D01*
X155861226Y-81324718D01*
X155854925Y-81343123D01*
X155846818Y-81361856D01*
X155839888Y-81405610D01*
X155837520Y-81417046D01*
X155826500Y-81459969D01*
X155826500Y-81480384D01*
X155824973Y-81499783D01*
X155821780Y-81519941D01*
X155825950Y-81564057D01*
X155826500Y-81575726D01*
X155826500Y-83312500D01*
X155806815Y-83379539D01*
X155754011Y-83425294D01*
X155702500Y-83436500D01*
X155458862Y-83436500D01*
X155455582Y-83436852D01*
X155455575Y-83436853D01*
X155398294Y-83443011D01*
X155261296Y-83494110D01*
X155144238Y-83581738D01*
X155056610Y-83698796D01*
X155005511Y-83835794D01*
X155002504Y-83863766D01*
X154999000Y-83896362D01*
X154999000Y-85993638D01*
X154999352Y-85996918D01*
X154999353Y-85996924D01*
X155005511Y-86054205D01*
X155056610Y-86191203D01*
X155144238Y-86308261D01*
X155261296Y-86395889D01*
X155398294Y-86446988D01*
X155398297Y-86446988D01*
X155398299Y-86446989D01*
X155458862Y-86453500D01*
X155462172Y-86453500D01*
X157457828Y-86453500D01*
X157461138Y-86453500D01*
X157521701Y-86446989D01*
X157521703Y-86446988D01*
X157521705Y-86446988D01*
X157620102Y-86410287D01*
X157658704Y-86395889D01*
X157775761Y-86308261D01*
X157863389Y-86191204D01*
X157871413Y-86169690D01*
X157913281Y-86113760D01*
X157978745Y-86089342D01*
X158047018Y-86104193D01*
X158063754Y-86115171D01*
X158198170Y-86219792D01*
X158285915Y-86267277D01*
X158301517Y-86275720D01*
X158351108Y-86324939D01*
X158366500Y-86384775D01*
X158366500Y-88686233D01*
X158346815Y-88753272D01*
X158330181Y-88773914D01*
X156845181Y-90258914D01*
X156783858Y-90292399D01*
X156714166Y-90287415D01*
X156658233Y-90245543D01*
X156633816Y-90180079D01*
X156633500Y-90171233D01*
X156633500Y-88071606D01*
X156635696Y-88048371D01*
X156637275Y-88040092D01*
X156633745Y-87983983D01*
X156633500Y-87976197D01*
X156633500Y-87964037D01*
X156633500Y-87960144D01*
X156631485Y-87944199D01*
X156630758Y-87936513D01*
X156627225Y-87880350D01*
X156624621Y-87872338D01*
X156619529Y-87849555D01*
X156618474Y-87841204D01*
X156618474Y-87841203D01*
X156597770Y-87788912D01*
X156595140Y-87781604D01*
X156577765Y-87728128D01*
X156577764Y-87728127D01*
X156577764Y-87728125D01*
X156573245Y-87721004D01*
X156562655Y-87700221D01*
X156559552Y-87692383D01*
X156526516Y-87646913D01*
X156522139Y-87640472D01*
X156492000Y-87592982D01*
X156485854Y-87587210D01*
X156470419Y-87569702D01*
X156465471Y-87562892D01*
X156450797Y-87550753D01*
X156422138Y-87527044D01*
X156416325Y-87521919D01*
X156375321Y-87483414D01*
X156367933Y-87479352D01*
X156348634Y-87466236D01*
X156342144Y-87460867D01*
X156291263Y-87436924D01*
X156284338Y-87433395D01*
X156269322Y-87425140D01*
X156235058Y-87406303D01*
X156226896Y-87404208D01*
X156204947Y-87396306D01*
X156197319Y-87392717D01*
X156142103Y-87382183D01*
X156134506Y-87380485D01*
X156080032Y-87366500D01*
X156080030Y-87366500D01*
X156071607Y-87366500D01*
X156048373Y-87364304D01*
X156040093Y-87362724D01*
X155986418Y-87366101D01*
X155983984Y-87366255D01*
X155976199Y-87366500D01*
X146313766Y-87366500D01*
X146246727Y-87346815D01*
X146226085Y-87330181D01*
X144772489Y-85876584D01*
X144739004Y-85815261D01*
X144736170Y-85788903D01*
X144736170Y-81934398D01*
X144755855Y-81867359D01*
X144789047Y-81832823D01*
X144914704Y-81744837D01*
X144914704Y-81744836D01*
X144914708Y-81744834D01*
X144917316Y-81742225D01*
X144922392Y-81739453D01*
X144923596Y-81738611D01*
X144923689Y-81738745D01*
X144978636Y-81708739D01*
X145048328Y-81713720D01*
X145092681Y-81742222D01*
X145095292Y-81744834D01*
X145275676Y-81871141D01*
X145475254Y-81964205D01*
X145687959Y-82021200D01*
X145907330Y-82040392D01*
X146126701Y-82021200D01*
X146159160Y-82012502D01*
X146229007Y-82014163D01*
X146278936Y-82044595D01*
X147623155Y-83388814D01*
X147636204Y-83405101D01*
X147638244Y-83407016D01*
X147638245Y-83407018D01*
X147687946Y-83453690D01*
X147690710Y-83456369D01*
X147710476Y-83476135D01*
X147713555Y-83478523D01*
X147713731Y-83478660D01*
X147722621Y-83486252D01*
X147754924Y-83516586D01*
X147772815Y-83526421D01*
X147789068Y-83537097D01*
X147792887Y-83540059D01*
X147805206Y-83549615D01*
X147845863Y-83567208D01*
X147856347Y-83572343D01*
X147895185Y-83593695D01*
X147914959Y-83598772D01*
X147933364Y-83605073D01*
X147952100Y-83613181D01*
X147995875Y-83620113D01*
X148007286Y-83622477D01*
X148050215Y-83633500D01*
X148070629Y-83633500D01*
X148090028Y-83635027D01*
X148110188Y-83638220D01*
X148154301Y-83634050D01*
X148165971Y-83633500D01*
X149916367Y-83633500D01*
X149937108Y-83635789D01*
X149939905Y-83635701D01*
X149939909Y-83635702D01*
X150008017Y-83633560D01*
X150011913Y-83633500D01*
X150035958Y-83633500D01*
X150039856Y-83633500D01*
X150043724Y-83633011D01*
X150043947Y-83632983D01*
X150055608Y-83632064D01*
X150099889Y-83630673D01*
X150119498Y-83624975D01*
X150138531Y-83621033D01*
X150158797Y-83618474D01*
X150200006Y-83602157D01*
X150211037Y-83598380D01*
X150253593Y-83586018D01*
X150271160Y-83575628D01*
X150288632Y-83567068D01*
X150307617Y-83559552D01*
X150343475Y-83533498D01*
X150353223Y-83527096D01*
X150391362Y-83504542D01*
X150405800Y-83490103D01*
X150420588Y-83477472D01*
X150437107Y-83465472D01*
X150465359Y-83431319D01*
X150473203Y-83422699D01*
X151388816Y-82507086D01*
X151405097Y-82494044D01*
X151407014Y-82492002D01*
X151407018Y-82492000D01*
X151453706Y-82442279D01*
X151456324Y-82439578D01*
X151476135Y-82419769D01*
X151478662Y-82416509D01*
X151486254Y-82407619D01*
X151516586Y-82375321D01*
X151526424Y-82357424D01*
X151537100Y-82341171D01*
X151549614Y-82325040D01*
X151567216Y-82284360D01*
X151572334Y-82273913D01*
X151593695Y-82235060D01*
X151598772Y-82215282D01*
X151605072Y-82196882D01*
X151613181Y-82178145D01*
X151620112Y-82134376D01*
X151622478Y-82122953D01*
X151633500Y-82080030D01*
X151633500Y-82059614D01*
X151635027Y-82040214D01*
X151638220Y-82020057D01*
X151634050Y-81975942D01*
X151633500Y-81964273D01*
X151633500Y-75583632D01*
X151635789Y-75562892D01*
X151635701Y-75560094D01*
X151635702Y-75560091D01*
X151633561Y-75491982D01*
X151633500Y-75488086D01*
X151633500Y-75464042D01*
X151633500Y-75460144D01*
X151632981Y-75456041D01*
X151632064Y-75444389D01*
X151631203Y-75416994D01*
X151630673Y-75400111D01*
X151624978Y-75380512D01*
X151621033Y-75361464D01*
X151618474Y-75341203D01*
X151602164Y-75300009D01*
X151598380Y-75288956D01*
X151587706Y-75252217D01*
X151586018Y-75246407D01*
X151575622Y-75228829D01*
X151567069Y-75211371D01*
X151559552Y-75192383D01*
X151533503Y-75156530D01*
X151527099Y-75146780D01*
X151504542Y-75108638D01*
X151490107Y-75094203D01*
X151477469Y-75079406D01*
X151465472Y-75062893D01*
X151431324Y-75034643D01*
X151422685Y-75026781D01*
X143859408Y-67463503D01*
X143825923Y-67402180D01*
X143830907Y-67332488D01*
X143872779Y-67276555D01*
X143938243Y-67252138D01*
X143956803Y-67252203D01*
X144100000Y-67263474D01*
X144352403Y-67243609D01*
X144598591Y-67184505D01*
X144832502Y-67087616D01*
X145048376Y-66955328D01*
X145240898Y-66790898D01*
X145405328Y-66598376D01*
X145537616Y-66382502D01*
X145634505Y-66148591D01*
X145693609Y-65902403D01*
X145708500Y-65713199D01*
X145708500Y-64286801D01*
X145693609Y-64097597D01*
X145634505Y-63851409D01*
X145537616Y-63617498D01*
X145405328Y-63401624D01*
X145240898Y-63209102D01*
X145048376Y-63044672D01*
X144832502Y-62912384D01*
X144695500Y-62855636D01*
X144598590Y-62815494D01*
X144352404Y-62756391D01*
X144207187Y-62744962D01*
X144100000Y-62736526D01*
X144099999Y-62736526D01*
X143847595Y-62756391D01*
X143601409Y-62815494D01*
X143367496Y-62912385D01*
X143151625Y-63044671D01*
X142951682Y-63215439D01*
X142949826Y-63213266D01*
X142904235Y-63243021D01*
X142855210Y-63247581D01*
X142845031Y-63246487D01*
X142801924Y-63241853D01*
X142801918Y-63241852D01*
X142798638Y-63241500D01*
X141201362Y-63241500D01*
X141198082Y-63241852D01*
X141198075Y-63241853D01*
X141140794Y-63248011D01*
X141003796Y-63299110D01*
X140886739Y-63386738D01*
X140861265Y-63420767D01*
X140805331Y-63462637D01*
X140735640Y-63467621D01*
X140693689Y-63449943D01*
X140598773Y-63387290D01*
X140390469Y-63298256D01*
X140169615Y-63247849D01*
X139943310Y-63237684D01*
X139731420Y-63266387D01*
X139662345Y-63255879D01*
X139627094Y-63231190D01*
X138836046Y-62440142D01*
X138007088Y-61611183D01*
X137994044Y-61594902D01*
X137992000Y-61592983D01*
X137992000Y-61592982D01*
X137942315Y-61546325D01*
X137939550Y-61543645D01*
X137922527Y-61526622D01*
X137919770Y-61523865D01*
X137916486Y-61521317D01*
X137907623Y-61513746D01*
X137875321Y-61483414D01*
X137857433Y-61473580D01*
X137841169Y-61462896D01*
X137825040Y-61450385D01*
X137784377Y-61432789D01*
X137773883Y-61427648D01*
X137735062Y-61406305D01*
X137719691Y-61402359D01*
X137715284Y-61401227D01*
X137696879Y-61394926D01*
X137678145Y-61386819D01*
X137678143Y-61386818D01*
X137678142Y-61386818D01*
X137634383Y-61379887D01*
X137622943Y-61377518D01*
X137580031Y-61366500D01*
X137580030Y-61366500D01*
X137559616Y-61366500D01*
X137540217Y-61364973D01*
X137520058Y-61361780D01*
X137520057Y-61361780D01*
X137493420Y-61364298D01*
X137475943Y-61365950D01*
X137464274Y-61366500D01*
X132083634Y-61366500D01*
X132062891Y-61364210D01*
X131991970Y-61366439D01*
X131988075Y-61366500D01*
X131960144Y-61366500D01*
X131956289Y-61366986D01*
X131956255Y-61366989D01*
X131956024Y-61367019D01*
X131944404Y-61367933D01*
X131900110Y-61369325D01*
X131880496Y-61375023D01*
X131861460Y-61378965D01*
X131841206Y-61381525D01*
X131800016Y-61397832D01*
X131788970Y-61401613D01*
X131746407Y-61413979D01*
X131728828Y-61424376D01*
X131711364Y-61432932D01*
X131702620Y-61436394D01*
X131692382Y-61440448D01*
X131656539Y-61466489D01*
X131646782Y-61472898D01*
X131608638Y-61495457D01*
X131594200Y-61509895D01*
X131579411Y-61522525D01*
X131562894Y-61534525D01*
X131534644Y-61568673D01*
X131526783Y-61577311D01*
X128773914Y-64330181D01*
X128712591Y-64363666D01*
X128686233Y-64366500D01*
X127828766Y-64366500D01*
X127761727Y-64346815D01*
X127715972Y-64294011D01*
X127706028Y-64224853D01*
X127735053Y-64161297D01*
X127741085Y-64154819D01*
X132004695Y-59891209D01*
X136388818Y-55507085D01*
X136405097Y-55494044D01*
X136407014Y-55492002D01*
X136407018Y-55492000D01*
X136453691Y-55442296D01*
X136456308Y-55439595D01*
X136476135Y-55419770D01*
X136478660Y-55416513D01*
X136486251Y-55407624D01*
X136516586Y-55375321D01*
X136526419Y-55357432D01*
X136537100Y-55341172D01*
X136549614Y-55325041D01*
X136567207Y-55284381D01*
X136572343Y-55273895D01*
X136593695Y-55235060D01*
X136598773Y-55215277D01*
X136605070Y-55196885D01*
X136613181Y-55178145D01*
X136620112Y-55134376D01*
X136622478Y-55122953D01*
X136633500Y-55080030D01*
X136633500Y-55059614D01*
X136635027Y-55040214D01*
X136638220Y-55020057D01*
X136634050Y-54975942D01*
X136633500Y-54964273D01*
X136633500Y-54961339D01*
X136653185Y-54894300D01*
X136705989Y-54848545D01*
X136775147Y-54838601D01*
X136838703Y-54867626D01*
X136845182Y-54873658D01*
X136971184Y-54999661D01*
X137157519Y-55130134D01*
X137363673Y-55226266D01*
X137559999Y-55278871D01*
X137560000Y-55278871D01*
X137560000Y-54315686D01*
X137571955Y-54327641D01*
X137684852Y-54385165D01*
X137778519Y-54400000D01*
X137841481Y-54400000D01*
X137935148Y-54385165D01*
X138048045Y-54327641D01*
X138060000Y-54315685D01*
X138060000Y-55278871D01*
X138256326Y-55226266D01*
X138462480Y-55130134D01*
X138648819Y-54999658D01*
X138809658Y-54838819D01*
X138940134Y-54652480D01*
X139036266Y-54446326D01*
X139088872Y-54250000D01*
X138125686Y-54250000D01*
X138137641Y-54238045D01*
X138195165Y-54125148D01*
X138214986Y-54000000D01*
X138195165Y-53874852D01*
X138137641Y-53761955D01*
X138125686Y-53750000D01*
X139088872Y-53750000D01*
X139088871Y-53749999D01*
X139036266Y-53553673D01*
X138940134Y-53347519D01*
X138809658Y-53161180D01*
X138648819Y-53000341D01*
X138462480Y-52869865D01*
X138256326Y-52773733D01*
X138060000Y-52721126D01*
X138060000Y-53684314D01*
X138048045Y-53672359D01*
X137935148Y-53614835D01*
X137841481Y-53600000D01*
X137778519Y-53600000D01*
X137684852Y-53614835D01*
X137571955Y-53672359D01*
X137560000Y-53684314D01*
X137560000Y-52721127D01*
X137559999Y-52721126D01*
X137363673Y-52773733D01*
X137157519Y-52869865D01*
X136971180Y-53000341D01*
X136845181Y-53126341D01*
X136783858Y-53159826D01*
X136714166Y-53154842D01*
X136658233Y-53112970D01*
X136633816Y-53047506D01*
X136633500Y-53038660D01*
X136633500Y-52313765D01*
X136653185Y-52246726D01*
X136669814Y-52226089D01*
X136964818Y-51931085D01*
X136981096Y-51918045D01*
X136983013Y-51916002D01*
X136983018Y-51916000D01*
X137029691Y-51866295D01*
X137032309Y-51863594D01*
X137052135Y-51843770D01*
X137054660Y-51840513D01*
X137062251Y-51831624D01*
X137092586Y-51799321D01*
X137102419Y-51781432D01*
X137113100Y-51765172D01*
X137125614Y-51749041D01*
X137143207Y-51708381D01*
X137148343Y-51697895D01*
X137169695Y-51659060D01*
X137174773Y-51639277D01*
X137181070Y-51620885D01*
X137189181Y-51602145D01*
X137196112Y-51558376D01*
X137198478Y-51546953D01*
X137209500Y-51504030D01*
X137209500Y-51483614D01*
X137211027Y-51464214D01*
X137214220Y-51444057D01*
X137210050Y-51399942D01*
X137209500Y-51388273D01*
X137209500Y-50475729D01*
X137229185Y-50408690D01*
X137274483Y-50366674D01*
X137321576Y-50341189D01*
X137499240Y-50202906D01*
X137651722Y-50037268D01*
X137742190Y-49898795D01*
X137795337Y-49853438D01*
X137864569Y-49844014D01*
X137927905Y-49873516D01*
X137949809Y-49898795D01*
X138040278Y-50037268D01*
X138192760Y-50202906D01*
X138370424Y-50341189D01*
X138568426Y-50448342D01*
X138781365Y-50521444D01*
X139003431Y-50558500D01*
X139228569Y-50558500D01*
X139450635Y-50521444D01*
X139663574Y-50448342D01*
X139861576Y-50341189D01*
X140039240Y-50202906D01*
X140191722Y-50037268D01*
X140282190Y-49898795D01*
X140335337Y-49853438D01*
X140404569Y-49844014D01*
X140467905Y-49873516D01*
X140489809Y-49898795D01*
X140580278Y-50037268D01*
X140732760Y-50202906D01*
X140910424Y-50341189D01*
X141108426Y-50448342D01*
X141321365Y-50521444D01*
X141543431Y-50558500D01*
X141768569Y-50558500D01*
X141990635Y-50521444D01*
X142203574Y-50448342D01*
X142401576Y-50341189D01*
X142579240Y-50202906D01*
X142731722Y-50037268D01*
X142854860Y-49848791D01*
X142945296Y-49642616D01*
X143000564Y-49424368D01*
X143019156Y-49200000D01*
X143000564Y-48975632D01*
X142945296Y-48757384D01*
X142854860Y-48551209D01*
X142731722Y-48362732D01*
X142579240Y-48197094D01*
X142401576Y-48058811D01*
X142203574Y-47951658D01*
X142203573Y-47951657D01*
X142203572Y-47951657D01*
X141990636Y-47878556D01*
X141768569Y-47841500D01*
X141543431Y-47841500D01*
X141321363Y-47878556D01*
X141108427Y-47951657D01*
X140910424Y-48058811D01*
X140732760Y-48197094D01*
X140580279Y-48362730D01*
X140489809Y-48501205D01*
X140436662Y-48546561D01*
X140367431Y-48555985D01*
X140304095Y-48526483D01*
X140282191Y-48501205D01*
X140191723Y-48362734D01*
X140191722Y-48362732D01*
X140039240Y-48197094D01*
X139861576Y-48058811D01*
X139663574Y-47951658D01*
X139663573Y-47951657D01*
X139663572Y-47951657D01*
X139450636Y-47878556D01*
X139228569Y-47841500D01*
X139003431Y-47841500D01*
X138781363Y-47878556D01*
X138568427Y-47951657D01*
X138370424Y-48058811D01*
X138192760Y-48197094D01*
X138040279Y-48362730D01*
X137949809Y-48501205D01*
X137896662Y-48546561D01*
X137827431Y-48555985D01*
X137764095Y-48526483D01*
X137742191Y-48501205D01*
X137651723Y-48362734D01*
X137651722Y-48362732D01*
X137499240Y-48197094D01*
X137321576Y-48058811D01*
X137123574Y-47951658D01*
X137123573Y-47951657D01*
X137123572Y-47951657D01*
X136910636Y-47878556D01*
X136688569Y-47841500D01*
X136463431Y-47841500D01*
X136241363Y-47878556D01*
X136028427Y-47951657D01*
X135830424Y-48058811D01*
X135652760Y-48197094D01*
X135500279Y-48362730D01*
X135409809Y-48501205D01*
X135356662Y-48546561D01*
X135287431Y-48555985D01*
X135224095Y-48526483D01*
X135202191Y-48501205D01*
X135111723Y-48362734D01*
X135111722Y-48362732D01*
X134959240Y-48197094D01*
X134781576Y-48058811D01*
X134583574Y-47951658D01*
X134583573Y-47951657D01*
X134583572Y-47951657D01*
X134370636Y-47878556D01*
X134148569Y-47841500D01*
X133923431Y-47841500D01*
X133701363Y-47878556D01*
X133488427Y-47951657D01*
X133290424Y-48058811D01*
X133112760Y-48197094D01*
X132960279Y-48362730D01*
X132869809Y-48501205D01*
X132816662Y-48546561D01*
X132747431Y-48555985D01*
X132684095Y-48526483D01*
X132662191Y-48501205D01*
X132571723Y-48362734D01*
X132571722Y-48362732D01*
X132419240Y-48197094D01*
X132241576Y-48058811D01*
X132043574Y-47951658D01*
X132043573Y-47951657D01*
X132043572Y-47951657D01*
X131830636Y-47878556D01*
X131608569Y-47841500D01*
X131383431Y-47841500D01*
X131161363Y-47878556D01*
X130948427Y-47951657D01*
X130750424Y-48058811D01*
X130572760Y-48197094D01*
X130420277Y-48362732D01*
X130329809Y-48501205D01*
X130276663Y-48546562D01*
X130207431Y-48555986D01*
X130144095Y-48526484D01*
X130122191Y-48501205D01*
X130031722Y-48362732D01*
X130000594Y-48328918D01*
X129879240Y-48197094D01*
X129701576Y-48058811D01*
X129503574Y-47951658D01*
X129503573Y-47951657D01*
X129503572Y-47951657D01*
X129290636Y-47878556D01*
X129068569Y-47841500D01*
X128843431Y-47841500D01*
X128621363Y-47878556D01*
X128408427Y-47951657D01*
X128210424Y-48058811D01*
X128032760Y-48197094D01*
X127880275Y-48362734D01*
X127786250Y-48506650D01*
X127733104Y-48552006D01*
X127663873Y-48561430D01*
X127600537Y-48531928D01*
X127580867Y-48509951D01*
X127454109Y-48328921D01*
X127287081Y-48161893D01*
X127093576Y-48026399D01*
X126879492Y-47926569D01*
X126666000Y-47869364D01*
X126666000Y-48764498D01*
X126558315Y-48715320D01*
X126451763Y-48700000D01*
X126380237Y-48700000D01*
X126273685Y-48715320D01*
X126165999Y-48764498D01*
X126166000Y-47869364D01*
X126165999Y-47869364D01*
X125952507Y-47926569D01*
X125738421Y-48026400D01*
X125544921Y-48161890D01*
X125377893Y-48328918D01*
X125251132Y-48509952D01*
X125196555Y-48553576D01*
X125127056Y-48560769D01*
X125064702Y-48529247D01*
X125045748Y-48506649D01*
X124951723Y-48362732D01*
X124857263Y-48260123D01*
X124799240Y-48197094D01*
X124621576Y-48058811D01*
X124423574Y-47951658D01*
X124423573Y-47951657D01*
X124423572Y-47951657D01*
X124210636Y-47878556D01*
X123988569Y-47841500D01*
X123763431Y-47841500D01*
X123541363Y-47878556D01*
X123328427Y-47951657D01*
X123130424Y-48058811D01*
X122952760Y-48197094D01*
X122800275Y-48362734D01*
X122709807Y-48501205D01*
X122656661Y-48546562D01*
X122587429Y-48555985D01*
X122524094Y-48526483D01*
X122502190Y-48501204D01*
X122411722Y-48362732D01*
X122380594Y-48328918D01*
X122259240Y-48197094D01*
X122081576Y-48058811D01*
X121883574Y-47951658D01*
X121883573Y-47951657D01*
X121883572Y-47951657D01*
X121670636Y-47878556D01*
X121448569Y-47841500D01*
X121223431Y-47841500D01*
X121001363Y-47878556D01*
X120788427Y-47951657D01*
X120590424Y-48058811D01*
X120412759Y-48197094D01*
X120349548Y-48265759D01*
X120289660Y-48301749D01*
X120219822Y-48299648D01*
X120162207Y-48260123D01*
X120142138Y-48225110D01*
X120117427Y-48158861D01*
X120096889Y-48103796D01*
X120038951Y-48026400D01*
X120009261Y-47986738D01*
X119892203Y-47899110D01*
X119755205Y-47848011D01*
X119697924Y-47841853D01*
X119697918Y-47841852D01*
X119694638Y-47841500D01*
X117897362Y-47841500D01*
X117894082Y-47841852D01*
X117894075Y-47841853D01*
X117836794Y-47848011D01*
X117699796Y-47899110D01*
X117582738Y-47986738D01*
X117495110Y-48103796D01*
X117444011Y-48240794D01*
X117437853Y-48298075D01*
X117437500Y-48301362D01*
X117437500Y-50098638D01*
X117437852Y-50101918D01*
X117437853Y-50101924D01*
X117444011Y-50159205D01*
X117495110Y-50296203D01*
X117582738Y-50413261D01*
X117699796Y-50500889D01*
X117836794Y-50551988D01*
X117836797Y-50551988D01*
X117836799Y-50551989D01*
X117897362Y-50558500D01*
X117900672Y-50558500D01*
X119691328Y-50558500D01*
X119694638Y-50558500D01*
X119755201Y-50551989D01*
X119755203Y-50551988D01*
X119755205Y-50551988D01*
X119841631Y-50519752D01*
X119892204Y-50500889D01*
X120009261Y-50413261D01*
X120096889Y-50296204D01*
X120142137Y-50174889D01*
X120184009Y-50118956D01*
X120249474Y-50094540D01*
X120317747Y-50109392D01*
X120349548Y-50134241D01*
X120386969Y-50174890D01*
X120412760Y-50202906D01*
X120590424Y-50341189D01*
X120788426Y-50448342D01*
X121001365Y-50521444D01*
X121223431Y-50558500D01*
X121448569Y-50558500D01*
X121670635Y-50521444D01*
X121883574Y-50448342D01*
X122081576Y-50341189D01*
X122259240Y-50202906D01*
X122411722Y-50037268D01*
X122502190Y-49898795D01*
X122555337Y-49853438D01*
X122624569Y-49844014D01*
X122687905Y-49873516D01*
X122709809Y-49898795D01*
X122800278Y-50037268D01*
X122952760Y-50202906D01*
X123130424Y-50341189D01*
X123328426Y-50448342D01*
X123541365Y-50521444D01*
X123763431Y-50558500D01*
X123988569Y-50558500D01*
X124210635Y-50521444D01*
X124423574Y-50448342D01*
X124621576Y-50341189D01*
X124799240Y-50202906D01*
X124951722Y-50037268D01*
X125045748Y-49893349D01*
X125098893Y-49847994D01*
X125168124Y-49838570D01*
X125231460Y-49868072D01*
X125251131Y-49890048D01*
X125377892Y-50071080D01*
X125544918Y-50238106D01*
X125738423Y-50373600D01*
X125952509Y-50473430D01*
X126166000Y-50530634D01*
X126165999Y-49635501D01*
X126273685Y-49684680D01*
X126380237Y-49700000D01*
X126451763Y-49700000D01*
X126558315Y-49684680D01*
X126666000Y-49635501D01*
X126666000Y-50530633D01*
X126879490Y-50473430D01*
X127093576Y-50373600D01*
X127287081Y-50238106D01*
X127454106Y-50071081D01*
X127580868Y-49890048D01*
X127635445Y-49846424D01*
X127704944Y-49839231D01*
X127767298Y-49870753D01*
X127786252Y-49893351D01*
X127880276Y-50037267D01*
X127946673Y-50109392D01*
X128032760Y-50202906D01*
X128210424Y-50341189D01*
X128408426Y-50448342D01*
X128621365Y-50521444D01*
X128843431Y-50558500D01*
X129068568Y-50558500D01*
X129068569Y-50558500D01*
X129290635Y-50521444D01*
X129290639Y-50521442D01*
X129300770Y-50519752D01*
X129301248Y-50522619D01*
X129354860Y-50520185D01*
X129413040Y-50552944D01*
X131330182Y-52470086D01*
X131363666Y-52531407D01*
X131366500Y-52557765D01*
X131366500Y-53026640D01*
X131346815Y-53093679D01*
X131294011Y-53139434D01*
X131224853Y-53149378D01*
X131161297Y-53120353D01*
X131154819Y-53114321D01*
X131034303Y-52993805D01*
X131034300Y-52993802D01*
X130846749Y-52862477D01*
X130846746Y-52862476D01*
X130846744Y-52862474D01*
X130639246Y-52765717D01*
X130639243Y-52765716D01*
X130472832Y-52721126D01*
X130418084Y-52706456D01*
X130190000Y-52686501D01*
X129961915Y-52706456D01*
X129740753Y-52765717D01*
X129533255Y-52862474D01*
X129533250Y-52862477D01*
X129533251Y-52862477D01*
X129376160Y-52972474D01*
X129345696Y-52993805D01*
X129183801Y-53155700D01*
X129073221Y-53313624D01*
X129018644Y-53357249D01*
X128971647Y-53366500D01*
X127141329Y-53366500D01*
X127074290Y-53346815D01*
X127039756Y-53313626D01*
X127006198Y-53265700D01*
X126844300Y-53103802D01*
X126656749Y-52972477D01*
X126656746Y-52972476D01*
X126656744Y-52972474D01*
X126449246Y-52875717D01*
X126449243Y-52875716D01*
X126282832Y-52831126D01*
X126228084Y-52816456D01*
X126000000Y-52796501D01*
X125771915Y-52816456D01*
X125550753Y-52875717D01*
X125343255Y-52972474D01*
X125155696Y-53103805D01*
X124993805Y-53265696D01*
X124993802Y-53265699D01*
X124993802Y-53265700D01*
X124862477Y-53453251D01*
X124862477Y-53453252D01*
X124862474Y-53453256D01*
X124837691Y-53506402D01*
X124791518Y-53558841D01*
X124724325Y-53577992D01*
X124657444Y-53557775D01*
X124612927Y-53506400D01*
X124590132Y-53457516D01*
X124459658Y-53271180D01*
X124298819Y-53110341D01*
X124112480Y-52979865D01*
X123906326Y-52883733D01*
X123710000Y-52831126D01*
X123710000Y-53794313D01*
X123698045Y-53782359D01*
X123585148Y-53724835D01*
X123491481Y-53710000D01*
X123428519Y-53710000D01*
X123334852Y-53724835D01*
X123221955Y-53782359D01*
X123209999Y-53794314D01*
X123209999Y-52831126D01*
X123013673Y-52883733D01*
X122807519Y-52979865D01*
X122621180Y-53110341D01*
X122460341Y-53271180D01*
X122329865Y-53457519D01*
X122302382Y-53516456D01*
X122256209Y-53568895D01*
X122189015Y-53588047D01*
X122122134Y-53567831D01*
X122077618Y-53516456D01*
X122050134Y-53457519D01*
X121919658Y-53271180D01*
X121758819Y-53110341D01*
X121572480Y-52979865D01*
X121366326Y-52883733D01*
X121170000Y-52831126D01*
X121169999Y-52831126D01*
X121169999Y-53794313D01*
X121158045Y-53782359D01*
X121045148Y-53724835D01*
X120951481Y-53710000D01*
X120888519Y-53710000D01*
X120794852Y-53724835D01*
X120681955Y-53782359D01*
X120670000Y-53794314D01*
X120670000Y-52831127D01*
X120669999Y-52831126D01*
X120473673Y-52883733D01*
X120267519Y-52979865D01*
X120081180Y-53110341D01*
X119920341Y-53271180D01*
X119789864Y-53457520D01*
X119767069Y-53506403D01*
X119720896Y-53558841D01*
X119653702Y-53577992D01*
X119586821Y-53557775D01*
X119542307Y-53506401D01*
X119517523Y-53453251D01*
X119386198Y-53265700D01*
X119224300Y-53103802D01*
X119036749Y-52972477D01*
X119036746Y-52972476D01*
X119036744Y-52972474D01*
X118829246Y-52875717D01*
X118829243Y-52875716D01*
X118662832Y-52831126D01*
X118608084Y-52816456D01*
X118380000Y-52796501D01*
X118151915Y-52816456D01*
X117930753Y-52875717D01*
X117723255Y-52972474D01*
X117535696Y-53103805D01*
X117373805Y-53265696D01*
X117242474Y-53453255D01*
X117145717Y-53660753D01*
X117086456Y-53881915D01*
X117066501Y-54109999D01*
X117086456Y-54338085D01*
X117103758Y-54402656D01*
X117102095Y-54472505D01*
X117071664Y-54522430D01*
X109611180Y-61982913D01*
X109594896Y-61995961D01*
X109546339Y-62047668D01*
X109543634Y-62050460D01*
X109523865Y-62070230D01*
X109521487Y-62073293D01*
X109521470Y-62073314D01*
X109521311Y-62073521D01*
X109513753Y-62082368D01*
X109483414Y-62114677D01*
X109473582Y-62132563D01*
X109462901Y-62148823D01*
X109450385Y-62164959D01*
X109432786Y-62205628D01*
X109427648Y-62216117D01*
X109406303Y-62254943D01*
X109401226Y-62274718D01*
X109394925Y-62293123D01*
X109386818Y-62311856D01*
X109379888Y-62355610D01*
X109377520Y-62367046D01*
X109366500Y-62409969D01*
X109366500Y-62430384D01*
X109364973Y-62449783D01*
X109361780Y-62469941D01*
X109365950Y-62514057D01*
X109366500Y-62525726D01*
X109366500Y-80916367D01*
X109364210Y-80937108D01*
X109366439Y-81008016D01*
X109366500Y-81011912D01*
X109366500Y-81039856D01*
X109366987Y-81043716D01*
X109366988Y-81043722D01*
X109367019Y-81043965D01*
X109367934Y-81055596D01*
X109369326Y-81099888D01*
X109375022Y-81119492D01*
X109378967Y-81138544D01*
X109381525Y-81158798D01*
X109397838Y-81200001D01*
X109401621Y-81211049D01*
X109413982Y-81253593D01*
X109424374Y-81271166D01*
X109432931Y-81288633D01*
X109440448Y-81307618D01*
X109466491Y-81343463D01*
X109472905Y-81353227D01*
X109495458Y-81391362D01*
X109509890Y-81405794D01*
X109522526Y-81420589D01*
X109534526Y-81437105D01*
X109534527Y-81437106D01*
X109534528Y-81437107D01*
X109562165Y-81459970D01*
X109568667Y-81465349D01*
X109577308Y-81473212D01*
X112330181Y-84226085D01*
X112363666Y-84287408D01*
X112366500Y-84313766D01*
X112366500Y-91916367D01*
X112364210Y-91937108D01*
X112366439Y-92008016D01*
X112366500Y-92011912D01*
X112366500Y-92039856D01*
X112366987Y-92043716D01*
X112366988Y-92043722D01*
X112367019Y-92043965D01*
X112367934Y-92055596D01*
X112369326Y-92099888D01*
X112375022Y-92119492D01*
X112378967Y-92138544D01*
X112381525Y-92158798D01*
X112397838Y-92200001D01*
X112401621Y-92211049D01*
X112413982Y-92253593D01*
X112424374Y-92271166D01*
X112432931Y-92288633D01*
X112440448Y-92307618D01*
X112466491Y-92343463D01*
X112472905Y-92353227D01*
X112495458Y-92391362D01*
X112509890Y-92405794D01*
X112522526Y-92420589D01*
X112534526Y-92437105D01*
X112568667Y-92465349D01*
X112577308Y-92473212D01*
X117492912Y-97388817D01*
X117505956Y-97405098D01*
X117507999Y-97407016D01*
X117508000Y-97407018D01*
X117557684Y-97453674D01*
X117560448Y-97456353D01*
X117580230Y-97476135D01*
X117583306Y-97478521D01*
X117583503Y-97478674D01*
X117592372Y-97486249D01*
X117624679Y-97516586D01*
X117642564Y-97526418D01*
X117658825Y-97537099D01*
X117674959Y-97549614D01*
X117715625Y-97567210D01*
X117726112Y-97572348D01*
X117764940Y-97593695D01*
X117783177Y-97598377D01*
X117784708Y-97598770D01*
X117803119Y-97605073D01*
X117821855Y-97613181D01*
X117865626Y-97620113D01*
X117877041Y-97622477D01*
X117919970Y-97633500D01*
X117940384Y-97633500D01*
X117959783Y-97635027D01*
X117979943Y-97638220D01*
X118024056Y-97634050D01*
X118035726Y-97633500D01*
X122919970Y-97633500D01*
X123916367Y-97633500D01*
X123937108Y-97635789D01*
X123939905Y-97635701D01*
X123939909Y-97635702D01*
X124008017Y-97633560D01*
X124011913Y-97633500D01*
X124035958Y-97633500D01*
X124039856Y-97633500D01*
X124043724Y-97633011D01*
X124043947Y-97632983D01*
X124055608Y-97632064D01*
X124099889Y-97630673D01*
X124119498Y-97624975D01*
X124138531Y-97621033D01*
X124158797Y-97618474D01*
X124200006Y-97602157D01*
X124211037Y-97598380D01*
X124253593Y-97586018D01*
X124271160Y-97575628D01*
X124288632Y-97567068D01*
X124307617Y-97559552D01*
X124343475Y-97533498D01*
X124353223Y-97527096D01*
X124391362Y-97504542D01*
X124405800Y-97490103D01*
X124420588Y-97477472D01*
X124437107Y-97465472D01*
X124465359Y-97431319D01*
X124473203Y-97422699D01*
X128226084Y-93669819D01*
X128287408Y-93636334D01*
X128313766Y-93633500D01*
X129281647Y-93633500D01*
X129348686Y-93653185D01*
X129383221Y-93686376D01*
X129476055Y-93818955D01*
X129493802Y-93844300D01*
X129655700Y-94006198D01*
X129813625Y-94116779D01*
X129857248Y-94171354D01*
X129866500Y-94218352D01*
X129866500Y-94416367D01*
X129864210Y-94437108D01*
X129864298Y-94439908D01*
X129864298Y-94439909D01*
X129865666Y-94483414D01*
X129866439Y-94508016D01*
X129866500Y-94511912D01*
X129866500Y-94539856D01*
X129866987Y-94543716D01*
X129866988Y-94543722D01*
X129867019Y-94543965D01*
X129867934Y-94555596D01*
X129869326Y-94599888D01*
X129875022Y-94619492D01*
X129878967Y-94638544D01*
X129881525Y-94658798D01*
X129897838Y-94700001D01*
X129901621Y-94711049D01*
X129913982Y-94753593D01*
X129924374Y-94771166D01*
X129932931Y-94788633D01*
X129940448Y-94807618D01*
X129966491Y-94843463D01*
X129972905Y-94853227D01*
X129995458Y-94891362D01*
X130009890Y-94905794D01*
X130022526Y-94920589D01*
X130034526Y-94937105D01*
X130068667Y-94965349D01*
X130077308Y-94973212D01*
X130492913Y-95388818D01*
X130505959Y-95405101D01*
X130507999Y-95407016D01*
X130508000Y-95407018D01*
X130557666Y-95453657D01*
X130560449Y-95456354D01*
X130580230Y-95476135D01*
X130583306Y-95478521D01*
X130583503Y-95478674D01*
X130592371Y-95486248D01*
X130624679Y-95516586D01*
X130642564Y-95526418D01*
X130658825Y-95537099D01*
X130674959Y-95549614D01*
X130715625Y-95567210D01*
X130726107Y-95572346D01*
X130764940Y-95593695D01*
X130784708Y-95598770D01*
X130803119Y-95605073D01*
X130821855Y-95613181D01*
X130865626Y-95620113D01*
X130877041Y-95622477D01*
X130919970Y-95633500D01*
X130940384Y-95633500D01*
X130959783Y-95635027D01*
X130979943Y-95638220D01*
X131024056Y-95634050D01*
X131035726Y-95633500D01*
X135326234Y-95633500D01*
X135393273Y-95653185D01*
X135413915Y-95669819D01*
X135633915Y-95889819D01*
X135667400Y-95951142D01*
X135662416Y-96020834D01*
X135620544Y-96076767D01*
X135555080Y-96101184D01*
X135546234Y-96101500D01*
X135447431Y-96101500D01*
X135225363Y-96138556D01*
X135012427Y-96211657D01*
X134814424Y-96318811D01*
X134636760Y-96457094D01*
X134484279Y-96622730D01*
X134393809Y-96761205D01*
X134340662Y-96806561D01*
X134271431Y-96815985D01*
X134208095Y-96786483D01*
X134186191Y-96761205D01*
X134095723Y-96622734D01*
X134095722Y-96622732D01*
X133943240Y-96457094D01*
X133765576Y-96318811D01*
X133567574Y-96211658D01*
X133567573Y-96211657D01*
X133567572Y-96211657D01*
X133354636Y-96138556D01*
X133132569Y-96101500D01*
X132907431Y-96101500D01*
X132685363Y-96138556D01*
X132472427Y-96211657D01*
X132274424Y-96318811D01*
X132096760Y-96457094D01*
X131944279Y-96622730D01*
X131853809Y-96761205D01*
X131800662Y-96806561D01*
X131731431Y-96815985D01*
X131668095Y-96786483D01*
X131646191Y-96761205D01*
X131555723Y-96622734D01*
X131555722Y-96622732D01*
X131403240Y-96457094D01*
X131225576Y-96318811D01*
X131027574Y-96211658D01*
X131027573Y-96211657D01*
X131027572Y-96211657D01*
X130814636Y-96138556D01*
X130592569Y-96101500D01*
X130367431Y-96101500D01*
X130145363Y-96138556D01*
X129932427Y-96211657D01*
X129734424Y-96318811D01*
X129556759Y-96457094D01*
X129493548Y-96525759D01*
X129433660Y-96561749D01*
X129363822Y-96559648D01*
X129306207Y-96520123D01*
X129286138Y-96485110D01*
X129258825Y-96411884D01*
X129240889Y-96363796D01*
X129197249Y-96305500D01*
X129153261Y-96246738D01*
X129036203Y-96159110D01*
X128899205Y-96108011D01*
X128841924Y-96101853D01*
X128841918Y-96101852D01*
X128838638Y-96101500D01*
X127041362Y-96101500D01*
X127038082Y-96101852D01*
X127038075Y-96101853D01*
X126980794Y-96108011D01*
X126843796Y-96159110D01*
X126726738Y-96246738D01*
X126639110Y-96363796D01*
X126588011Y-96500794D01*
X126581853Y-96558075D01*
X126581500Y-96561362D01*
X126581500Y-98358638D01*
X126581852Y-98361918D01*
X126581853Y-98361924D01*
X126588011Y-98419205D01*
X126639110Y-98556203D01*
X126726738Y-98673261D01*
X126843796Y-98760889D01*
X126980794Y-98811988D01*
X126980797Y-98811988D01*
X126980799Y-98811989D01*
X127041362Y-98818500D01*
X127044672Y-98818500D01*
X128835328Y-98818500D01*
X128838638Y-98818500D01*
X128899201Y-98811989D01*
X128899203Y-98811988D01*
X128899205Y-98811988D01*
X128985631Y-98779752D01*
X129036204Y-98760889D01*
X129153261Y-98673261D01*
X129240889Y-98556204D01*
X129286137Y-98434889D01*
X129328009Y-98378956D01*
X129393474Y-98354540D01*
X129461747Y-98369392D01*
X129493548Y-98394241D01*
X129530969Y-98434890D01*
X129556760Y-98462906D01*
X129734424Y-98601189D01*
X129932426Y-98708342D01*
X130145365Y-98781444D01*
X130367431Y-98818500D01*
X130592569Y-98818500D01*
X130814635Y-98781444D01*
X131027574Y-98708342D01*
X131225576Y-98601189D01*
X131403240Y-98462906D01*
X131555722Y-98297268D01*
X131646190Y-98158795D01*
X131699337Y-98113438D01*
X131768569Y-98104014D01*
X131831905Y-98133516D01*
X131853809Y-98158795D01*
X131880375Y-98199458D01*
X131944278Y-98297268D01*
X132096760Y-98462906D01*
X132274424Y-98601189D01*
X132472426Y-98708342D01*
X132685365Y-98781444D01*
X132907431Y-98818500D01*
X133132569Y-98818500D01*
X133354635Y-98781444D01*
X133567574Y-98708342D01*
X133765576Y-98601189D01*
X133943240Y-98462906D01*
X134095722Y-98297268D01*
X134186190Y-98158795D01*
X134239337Y-98113438D01*
X134308569Y-98104014D01*
X134371905Y-98133516D01*
X134393809Y-98158795D01*
X134420375Y-98199458D01*
X134484278Y-98297268D01*
X134636760Y-98462906D01*
X134814424Y-98601189D01*
X135012426Y-98708342D01*
X135225365Y-98781444D01*
X135447431Y-98818500D01*
X135672568Y-98818500D01*
X135672569Y-98818500D01*
X135894635Y-98781444D01*
X135894639Y-98781442D01*
X135904770Y-98779752D01*
X135905248Y-98782619D01*
X135958860Y-98780185D01*
X136017040Y-98812944D01*
X136375321Y-99171225D01*
X136405570Y-99220586D01*
X136422234Y-99271871D01*
X136422235Y-99271873D01*
X136422236Y-99271875D01*
X136426753Y-99278992D01*
X136437344Y-99299778D01*
X136440447Y-99307616D01*
X136473497Y-99353107D01*
X136477873Y-99359547D01*
X136507999Y-99407017D01*
X136514146Y-99412790D01*
X136529578Y-99430295D01*
X136534526Y-99437105D01*
X136534527Y-99437106D01*
X136534528Y-99437107D01*
X136568816Y-99465472D01*
X136577843Y-99472940D01*
X136583687Y-99478092D01*
X136624679Y-99516586D01*
X136632057Y-99520642D01*
X136651364Y-99533762D01*
X136657857Y-99539134D01*
X136687042Y-99552867D01*
X136708736Y-99563075D01*
X136715659Y-99566602D01*
X136723038Y-99570659D01*
X136764939Y-99593695D01*
X136773096Y-99595789D01*
X136795060Y-99603696D01*
X136802682Y-99607283D01*
X136857926Y-99617821D01*
X136865510Y-99619516D01*
X136919970Y-99633500D01*
X136928393Y-99633500D01*
X136951627Y-99635696D01*
X136959906Y-99637275D01*
X137016015Y-99633744D01*
X137023801Y-99633500D01*
X164916367Y-99633500D01*
X164937108Y-99635789D01*
X164939905Y-99635701D01*
X164939909Y-99635702D01*
X165008017Y-99633560D01*
X165011913Y-99633500D01*
X165035958Y-99633500D01*
X165039856Y-99633500D01*
X165043724Y-99633011D01*
X165043947Y-99632983D01*
X165055608Y-99632064D01*
X165099889Y-99630673D01*
X165119498Y-99624975D01*
X165138531Y-99621033D01*
X165158797Y-99618474D01*
X165200006Y-99602157D01*
X165211037Y-99598380D01*
X165253593Y-99586018D01*
X165271160Y-99575628D01*
X165288632Y-99567068D01*
X165307617Y-99559552D01*
X165343475Y-99533498D01*
X165353223Y-99527096D01*
X165391362Y-99504542D01*
X165405800Y-99490103D01*
X165420588Y-99477472D01*
X165437107Y-99465472D01*
X165465359Y-99431319D01*
X165473203Y-99422699D01*
X165752820Y-99143083D01*
X165814142Y-99109599D01*
X165883834Y-99114583D01*
X165939767Y-99156455D01*
X165964184Y-99221919D01*
X165964500Y-99230765D01*
X165964500Y-99231907D01*
X165963903Y-99244062D01*
X165952505Y-99359778D01*
X165947763Y-99383618D01*
X165934656Y-99426827D01*
X165917554Y-99483206D01*
X165915789Y-99489024D01*
X165906486Y-99511482D01*
X165854561Y-99608627D01*
X165841056Y-99628839D01*
X165771176Y-99713988D01*
X165753988Y-99731176D01*
X165668839Y-99801056D01*
X165648627Y-99814561D01*
X165551482Y-99866486D01*
X165529028Y-99875787D01*
X165487028Y-99888528D01*
X165423618Y-99907763D01*
X165399778Y-99912505D01*
X165291162Y-99923203D01*
X165284060Y-99923903D01*
X165271907Y-99924500D01*
X109124000Y-99924500D01*
X109056961Y-99904815D01*
X109011206Y-99852011D01*
X109000000Y-99800500D01*
X109000000Y-47124000D01*
X109019685Y-47056961D01*
X109072489Y-47011206D01*
X109124000Y-47000000D01*
X163681865Y-47000000D01*
X163748904Y-47019685D01*
G37*
%TD.AperFunction*%
%TA.AperFunction,Conductor*%
G36*
X142720507Y-97250156D02*
G01*
X142680000Y-97388111D01*
X142680000Y-97531889D01*
X142720507Y-97669844D01*
X142746314Y-97710000D01*
X141073686Y-97710000D01*
X141099493Y-97669844D01*
X141140000Y-97531889D01*
X141140000Y-97388111D01*
X141099493Y-97250156D01*
X141073686Y-97210000D01*
X142746314Y-97210000D01*
X142720507Y-97250156D01*
G37*
%TD.AperFunction*%
%TA.AperFunction,Conductor*%
G36*
X111495833Y-61992582D02*
G01*
X111551767Y-62034453D01*
X111576184Y-62099918D01*
X111576500Y-62108764D01*
X111576499Y-65411648D01*
X111556814Y-65478687D01*
X111523623Y-65513222D01*
X111491150Y-65535961D01*
X111365697Y-65623804D01*
X111203805Y-65785696D01*
X111072474Y-65973255D01*
X110975717Y-66180753D01*
X110916456Y-66401915D01*
X110896501Y-66630000D01*
X110916456Y-66858084D01*
X110916457Y-66858087D01*
X110954482Y-66999999D01*
X110975717Y-67079246D01*
X111072474Y-67286744D01*
X111072476Y-67286746D01*
X111072477Y-67286749D01*
X111203802Y-67474300D01*
X111365700Y-67636198D01*
X111523625Y-67746779D01*
X111567248Y-67801354D01*
X111576500Y-67848352D01*
X111576500Y-70932653D01*
X111556815Y-70999692D01*
X111523624Y-71034227D01*
X111395700Y-71123801D01*
X111233805Y-71285696D01*
X111102474Y-71473255D01*
X111005717Y-71680753D01*
X110946456Y-71901915D01*
X110926501Y-72130000D01*
X110946456Y-72358084D01*
X111005717Y-72579246D01*
X111102474Y-72786744D01*
X111102476Y-72786746D01*
X111102477Y-72786749D01*
X111233802Y-72974300D01*
X111395700Y-73136198D01*
X111553625Y-73246779D01*
X111597248Y-73301354D01*
X111606500Y-73348352D01*
X111606500Y-74156367D01*
X111604210Y-74177108D01*
X111606439Y-74248016D01*
X111606500Y-74251912D01*
X111606500Y-74279856D01*
X111606987Y-74283716D01*
X111606988Y-74283722D01*
X111607019Y-74283965D01*
X111607934Y-74295596D01*
X111609326Y-74339888D01*
X111615022Y-74359492D01*
X111618967Y-74378544D01*
X111621525Y-74398798D01*
X111637838Y-74440001D01*
X111641621Y-74451049D01*
X111653982Y-74493593D01*
X111664374Y-74511166D01*
X111672931Y-74528633D01*
X111680448Y-74547618D01*
X111706491Y-74583463D01*
X111712905Y-74593227D01*
X111735458Y-74631362D01*
X111749890Y-74645794D01*
X111762526Y-74660589D01*
X111774526Y-74677105D01*
X111774527Y-74677106D01*
X111774528Y-74677107D01*
X111808667Y-74705349D01*
X111817308Y-74713212D01*
X112638994Y-75534898D01*
X112672479Y-75596221D01*
X112667495Y-75665913D01*
X112625623Y-75721846D01*
X112560159Y-75746263D01*
X112519219Y-75742354D01*
X112440000Y-75721126D01*
X112440000Y-76684314D01*
X112428045Y-76672359D01*
X112315148Y-76614835D01*
X112221481Y-76600000D01*
X112158519Y-76600000D01*
X112064852Y-76614835D01*
X111951955Y-76672359D01*
X111939999Y-76684314D01*
X111940000Y-75721127D01*
X111939999Y-75721126D01*
X111743673Y-75773733D01*
X111537519Y-75869865D01*
X111351180Y-76000341D01*
X111190341Y-76161180D01*
X111059865Y-76347519D01*
X110963733Y-76553673D01*
X110911128Y-76749999D01*
X110911128Y-76750000D01*
X111874314Y-76750000D01*
X111862359Y-76761955D01*
X111804835Y-76874852D01*
X111785014Y-77000000D01*
X111804835Y-77125148D01*
X111862359Y-77238045D01*
X111874314Y-77250000D01*
X110911128Y-77250000D01*
X110963733Y-77446326D01*
X111059865Y-77652480D01*
X111190341Y-77838819D01*
X111351180Y-77999658D01*
X111537519Y-78130134D01*
X111743673Y-78226266D01*
X111939999Y-78278871D01*
X111940000Y-78278871D01*
X111940000Y-77315686D01*
X111951955Y-77327641D01*
X112064852Y-77385165D01*
X112158519Y-77400000D01*
X112221481Y-77400000D01*
X112315148Y-77385165D01*
X112428045Y-77327641D01*
X112440000Y-77315686D01*
X112440000Y-78278871D01*
X112636326Y-78226266D01*
X112842480Y-78130134D01*
X113028815Y-77999661D01*
X113154817Y-77873659D01*
X113216140Y-77840174D01*
X113285832Y-77845158D01*
X113341766Y-77887029D01*
X113366183Y-77952493D01*
X113366499Y-77961340D01*
X113366500Y-82206367D01*
X113364210Y-82227108D01*
X113366439Y-82298016D01*
X113366500Y-82301912D01*
X113366500Y-82329856D01*
X113366987Y-82333716D01*
X113366988Y-82333722D01*
X113367019Y-82333965D01*
X113367934Y-82345596D01*
X113369326Y-82389888D01*
X113375022Y-82409492D01*
X113378967Y-82428544D01*
X113381525Y-82448798D01*
X113397838Y-82490001D01*
X113401621Y-82501049D01*
X113413982Y-82543593D01*
X113424374Y-82561166D01*
X113432931Y-82578633D01*
X113440448Y-82597618D01*
X113466491Y-82633463D01*
X113472905Y-82643227D01*
X113495458Y-82681362D01*
X113509890Y-82695794D01*
X113522526Y-82710589D01*
X113534526Y-82727105D01*
X113534527Y-82727106D01*
X113534528Y-82727107D01*
X113547206Y-82737595D01*
X113568667Y-82755349D01*
X113577308Y-82763212D01*
X114071482Y-83257386D01*
X114104967Y-83318709D01*
X114099983Y-83388401D01*
X114099743Y-83389038D01*
X114016343Y-83608943D01*
X113967625Y-83847581D01*
X113957818Y-84090935D01*
X113987177Y-84332722D01*
X114054766Y-84566066D01*
X114054939Y-84566662D01*
X114159350Y-84786704D01*
X114297707Y-84987148D01*
X114378669Y-85071438D01*
X114466424Y-85162801D01*
X114516599Y-85200505D01*
X114558368Y-85256515D01*
X114563225Y-85326216D01*
X114529628Y-85387477D01*
X114524348Y-85392438D01*
X114453381Y-85455310D01*
X114378523Y-85521627D01*
X114224490Y-85710285D01*
X114102711Y-85921212D01*
X114016343Y-86148943D01*
X113967625Y-86387581D01*
X113957818Y-86630935D01*
X113987177Y-86872722D01*
X114049124Y-87086586D01*
X114054939Y-87106662D01*
X114159350Y-87326704D01*
X114297707Y-87527148D01*
X114385329Y-87618372D01*
X114456414Y-87692380D01*
X114466425Y-87702802D01*
X114500124Y-87728125D01*
X114522135Y-87744665D01*
X114563903Y-87800676D01*
X114568760Y-87870377D01*
X114535162Y-87931638D01*
X114531625Y-87935025D01*
X114362634Y-88090592D01*
X114209946Y-88286766D01*
X114091631Y-88505393D01*
X114010916Y-88740508D01*
X113990976Y-88859999D01*
X113990978Y-88860000D01*
X115424314Y-88860000D01*
X115412359Y-88871955D01*
X115354835Y-88984852D01*
X115335014Y-89110000D01*
X115354835Y-89235148D01*
X115412359Y-89348045D01*
X115424314Y-89360000D01*
X113990977Y-89360000D01*
X114010916Y-89479491D01*
X114091631Y-89714606D01*
X114209946Y-89933233D01*
X114362631Y-90129403D01*
X114545522Y-90297766D01*
X114753634Y-90433733D01*
X114981278Y-90533586D01*
X115222262Y-90594612D01*
X115405412Y-90609788D01*
X115410527Y-90610000D01*
X115490000Y-90610000D01*
X115490000Y-89425686D01*
X115501955Y-89437641D01*
X115614852Y-89495165D01*
X115708519Y-89510000D01*
X115771481Y-89510000D01*
X115865148Y-89495165D01*
X115978045Y-89437641D01*
X115989999Y-89425686D01*
X115990000Y-90610000D01*
X116069473Y-90610000D01*
X116074587Y-90609788D01*
X116257737Y-90594612D01*
X116498721Y-90533586D01*
X116726365Y-90433733D01*
X116934477Y-90297766D01*
X117117368Y-90129403D01*
X117270053Y-89933233D01*
X117388368Y-89714606D01*
X117469083Y-89479491D01*
X117489023Y-89360000D01*
X116055686Y-89360000D01*
X116067641Y-89348045D01*
X116125165Y-89235148D01*
X116144986Y-89110000D01*
X116125165Y-88984852D01*
X116067641Y-88871955D01*
X116055686Y-88860000D01*
X117489022Y-88860000D01*
X117489023Y-88859999D01*
X117469083Y-88740508D01*
X117388368Y-88505393D01*
X117270053Y-88286766D01*
X117117368Y-88090596D01*
X116949189Y-87935776D01*
X116913198Y-87875888D01*
X116915299Y-87806050D01*
X116950943Y-87751732D01*
X117101474Y-87618375D01*
X117255510Y-87429714D01*
X117312976Y-87330181D01*
X117350320Y-87265500D01*
X117400887Y-87217284D01*
X117457707Y-87203500D01*
X119052500Y-87203500D01*
X119119539Y-87223185D01*
X119165294Y-87275989D01*
X119176500Y-87327500D01*
X119176500Y-92376232D01*
X119156815Y-92443271D01*
X119140181Y-92463913D01*
X118912430Y-92691663D01*
X118851107Y-92725148D01*
X118792657Y-92723757D01*
X118728088Y-92706456D01*
X118499999Y-92686501D01*
X118271915Y-92706456D01*
X118050753Y-92765717D01*
X117843255Y-92862474D01*
X117655696Y-92993805D01*
X117493805Y-93155696D01*
X117493802Y-93155699D01*
X117493802Y-93155700D01*
X117444156Y-93226602D01*
X117362474Y-93343255D01*
X117265717Y-93550753D01*
X117206456Y-93771915D01*
X117186501Y-94000000D01*
X117206456Y-94228084D01*
X117224729Y-94296278D01*
X117264934Y-94446326D01*
X117265717Y-94449246D01*
X117362474Y-94656744D01*
X117362476Y-94656746D01*
X117362477Y-94656749D01*
X117493802Y-94844300D01*
X117655700Y-95006198D01*
X117843251Y-95137523D01*
X118050757Y-95234284D01*
X118271913Y-95293543D01*
X118402479Y-95304966D01*
X118499999Y-95313498D01*
X118499999Y-95313497D01*
X118500000Y-95313498D01*
X118728087Y-95293543D01*
X118949243Y-95234284D01*
X119156749Y-95137523D01*
X119344300Y-95006198D01*
X119506198Y-94844300D01*
X119637523Y-94656749D01*
X119734284Y-94449243D01*
X119793543Y-94228087D01*
X119813498Y-94000000D01*
X122195033Y-94000000D01*
X122214858Y-94226602D01*
X122273733Y-94446326D01*
X122369866Y-94652484D01*
X122420972Y-94725471D01*
X122420973Y-94725472D01*
X123102046Y-94044399D01*
X123114835Y-94125148D01*
X123172359Y-94238045D01*
X123261955Y-94327641D01*
X123374852Y-94385165D01*
X123455599Y-94397953D01*
X122774526Y-95079025D01*
X122774526Y-95079026D01*
X122847515Y-95130133D01*
X123053673Y-95226266D01*
X123273397Y-95285141D01*
X123500000Y-95304966D01*
X123726602Y-95285141D01*
X123946326Y-95226266D01*
X124152480Y-95130134D01*
X124225472Y-95079025D01*
X123544401Y-94397953D01*
X123625148Y-94385165D01*
X123738045Y-94327641D01*
X123827641Y-94238045D01*
X123885165Y-94125148D01*
X123897953Y-94044400D01*
X124579025Y-94725472D01*
X124630134Y-94652480D01*
X124726266Y-94446326D01*
X124785141Y-94226602D01*
X124804966Y-94000000D01*
X124785141Y-93773397D01*
X124726266Y-93553673D01*
X124630133Y-93347515D01*
X124579025Y-93274526D01*
X123897953Y-93955598D01*
X123885165Y-93874852D01*
X123827641Y-93761955D01*
X123738045Y-93672359D01*
X123625148Y-93614835D01*
X123544400Y-93602046D01*
X124225472Y-92920974D01*
X124225471Y-92920972D01*
X124152484Y-92869866D01*
X123946326Y-92773733D01*
X123726602Y-92714858D01*
X123500000Y-92695033D01*
X123273397Y-92714858D01*
X123053672Y-92773733D01*
X122847516Y-92869865D01*
X122774527Y-92920973D01*
X122774526Y-92920973D01*
X123455600Y-93602046D01*
X123374852Y-93614835D01*
X123261955Y-93672359D01*
X123172359Y-93761955D01*
X123114835Y-93874852D01*
X123102046Y-93955598D01*
X122420973Y-93274527D01*
X122369865Y-93347516D01*
X122273733Y-93553672D01*
X122214858Y-93773397D01*
X122195033Y-94000000D01*
X119813498Y-94000000D01*
X119793543Y-93771913D01*
X119776241Y-93707342D01*
X119777904Y-93637494D01*
X119808333Y-93587570D01*
X120198818Y-93197085D01*
X120215097Y-93184044D01*
X120217014Y-93182002D01*
X120217018Y-93182000D01*
X120263691Y-93132295D01*
X120266309Y-93129594D01*
X120286135Y-93109770D01*
X120288660Y-93106513D01*
X120296251Y-93097624D01*
X120326586Y-93065321D01*
X120336419Y-93047432D01*
X120347100Y-93031172D01*
X120359614Y-93015041D01*
X120377207Y-92974381D01*
X120382343Y-92963895D01*
X120403695Y-92925060D01*
X120408773Y-92905277D01*
X120415070Y-92886885D01*
X120423181Y-92868145D01*
X120430112Y-92824376D01*
X120432478Y-92812953D01*
X120443500Y-92770030D01*
X120443500Y-92749614D01*
X120445027Y-92730214D01*
X120448220Y-92710057D01*
X120444050Y-92665942D01*
X120443500Y-92654273D01*
X120443500Y-86638766D01*
X120463185Y-86571727D01*
X120515989Y-86525972D01*
X120585147Y-86516028D01*
X120648703Y-86545053D01*
X120655178Y-86551082D01*
X120869811Y-86765716D01*
X121062913Y-86958818D01*
X121075959Y-86975101D01*
X121077999Y-86977016D01*
X121078000Y-86977018D01*
X121127685Y-87023675D01*
X121130449Y-87026354D01*
X121150230Y-87046135D01*
X121153306Y-87048521D01*
X121153503Y-87048674D01*
X121162372Y-87056249D01*
X121194679Y-87086586D01*
X121212564Y-87096418D01*
X121228825Y-87107099D01*
X121244959Y-87119614D01*
X121285625Y-87137210D01*
X121296112Y-87142348D01*
X121334940Y-87163695D01*
X121354708Y-87168770D01*
X121373119Y-87175073D01*
X121391855Y-87183181D01*
X121435626Y-87190113D01*
X121447041Y-87192477D01*
X121489970Y-87203500D01*
X121510384Y-87203500D01*
X121529782Y-87205027D01*
X121564482Y-87210523D01*
X121627617Y-87240452D01*
X121657111Y-87279837D01*
X121679350Y-87326704D01*
X121817707Y-87527148D01*
X121929706Y-87643751D01*
X121986424Y-87702801D01*
X122036599Y-87740505D01*
X122078368Y-87796515D01*
X122083225Y-87866216D01*
X122049628Y-87927477D01*
X122044348Y-87932438D01*
X121968087Y-88000000D01*
X121898523Y-88061627D01*
X121744490Y-88250285D01*
X121622711Y-88461212D01*
X121536343Y-88688943D01*
X121487625Y-88927581D01*
X121477818Y-89170935D01*
X121507177Y-89412722D01*
X121574938Y-89646659D01*
X121574939Y-89646662D01*
X121679350Y-89866704D01*
X121817707Y-90067148D01*
X121986425Y-90242802D01*
X122045794Y-90287415D01*
X122094365Y-90323914D01*
X122181135Y-90389117D01*
X122396795Y-90502304D01*
X122627818Y-90579431D01*
X122814614Y-90609788D01*
X122868220Y-90618500D01*
X122868221Y-90618500D01*
X123588312Y-90618500D01*
X123590797Y-90618500D01*
X123772768Y-90603810D01*
X124009248Y-90545523D01*
X124233316Y-90450056D01*
X124439168Y-90319883D01*
X124621474Y-90158375D01*
X124775510Y-89969714D01*
X124897289Y-89758787D01*
X124983656Y-89531057D01*
X125032374Y-89292421D01*
X125042181Y-89049061D01*
X125012823Y-88807280D01*
X124945061Y-88573338D01*
X124840650Y-88353296D01*
X124702293Y-88152852D01*
X124533575Y-87977198D01*
X124483400Y-87939494D01*
X124441632Y-87883485D01*
X124436775Y-87813784D01*
X124470372Y-87752523D01*
X124475651Y-87747561D01*
X124621474Y-87618375D01*
X124775510Y-87429714D01*
X124897289Y-87218787D01*
X124983656Y-86991057D01*
X125032374Y-86752421D01*
X125042181Y-86509061D01*
X125012823Y-86267280D01*
X125000758Y-86225626D01*
X125001014Y-86155758D01*
X125039003Y-86097118D01*
X125102664Y-86068326D01*
X125171786Y-86078523D01*
X125207543Y-86103447D01*
X127330180Y-88226084D01*
X127363665Y-88287407D01*
X127366499Y-88313765D01*
X127366499Y-92686232D01*
X127346814Y-92753271D01*
X127330180Y-92773913D01*
X123773914Y-96330181D01*
X123712591Y-96363666D01*
X123686233Y-96366500D01*
X118313766Y-96366500D01*
X118246727Y-96346815D01*
X118226085Y-96330181D01*
X113669819Y-91773914D01*
X113636334Y-91712591D01*
X113633500Y-91686233D01*
X113633500Y-84083633D01*
X113635789Y-84062888D01*
X113635701Y-84060095D01*
X113635702Y-84060092D01*
X113633561Y-83991968D01*
X113633500Y-83988073D01*
X113633500Y-83964043D01*
X113633500Y-83960144D01*
X113632983Y-83956058D01*
X113632065Y-83944399D01*
X113630674Y-83900111D01*
X113624977Y-83880501D01*
X113621033Y-83861460D01*
X113618474Y-83841203D01*
X113602161Y-83800002D01*
X113598386Y-83788975D01*
X113586019Y-83746407D01*
X113575622Y-83728828D01*
X113567064Y-83711357D01*
X113559552Y-83692384D01*
X113559552Y-83692383D01*
X113533505Y-83656532D01*
X113527098Y-83646778D01*
X113504543Y-83608639D01*
X113498066Y-83602162D01*
X113490101Y-83594197D01*
X113477472Y-83579410D01*
X113465472Y-83562893D01*
X113431324Y-83534643D01*
X113422685Y-83526781D01*
X110669819Y-80773914D01*
X110636334Y-80712591D01*
X110633500Y-80686233D01*
X110633500Y-62803765D01*
X110653185Y-62736726D01*
X110669819Y-62716084D01*
X111003423Y-62382480D01*
X111364821Y-62021081D01*
X111426142Y-61987598D01*
X111495833Y-61992582D01*
G37*
%TD.AperFunction*%
%TA.AperFunction,Conductor*%
G36*
X123710000Y-55450022D02*
G01*
X123706652Y-55450022D01*
X123708381Y-55478981D01*
X123675214Y-55538879D01*
X121883914Y-57330181D01*
X121822591Y-57363666D01*
X121796233Y-57366500D01*
X116318765Y-57366500D01*
X116251726Y-57346815D01*
X116205971Y-57294011D01*
X116196027Y-57224853D01*
X116225052Y-57161297D01*
X116231084Y-57154819D01*
X117055722Y-56330181D01*
X117967569Y-55418333D01*
X118028890Y-55384850D01*
X118087341Y-55386240D01*
X118151913Y-55403543D01*
X118380000Y-55423498D01*
X118608087Y-55403543D01*
X118829243Y-55344284D01*
X119036749Y-55247523D01*
X119224300Y-55116198D01*
X119386198Y-54954300D01*
X119517523Y-54766749D01*
X119542308Y-54713596D01*
X119588476Y-54661160D01*
X119655669Y-54642007D01*
X119722551Y-54662221D01*
X119767070Y-54713597D01*
X119789866Y-54762482D01*
X119920341Y-54948819D01*
X120081180Y-55109658D01*
X120267519Y-55240134D01*
X120473673Y-55336266D01*
X120669999Y-55388871D01*
X120670000Y-55388871D01*
X120670000Y-54425686D01*
X120681955Y-54437641D01*
X120794852Y-54495165D01*
X120888519Y-54510000D01*
X120951481Y-54510000D01*
X121045148Y-54495165D01*
X121158045Y-54437641D01*
X121170000Y-54425685D01*
X121170000Y-55388871D01*
X121366326Y-55336266D01*
X121572480Y-55240134D01*
X121758819Y-55109658D01*
X121919658Y-54948819D01*
X122050135Y-54762479D01*
X122077618Y-54703543D01*
X122123790Y-54651103D01*
X122190983Y-54631951D01*
X122257864Y-54652166D01*
X122302382Y-54703543D01*
X122329864Y-54762479D01*
X122460341Y-54948819D01*
X122621180Y-55109658D01*
X122807519Y-55240134D01*
X123013673Y-55336266D01*
X123209999Y-55388871D01*
X123210000Y-55388871D01*
X123210000Y-54425685D01*
X123221955Y-54437641D01*
X123334852Y-54495165D01*
X123428519Y-54510000D01*
X123491481Y-54510000D01*
X123585148Y-54495165D01*
X123698045Y-54437641D01*
X123710000Y-54425685D01*
X123710000Y-55450022D01*
G37*
%TD.AperFunction*%
%TA.AperFunction,Conductor*%
G36*
X129038686Y-54653185D02*
G01*
X129073221Y-54686376D01*
X129179964Y-54838819D01*
X129183802Y-54844300D01*
X129345700Y-55006198D01*
X129533251Y-55137523D01*
X129740757Y-55234284D01*
X129961913Y-55293543D01*
X130190000Y-55313498D01*
X130418087Y-55293543D01*
X130507199Y-55269665D01*
X130577047Y-55271328D01*
X130634910Y-55310490D01*
X130662415Y-55374718D01*
X130650829Y-55443620D01*
X130626973Y-55477121D01*
X129773914Y-56330181D01*
X129712591Y-56363666D01*
X129686233Y-56366500D01*
X125733633Y-56366500D01*
X125712891Y-56364210D01*
X125710091Y-56364298D01*
X125641983Y-56366439D01*
X125638087Y-56366500D01*
X125610144Y-56366500D01*
X125606277Y-56366988D01*
X125606268Y-56366989D01*
X125606032Y-56367019D01*
X125594405Y-56367934D01*
X125550110Y-56369326D01*
X125530507Y-56375022D01*
X125511455Y-56378967D01*
X125491203Y-56381525D01*
X125449999Y-56397839D01*
X125438953Y-56401620D01*
X125396407Y-56413982D01*
X125378827Y-56424377D01*
X125361370Y-56432930D01*
X125342378Y-56440449D01*
X125306534Y-56466491D01*
X125296777Y-56472901D01*
X125258638Y-56495457D01*
X125244200Y-56509895D01*
X125229411Y-56522525D01*
X125212894Y-56534525D01*
X125184644Y-56568673D01*
X125176783Y-56577311D01*
X121332430Y-60421663D01*
X121271107Y-60455148D01*
X121212657Y-60453757D01*
X121148088Y-60436456D01*
X120920000Y-60416501D01*
X120691915Y-60436456D01*
X120470753Y-60495717D01*
X120263255Y-60592474D01*
X120075696Y-60723805D01*
X119913803Y-60885698D01*
X119908433Y-60893368D01*
X119853855Y-60936992D01*
X119784356Y-60944184D01*
X119722002Y-60912660D01*
X119686590Y-60852430D01*
X119683569Y-60835497D01*
X119681988Y-60820794D01*
X119630889Y-60683796D01*
X119543261Y-60566738D01*
X119426203Y-60479110D01*
X119289205Y-60428011D01*
X119231924Y-60421853D01*
X119231918Y-60421852D01*
X119228638Y-60421500D01*
X117531362Y-60421500D01*
X117528082Y-60421852D01*
X117528075Y-60421853D01*
X117470794Y-60428011D01*
X117333796Y-60479110D01*
X117216738Y-60566738D01*
X117129110Y-60683796D01*
X117078011Y-60820794D01*
X117073257Y-60865019D01*
X117071500Y-60881362D01*
X117071500Y-62578638D01*
X117071852Y-62581918D01*
X117071853Y-62581924D01*
X117078011Y-62639205D01*
X117129110Y-62776203D01*
X117216738Y-62893261D01*
X117333796Y-62980889D01*
X117470794Y-63031988D01*
X117470797Y-63031988D01*
X117470799Y-63031989D01*
X117531362Y-63038500D01*
X117622500Y-63038500D01*
X117689539Y-63058185D01*
X117735294Y-63110989D01*
X117746500Y-63162500D01*
X117746500Y-63296367D01*
X117744210Y-63317108D01*
X117746439Y-63388016D01*
X117746500Y-63391912D01*
X117746500Y-63419856D01*
X117746987Y-63423716D01*
X117746988Y-63423722D01*
X117747019Y-63423965D01*
X117747934Y-63435596D01*
X117749326Y-63479888D01*
X117755022Y-63499492D01*
X117758967Y-63518544D01*
X117761525Y-63538798D01*
X117777838Y-63580001D01*
X117781621Y-63591049D01*
X117793982Y-63633593D01*
X117804374Y-63651166D01*
X117812931Y-63668633D01*
X117820448Y-63687618D01*
X117846491Y-63723463D01*
X117852905Y-63733227D01*
X117875458Y-63771362D01*
X117889890Y-63785794D01*
X117902526Y-63800589D01*
X117914526Y-63817105D01*
X117948667Y-63845349D01*
X117957308Y-63853212D01*
X118492910Y-64388814D01*
X118505959Y-64405101D01*
X118507999Y-64407016D01*
X118508000Y-64407018D01*
X118557701Y-64453690D01*
X118560465Y-64456369D01*
X118580230Y-64476134D01*
X118583484Y-64478658D01*
X118592367Y-64486244D01*
X118624679Y-64516586D01*
X118642572Y-64526422D01*
X118658831Y-64537103D01*
X118674959Y-64549613D01*
X118715625Y-64567210D01*
X118726106Y-64572346D01*
X118747567Y-64584144D01*
X118764940Y-64593695D01*
X118784710Y-64598771D01*
X118803115Y-64605071D01*
X118821855Y-64613181D01*
X118865618Y-64620111D01*
X118877045Y-64622478D01*
X118919970Y-64633500D01*
X118940391Y-64633500D01*
X118959788Y-64635026D01*
X118968555Y-64636415D01*
X118979942Y-64638219D01*
X118979942Y-64638218D01*
X118979943Y-64638219D01*
X119024049Y-64634049D01*
X119035718Y-64633500D01*
X125171234Y-64633500D01*
X125238273Y-64653185D01*
X125284028Y-64705989D01*
X125293972Y-64775147D01*
X125264947Y-64838703D01*
X125258920Y-64845175D01*
X125039513Y-65064581D01*
X124412430Y-65691663D01*
X124351107Y-65725148D01*
X124292657Y-65723757D01*
X124228088Y-65706456D01*
X123999999Y-65686501D01*
X123771915Y-65706456D01*
X123550753Y-65765717D01*
X123343255Y-65862474D01*
X123343250Y-65862477D01*
X123343251Y-65862477D01*
X123185106Y-65973212D01*
X123155696Y-65993805D01*
X122993805Y-66155696D01*
X122862474Y-66343255D01*
X122765717Y-66550753D01*
X122706456Y-66771915D01*
X122686501Y-66999999D01*
X122706456Y-67228084D01*
X122729553Y-67314282D01*
X122753105Y-67402180D01*
X122765717Y-67449246D01*
X122862474Y-67656744D01*
X122862476Y-67656746D01*
X122862477Y-67656749D01*
X122993802Y-67844300D01*
X123155700Y-68006198D01*
X123343251Y-68137523D01*
X123550757Y-68234284D01*
X123771913Y-68293543D01*
X124000000Y-68313498D01*
X124228087Y-68293543D01*
X124449243Y-68234284D01*
X124656749Y-68137523D01*
X124844300Y-68006198D01*
X125006198Y-67844300D01*
X125030216Y-67809999D01*
X128695033Y-67809999D01*
X128714858Y-68036602D01*
X128773733Y-68256326D01*
X128869866Y-68462484D01*
X128920972Y-68535471D01*
X128920974Y-68535472D01*
X129602045Y-67854399D01*
X129614835Y-67935148D01*
X129672359Y-68048045D01*
X129761955Y-68137641D01*
X129874852Y-68195165D01*
X129955599Y-68207953D01*
X129274526Y-68889025D01*
X129274526Y-68889026D01*
X129347515Y-68940133D01*
X129553673Y-69036266D01*
X129773397Y-69095141D01*
X130000000Y-69114966D01*
X130226602Y-69095141D01*
X130446326Y-69036266D01*
X130652480Y-68940134D01*
X130725472Y-68889025D01*
X130044401Y-68207953D01*
X130125148Y-68195165D01*
X130238045Y-68137641D01*
X130327641Y-68048045D01*
X130385165Y-67935148D01*
X130397953Y-67854401D01*
X131079025Y-68535472D01*
X131130134Y-68462480D01*
X131226266Y-68256326D01*
X131285141Y-68036602D01*
X131304966Y-67809999D01*
X131285141Y-67583397D01*
X131226266Y-67363673D01*
X131130133Y-67157515D01*
X131079025Y-67084526D01*
X130397953Y-67765597D01*
X130385165Y-67684852D01*
X130327641Y-67571955D01*
X130238045Y-67482359D01*
X130125148Y-67424835D01*
X130044400Y-67412046D01*
X130725472Y-66730974D01*
X130725471Y-66730972D01*
X130652484Y-66679866D01*
X130446326Y-66583733D01*
X130226602Y-66524858D01*
X130000000Y-66505033D01*
X129773397Y-66524858D01*
X129553672Y-66583733D01*
X129347516Y-66679865D01*
X129274527Y-66730973D01*
X129274526Y-66730973D01*
X129955600Y-67412046D01*
X129874852Y-67424835D01*
X129761955Y-67482359D01*
X129672359Y-67571955D01*
X129614835Y-67684852D01*
X129602046Y-67765600D01*
X128920973Y-67084526D01*
X128920973Y-67084527D01*
X128869865Y-67157516D01*
X128773733Y-67363672D01*
X128714858Y-67583397D01*
X128695033Y-67809999D01*
X125030216Y-67809999D01*
X125137523Y-67656749D01*
X125234284Y-67449243D01*
X125293543Y-67228087D01*
X125313498Y-67000000D01*
X125293543Y-66771913D01*
X125276241Y-66707342D01*
X125277904Y-66637494D01*
X125308333Y-66587570D01*
X126226085Y-65669819D01*
X126287409Y-65636334D01*
X126313767Y-65633500D01*
X128916367Y-65633500D01*
X128937108Y-65635789D01*
X128939905Y-65635701D01*
X128939909Y-65635702D01*
X129008017Y-65633560D01*
X129011913Y-65633500D01*
X129035958Y-65633500D01*
X129039856Y-65633500D01*
X129043724Y-65633011D01*
X129043947Y-65632983D01*
X129055608Y-65632064D01*
X129099889Y-65630673D01*
X129119498Y-65624975D01*
X129138531Y-65621033D01*
X129158797Y-65618474D01*
X129200006Y-65602157D01*
X129211037Y-65598380D01*
X129253593Y-65586018D01*
X129271160Y-65575628D01*
X129288632Y-65567068D01*
X129307617Y-65559552D01*
X129343475Y-65533498D01*
X129353223Y-65527096D01*
X129391362Y-65504542D01*
X129405800Y-65490103D01*
X129420588Y-65477472D01*
X129437107Y-65465472D01*
X129465359Y-65431319D01*
X129473203Y-65422699D01*
X132226084Y-62669819D01*
X132287408Y-62636334D01*
X132313766Y-62633500D01*
X135217394Y-62633500D01*
X135284433Y-62653185D01*
X135330188Y-62705989D01*
X135340132Y-62775147D01*
X135311107Y-62838703D01*
X135264847Y-62872060D01*
X135167498Y-62912384D01*
X135167496Y-62912385D01*
X134951625Y-63044671D01*
X134759102Y-63209102D01*
X134594671Y-63401625D01*
X134462385Y-63617496D01*
X134365494Y-63851409D01*
X134306391Y-64097595D01*
X134291691Y-64284366D01*
X134291690Y-64284382D01*
X134291500Y-64286801D01*
X134291500Y-65713199D01*
X134291690Y-65715618D01*
X134291691Y-65715633D01*
X134306391Y-65902404D01*
X134365494Y-66148590D01*
X134413939Y-66265546D01*
X134462384Y-66382502D01*
X134594672Y-66598376D01*
X134759102Y-66790898D01*
X134951624Y-66955328D01*
X135167498Y-67087616D01*
X135401409Y-67184505D01*
X135647597Y-67243609D01*
X135900000Y-67263474D01*
X136152403Y-67243609D01*
X136398591Y-67184505D01*
X136632502Y-67087616D01*
X136848376Y-66955328D01*
X137040898Y-66790898D01*
X137148212Y-66665249D01*
X137206717Y-66627058D01*
X137276584Y-66626559D01*
X137335631Y-66663913D01*
X137365109Y-66727260D01*
X137366500Y-66745783D01*
X137366500Y-69036612D01*
X137364210Y-69057353D01*
X137366439Y-69128261D01*
X137366500Y-69132157D01*
X137366500Y-69160101D01*
X137366987Y-69163961D01*
X137366988Y-69163967D01*
X137367019Y-69164210D01*
X137367934Y-69175841D01*
X137369326Y-69220133D01*
X137375022Y-69239737D01*
X137378967Y-69258789D01*
X137381525Y-69279043D01*
X137397838Y-69320246D01*
X137401621Y-69331294D01*
X137413982Y-69373838D01*
X137424374Y-69391411D01*
X137432931Y-69408878D01*
X137440448Y-69427863D01*
X137466491Y-69463708D01*
X137472905Y-69473472D01*
X137495458Y-69511607D01*
X137509890Y-69526039D01*
X137522526Y-69540834D01*
X137534526Y-69557350D01*
X137534527Y-69557351D01*
X137534528Y-69557352D01*
X137568667Y-69585594D01*
X137577308Y-69593457D01*
X142797971Y-74814120D01*
X142831456Y-74875443D01*
X142826472Y-74945135D01*
X142784600Y-75001068D01*
X142719136Y-75025485D01*
X142699484Y-75025329D01*
X142642671Y-75020359D01*
X142423301Y-75039551D01*
X142210592Y-75096547D01*
X142011019Y-75189610D01*
X142011017Y-75189611D01*
X141839051Y-75310023D01*
X141830628Y-75315921D01*
X141674924Y-75471625D01*
X141674921Y-75471628D01*
X141674921Y-75471629D01*
X141548759Y-75651808D01*
X141548613Y-75652016D01*
X141455550Y-75851589D01*
X141398554Y-76064298D01*
X141379362Y-76283667D01*
X141398554Y-76503035D01*
X141455551Y-76715747D01*
X141472222Y-76751498D01*
X141482714Y-76820575D01*
X141454194Y-76884359D01*
X141415112Y-76914902D01*
X141222513Y-77010804D01*
X141051180Y-77140188D01*
X140906536Y-77298856D01*
X140793509Y-77481401D01*
X140715952Y-77681598D01*
X140715951Y-77681602D01*
X140715951Y-77681603D01*
X140676500Y-77892649D01*
X140676500Y-78107351D01*
X140715951Y-78318397D01*
X140715952Y-78318399D01*
X140729973Y-78354592D01*
X140735835Y-78424215D01*
X140703125Y-78485955D01*
X140702027Y-78487066D01*
X139611180Y-79577913D01*
X139594896Y-79590961D01*
X139546339Y-79642668D01*
X139543634Y-79645460D01*
X139523865Y-79665230D01*
X139521487Y-79668293D01*
X139521470Y-79668314D01*
X139521311Y-79668521D01*
X139513753Y-79677368D01*
X139483414Y-79709677D01*
X139473582Y-79727563D01*
X139462901Y-79743823D01*
X139450385Y-79759959D01*
X139432786Y-79800628D01*
X139427648Y-79811117D01*
X139406303Y-79849943D01*
X139401226Y-79869718D01*
X139394925Y-79888123D01*
X139386818Y-79906856D01*
X139379888Y-79950610D01*
X139377520Y-79962046D01*
X139366500Y-80004969D01*
X139366500Y-80025384D01*
X139364973Y-80044783D01*
X139361780Y-80064941D01*
X139365950Y-80109057D01*
X139366500Y-80120726D01*
X139366500Y-86781648D01*
X139346815Y-86848687D01*
X139313626Y-86883220D01*
X139155700Y-86993802D01*
X139155696Y-86993805D01*
X138993805Y-87155696D01*
X138993802Y-87155699D01*
X138993802Y-87155700D01*
X138968048Y-87192481D01*
X138862474Y-87343255D01*
X138765717Y-87550753D01*
X138706456Y-87771915D01*
X138686501Y-88000000D01*
X138706456Y-88228084D01*
X138765717Y-88449246D01*
X138862474Y-88656744D01*
X138862476Y-88656746D01*
X138862477Y-88656749D01*
X138993802Y-88844300D01*
X139155700Y-89006198D01*
X139313625Y-89116779D01*
X139357248Y-89171354D01*
X139366500Y-89218352D01*
X139366500Y-91171233D01*
X139346815Y-91238272D01*
X139294011Y-91284027D01*
X139224853Y-91293971D01*
X139161297Y-91264946D01*
X139154819Y-91258914D01*
X138219819Y-90323914D01*
X138186334Y-90262591D01*
X138183500Y-90236233D01*
X138183500Y-83633627D01*
X138185789Y-83612894D01*
X138185421Y-83601199D01*
X138183561Y-83541999D01*
X138183500Y-83538104D01*
X138183500Y-83514035D01*
X138183500Y-83510144D01*
X138182982Y-83506043D01*
X138182064Y-83494387D01*
X138180673Y-83450110D01*
X138174978Y-83430511D01*
X138171033Y-83411462D01*
X138168474Y-83391203D01*
X138152163Y-83350007D01*
X138148380Y-83338958D01*
X138143601Y-83322508D01*
X138136018Y-83296406D01*
X138125622Y-83278828D01*
X138117067Y-83261366D01*
X138109552Y-83242383D01*
X138083512Y-83206542D01*
X138077098Y-83196778D01*
X138075720Y-83194449D01*
X138054542Y-83158637D01*
X138040106Y-83144202D01*
X138027470Y-83129407D01*
X138020266Y-83119492D01*
X138015472Y-83112893D01*
X137981324Y-83084643D01*
X137972696Y-83076791D01*
X131308335Y-76412430D01*
X131274850Y-76351107D01*
X131276242Y-76292654D01*
X131293543Y-76228087D01*
X131313498Y-76000000D01*
X131304420Y-75896241D01*
X131293543Y-75771913D01*
X131234284Y-75550757D01*
X131137523Y-75343251D01*
X131006198Y-75155700D01*
X130844300Y-74993802D01*
X130686374Y-74883220D01*
X130642752Y-74828646D01*
X130633500Y-74781648D01*
X130633500Y-74028352D01*
X130653185Y-73961313D01*
X130686373Y-73926779D01*
X130844300Y-73816198D01*
X131006198Y-73654300D01*
X131137523Y-73466749D01*
X131234284Y-73259243D01*
X131293543Y-73038087D01*
X131313498Y-72810000D01*
X131293543Y-72581913D01*
X131234284Y-72360757D01*
X131137523Y-72153251D01*
X131006198Y-71965700D01*
X130844300Y-71803802D01*
X130656749Y-71672477D01*
X130656746Y-71672476D01*
X130656744Y-71672474D01*
X130449246Y-71575717D01*
X130449243Y-71575716D01*
X130305754Y-71537268D01*
X130228084Y-71516456D01*
X130000000Y-71496501D01*
X129771915Y-71516456D01*
X129550753Y-71575717D01*
X129343255Y-71672474D01*
X129331426Y-71680757D01*
X129178501Y-71787837D01*
X129155696Y-71803805D01*
X128993805Y-71965696D01*
X128862474Y-72153255D01*
X128765717Y-72360753D01*
X128706456Y-72581915D01*
X128686501Y-72809999D01*
X128706456Y-73038084D01*
X128765717Y-73259246D01*
X128862474Y-73466744D01*
X128862476Y-73466746D01*
X128862477Y-73466749D01*
X128993802Y-73654300D01*
X129155700Y-73816198D01*
X129312846Y-73926233D01*
X129313623Y-73926777D01*
X129357248Y-73981355D01*
X129366499Y-74028352D01*
X129366500Y-74781648D01*
X129346816Y-74848687D01*
X129313626Y-74883220D01*
X129155700Y-74993802D01*
X129155696Y-74993805D01*
X128993805Y-75155696D01*
X128993802Y-75155699D01*
X128993802Y-75155700D01*
X128930288Y-75246407D01*
X128862474Y-75343255D01*
X128765717Y-75550753D01*
X128706456Y-75771915D01*
X128686501Y-76000000D01*
X128706456Y-76228084D01*
X128706457Y-76228087D01*
X128765288Y-76447647D01*
X128765717Y-76449246D01*
X128862474Y-76656744D01*
X128862476Y-76656746D01*
X128862477Y-76656749D01*
X128993802Y-76844300D01*
X129155700Y-77006198D01*
X129343251Y-77137523D01*
X129550757Y-77234284D01*
X129771913Y-77293543D01*
X130000000Y-77313498D01*
X130228088Y-77293543D01*
X130292655Y-77276242D01*
X130362505Y-77277903D01*
X130412431Y-77308335D01*
X136880181Y-83776085D01*
X136913666Y-83837408D01*
X136916500Y-83863766D01*
X136916500Y-84508542D01*
X136896815Y-84575581D01*
X136844011Y-84621336D01*
X136774853Y-84631280D01*
X136711297Y-84602255D01*
X136687506Y-84574514D01*
X136636111Y-84492719D01*
X136507281Y-84363889D01*
X136353015Y-84266957D01*
X136181047Y-84206783D01*
X136181046Y-84206782D01*
X136181044Y-84206782D01*
X136000000Y-84186383D01*
X135818955Y-84206782D01*
X135646984Y-84266957D01*
X135492717Y-84363890D01*
X135363890Y-84492717D01*
X135270270Y-84641713D01*
X135266957Y-84646985D01*
X135218067Y-84786704D01*
X135206782Y-84818956D01*
X135201690Y-84864146D01*
X135174623Y-84928560D01*
X135166151Y-84937942D01*
X132773914Y-87330181D01*
X132712591Y-87363666D01*
X132686233Y-87366500D01*
X131058353Y-87366500D01*
X130991314Y-87346815D01*
X130956779Y-87313624D01*
X130846198Y-87155700D01*
X130684303Y-86993805D01*
X130684302Y-86993805D01*
X130684300Y-86993802D01*
X130496749Y-86862477D01*
X130496746Y-86862476D01*
X130496744Y-86862474D01*
X130289246Y-86765717D01*
X130289243Y-86765716D01*
X130178664Y-86736086D01*
X130068084Y-86706456D01*
X129840000Y-86686501D01*
X129611915Y-86706456D01*
X129390753Y-86765717D01*
X129183255Y-86862474D01*
X129153623Y-86883223D01*
X128999621Y-86991057D01*
X128995696Y-86993805D01*
X128833801Y-87155700D01*
X128723221Y-87313624D01*
X128668644Y-87357249D01*
X128621647Y-87366500D01*
X128313766Y-87366500D01*
X128246727Y-87346815D01*
X128226085Y-87330181D01*
X125073721Y-84177816D01*
X125040236Y-84116493D01*
X125037503Y-84085141D01*
X125038116Y-84069943D01*
X125042181Y-83969061D01*
X125012823Y-83727280D01*
X124945061Y-83493338D01*
X124840650Y-83273296D01*
X124702293Y-83072852D01*
X124533575Y-82897198D01*
X124483400Y-82859494D01*
X124441632Y-82803485D01*
X124436775Y-82733784D01*
X124470372Y-82672523D01*
X124475651Y-82667561D01*
X124621474Y-82538375D01*
X124775510Y-82349714D01*
X124897289Y-82138787D01*
X124983656Y-81911057D01*
X125032374Y-81672421D01*
X125040402Y-81473212D01*
X125042181Y-81429064D01*
X125040035Y-81411389D01*
X125012823Y-81187280D01*
X124945061Y-80953338D01*
X124840650Y-80733296D01*
X124702293Y-80532852D01*
X124533575Y-80357198D01*
X124499678Y-80331726D01*
X124338867Y-80210884D01*
X124222753Y-80149943D01*
X124123205Y-80097696D01*
X123892182Y-80020569D01*
X123892178Y-80020568D01*
X123892177Y-80020568D01*
X123651780Y-79981500D01*
X123651779Y-79981500D01*
X122929203Y-79981500D01*
X122926748Y-79981698D01*
X122926727Y-79981699D01*
X122747231Y-79996190D01*
X122747232Y-79996190D01*
X122573099Y-80039110D01*
X122510748Y-80054478D01*
X122286684Y-80149943D01*
X122080835Y-80280114D01*
X121898526Y-80441625D01*
X121853551Y-80496710D01*
X121795904Y-80536189D01*
X121726064Y-80538235D01*
X121666205Y-80502198D01*
X121635332Y-80439520D01*
X121633500Y-80418286D01*
X121633500Y-79757500D01*
X121653185Y-79690461D01*
X121705989Y-79644706D01*
X121757500Y-79633500D01*
X126242500Y-79633500D01*
X126309539Y-79653185D01*
X126355294Y-79705989D01*
X126366500Y-79757500D01*
X126366500Y-82916367D01*
X126364210Y-82937108D01*
X126366439Y-83008016D01*
X126366500Y-83011912D01*
X126366500Y-83039856D01*
X126366987Y-83043716D01*
X126366988Y-83043722D01*
X126367019Y-83043965D01*
X126367934Y-83055596D01*
X126369326Y-83099888D01*
X126375022Y-83119492D01*
X126378967Y-83138544D01*
X126381525Y-83158798D01*
X126397838Y-83200001D01*
X126401621Y-83211049D01*
X126413982Y-83253593D01*
X126424374Y-83271166D01*
X126432931Y-83288633D01*
X126440448Y-83307618D01*
X126466491Y-83343463D01*
X126472905Y-83353227D01*
X126495458Y-83391362D01*
X126509890Y-83405794D01*
X126522526Y-83420589D01*
X126534526Y-83437105D01*
X126568667Y-83465349D01*
X126577308Y-83473212D01*
X127112910Y-84008814D01*
X127125959Y-84025101D01*
X127127999Y-84027016D01*
X127128000Y-84027018D01*
X127177701Y-84073690D01*
X127180465Y-84076369D01*
X127200230Y-84096134D01*
X127203484Y-84098658D01*
X127212367Y-84106244D01*
X127244679Y-84136586D01*
X127262572Y-84146422D01*
X127278831Y-84157103D01*
X127294959Y-84169613D01*
X127335625Y-84187210D01*
X127346106Y-84192346D01*
X127359369Y-84199637D01*
X127384940Y-84213695D01*
X127404710Y-84218771D01*
X127423115Y-84225071D01*
X127441855Y-84233181D01*
X127485618Y-84240111D01*
X127497045Y-84242478D01*
X127539970Y-84253500D01*
X127560391Y-84253500D01*
X127579788Y-84255026D01*
X127588555Y-84256415D01*
X127599942Y-84258219D01*
X127599942Y-84258218D01*
X127599943Y-84258219D01*
X127644049Y-84254049D01*
X127655718Y-84253500D01*
X128781647Y-84253500D01*
X128848686Y-84273185D01*
X128883221Y-84306376D01*
X128974938Y-84437360D01*
X128993802Y-84464300D01*
X129155700Y-84626198D01*
X129343251Y-84757523D01*
X129343254Y-84757524D01*
X129343255Y-84757525D01*
X129378267Y-84773851D01*
X129550757Y-84854284D01*
X129771913Y-84913543D01*
X129923971Y-84926846D01*
X129999999Y-84933498D01*
X129999999Y-84933497D01*
X130000000Y-84933498D01*
X130228087Y-84913543D01*
X130449243Y-84854284D01*
X130656749Y-84757523D01*
X130844300Y-84626198D01*
X131006198Y-84464300D01*
X131137523Y-84276749D01*
X131234284Y-84069243D01*
X131293543Y-83848087D01*
X131313498Y-83620000D01*
X131313492Y-83619937D01*
X131302417Y-83493340D01*
X131293543Y-83391913D01*
X131234284Y-83170757D01*
X131137523Y-82963251D01*
X131006198Y-82775700D01*
X130844300Y-82613802D01*
X130656749Y-82482477D01*
X130656746Y-82482476D01*
X130656744Y-82482474D01*
X130449246Y-82385717D01*
X130449243Y-82385716D01*
X130314883Y-82349714D01*
X130228084Y-82326456D01*
X130000000Y-82306501D01*
X129771915Y-82326456D01*
X129550753Y-82385717D01*
X129343255Y-82482474D01*
X129267772Y-82535328D01*
X129176553Y-82599201D01*
X129155696Y-82613805D01*
X128993801Y-82775700D01*
X128883221Y-82933624D01*
X128828644Y-82977249D01*
X128781647Y-82986500D01*
X127933767Y-82986500D01*
X127866728Y-82966815D01*
X127846086Y-82950181D01*
X127669819Y-82773914D01*
X127636334Y-82712591D01*
X127633500Y-82686233D01*
X127633500Y-79071606D01*
X127635696Y-79048371D01*
X127637275Y-79040092D01*
X127633745Y-78983983D01*
X127633500Y-78976197D01*
X127633500Y-70071606D01*
X127635696Y-70048371D01*
X127637275Y-70040092D01*
X127633745Y-69983983D01*
X127633500Y-69976197D01*
X127633500Y-69964037D01*
X127633500Y-69960144D01*
X127631485Y-69944199D01*
X127630758Y-69936513D01*
X127627225Y-69880350D01*
X127624621Y-69872338D01*
X127619529Y-69849555D01*
X127618474Y-69841204D01*
X127618474Y-69841203D01*
X127597770Y-69788912D01*
X127595140Y-69781604D01*
X127577765Y-69728128D01*
X127577764Y-69728127D01*
X127577764Y-69728125D01*
X127573245Y-69721004D01*
X127562655Y-69700221D01*
X127559552Y-69692383D01*
X127526516Y-69646913D01*
X127522139Y-69640472D01*
X127492000Y-69592982D01*
X127485854Y-69587210D01*
X127470419Y-69569702D01*
X127465471Y-69562892D01*
X127438807Y-69540834D01*
X127422138Y-69527044D01*
X127416325Y-69521919D01*
X127375321Y-69483414D01*
X127367933Y-69479352D01*
X127348634Y-69466236D01*
X127342144Y-69460867D01*
X127291263Y-69436924D01*
X127284338Y-69433395D01*
X127269322Y-69425140D01*
X127235058Y-69406303D01*
X127226896Y-69404208D01*
X127204947Y-69396306D01*
X127197319Y-69392717D01*
X127142103Y-69382183D01*
X127134506Y-69380485D01*
X127080032Y-69366500D01*
X127080030Y-69366500D01*
X127071607Y-69366500D01*
X127048373Y-69364304D01*
X127040093Y-69362724D01*
X126986418Y-69366101D01*
X126983984Y-69366255D01*
X126976199Y-69366500D01*
X120467500Y-69366500D01*
X120400461Y-69346815D01*
X120354706Y-69294011D01*
X120343500Y-69242500D01*
X120343500Y-68602616D01*
X120343500Y-67848348D01*
X120363184Y-67781313D01*
X120396373Y-67746779D01*
X120554300Y-67636198D01*
X120716198Y-67474300D01*
X120847523Y-67286749D01*
X120944284Y-67079243D01*
X121003543Y-66858087D01*
X121023498Y-66630000D01*
X121003543Y-66401913D01*
X120944284Y-66180757D01*
X120889194Y-66062616D01*
X120847525Y-65973255D01*
X120847524Y-65973254D01*
X120847523Y-65973251D01*
X120716198Y-65785700D01*
X120554300Y-65623802D01*
X120366749Y-65492477D01*
X120366746Y-65492476D01*
X120366744Y-65492474D01*
X120159246Y-65395717D01*
X120159243Y-65395716D01*
X120048665Y-65366086D01*
X119938084Y-65336456D01*
X119710000Y-65316501D01*
X119481915Y-65336456D01*
X119260753Y-65395717D01*
X119053255Y-65492474D01*
X118985587Y-65539856D01*
X118867910Y-65622255D01*
X118865696Y-65623805D01*
X118703805Y-65785696D01*
X118572474Y-65973255D01*
X118475717Y-66180753D01*
X118416456Y-66401915D01*
X118396501Y-66630000D01*
X118416456Y-66858084D01*
X118416457Y-66858087D01*
X118454482Y-66999999D01*
X118475717Y-67079246D01*
X118572474Y-67286744D01*
X118572476Y-67286746D01*
X118572477Y-67286749D01*
X118703802Y-67474300D01*
X118865700Y-67636198D01*
X119023625Y-67746778D01*
X119067247Y-67801353D01*
X119076499Y-67848351D01*
X119076500Y-69919970D01*
X119076500Y-69928394D01*
X119074304Y-69951629D01*
X119072724Y-69959907D01*
X119076255Y-70016014D01*
X119076500Y-70023801D01*
X119076500Y-71016679D01*
X119056815Y-71083718D01*
X119023626Y-71118252D01*
X119015699Y-71123802D01*
X118853805Y-71285696D01*
X118722474Y-71473255D01*
X118625717Y-71680753D01*
X118566456Y-71901915D01*
X118546501Y-72130000D01*
X118566456Y-72358084D01*
X118625717Y-72579246D01*
X118722474Y-72786744D01*
X118722476Y-72786746D01*
X118722477Y-72786749D01*
X118853802Y-72974300D01*
X119015700Y-73136198D01*
X119203251Y-73267523D01*
X119410757Y-73364284D01*
X119631913Y-73423543D01*
X119860000Y-73443498D01*
X120088087Y-73423543D01*
X120309243Y-73364284D01*
X120516749Y-73267523D01*
X120704300Y-73136198D01*
X120866198Y-72974300D01*
X120997523Y-72786749D01*
X121094284Y-72579243D01*
X121153543Y-72358087D01*
X121173498Y-72130000D01*
X121153543Y-71901913D01*
X121094284Y-71680757D01*
X120997523Y-71473251D01*
X120866198Y-71285700D01*
X120704300Y-71123802D01*
X120516749Y-70992477D01*
X120415095Y-70945075D01*
X120362656Y-70898903D01*
X120343500Y-70832693D01*
X120343500Y-70757500D01*
X120363185Y-70690461D01*
X120415989Y-70644706D01*
X120467500Y-70633500D01*
X126242500Y-70633500D01*
X126309539Y-70653185D01*
X126355294Y-70705989D01*
X126366500Y-70757500D01*
X126366500Y-78242500D01*
X126346815Y-78309539D01*
X126294011Y-78355294D01*
X126242500Y-78366500D01*
X121071607Y-78366500D01*
X121048373Y-78364304D01*
X121040093Y-78362724D01*
X120986418Y-78366101D01*
X120983984Y-78366255D01*
X120976199Y-78366500D01*
X120960144Y-78366500D01*
X120956286Y-78366987D01*
X120956273Y-78366988D01*
X120944208Y-78368512D01*
X120936466Y-78369243D01*
X120880347Y-78372774D01*
X120872327Y-78375380D01*
X120849564Y-78380468D01*
X120841204Y-78381524D01*
X120788938Y-78402217D01*
X120781614Y-78404854D01*
X120728124Y-78422235D01*
X120721002Y-78426755D01*
X120700221Y-78437343D01*
X120692385Y-78440445D01*
X120646905Y-78473488D01*
X120640469Y-78477862D01*
X120633946Y-78482002D01*
X120566796Y-78501306D01*
X120499869Y-78481242D01*
X120454414Y-78428179D01*
X120443499Y-78377310D01*
X120443499Y-78218349D01*
X120463184Y-78151313D01*
X120496373Y-78116779D01*
X120654300Y-78006198D01*
X120816198Y-77844300D01*
X120875455Y-77759673D01*
X120926779Y-77686376D01*
X120981356Y-77642751D01*
X121028353Y-77633500D01*
X121536367Y-77633500D01*
X121557108Y-77635789D01*
X121559905Y-77635701D01*
X121559909Y-77635702D01*
X121628017Y-77633560D01*
X121631913Y-77633500D01*
X121655958Y-77633500D01*
X121659856Y-77633500D01*
X121663724Y-77633011D01*
X121663947Y-77632983D01*
X121675608Y-77632064D01*
X121719889Y-77630673D01*
X121739498Y-77624975D01*
X121758531Y-77621033D01*
X121778797Y-77618474D01*
X121820006Y-77602157D01*
X121831037Y-77598380D01*
X121873593Y-77586018D01*
X121891160Y-77575628D01*
X121908632Y-77567068D01*
X121927617Y-77559552D01*
X121963475Y-77533498D01*
X121973223Y-77527096D01*
X122011362Y-77504542D01*
X122025800Y-77490103D01*
X122040588Y-77477472D01*
X122057107Y-77465472D01*
X122085359Y-77431319D01*
X122093203Y-77422699D01*
X123587569Y-75928333D01*
X123648890Y-75894850D01*
X123707341Y-75896240D01*
X123771913Y-75913543D01*
X124000000Y-75933498D01*
X124228087Y-75913543D01*
X124449243Y-75854284D01*
X124656749Y-75757523D01*
X124844300Y-75626198D01*
X125006198Y-75464300D01*
X125137523Y-75276749D01*
X125234284Y-75069243D01*
X125293543Y-74848087D01*
X125313498Y-74620000D01*
X125293543Y-74391913D01*
X125234284Y-74170757D01*
X125152704Y-73995807D01*
X125137525Y-73963255D01*
X125137524Y-73963254D01*
X125137523Y-73963251D01*
X125006198Y-73775700D01*
X124844300Y-73613802D01*
X124656749Y-73482477D01*
X124656746Y-73482476D01*
X124656744Y-73482474D01*
X124449246Y-73385717D01*
X124449243Y-73385716D01*
X124309800Y-73348352D01*
X124228084Y-73326456D01*
X124000000Y-73306501D01*
X123771915Y-73326456D01*
X123550753Y-73385717D01*
X123343255Y-73482474D01*
X123155696Y-73613805D01*
X122993805Y-73775696D01*
X122862474Y-73963255D01*
X122765717Y-74170753D01*
X122706456Y-74391915D01*
X122686501Y-74620000D01*
X122706456Y-74848088D01*
X122723757Y-74912657D01*
X122722094Y-74982506D01*
X122691663Y-75032430D01*
X121393914Y-76330181D01*
X121332591Y-76363666D01*
X121306233Y-76366500D01*
X121028353Y-76366500D01*
X120961314Y-76346815D01*
X120926779Y-76313624D01*
X120816198Y-76155700D01*
X120654303Y-75993805D01*
X120654300Y-75993802D01*
X120466749Y-75862477D01*
X120466746Y-75862476D01*
X120466744Y-75862474D01*
X120259246Y-75765717D01*
X120259243Y-75765716D01*
X120090257Y-75720436D01*
X120038084Y-75706456D01*
X119810000Y-75686501D01*
X119581915Y-75706456D01*
X119360753Y-75765717D01*
X119153255Y-75862474D01*
X119153250Y-75862477D01*
X119153251Y-75862477D01*
X119013769Y-75960144D01*
X118965696Y-75993805D01*
X118803805Y-76155696D01*
X118672474Y-76343255D01*
X118575717Y-76550753D01*
X118516456Y-76771915D01*
X118496501Y-76999999D01*
X118516456Y-77228084D01*
X118539343Y-77313498D01*
X118574934Y-77446326D01*
X118575717Y-77449246D01*
X118672474Y-77656744D01*
X118672476Y-77656746D01*
X118672477Y-77656749D01*
X118803802Y-77844300D01*
X118965700Y-78006198D01*
X119110157Y-78107348D01*
X119123623Y-78116777D01*
X119167248Y-78171355D01*
X119176499Y-78218352D01*
X119176500Y-85686233D01*
X119156815Y-85753272D01*
X119140181Y-85773914D01*
X119013914Y-85900181D01*
X118952591Y-85933666D01*
X118926233Y-85936500D01*
X117457524Y-85936500D01*
X117390485Y-85916815D01*
X117345497Y-85865660D01*
X117320650Y-85813296D01*
X117182293Y-85612852D01*
X117013575Y-85437198D01*
X116963400Y-85399494D01*
X116921632Y-85343485D01*
X116916775Y-85273784D01*
X116950372Y-85212523D01*
X116955651Y-85207561D01*
X117101474Y-85078375D01*
X117255510Y-84889714D01*
X117377289Y-84678787D01*
X117463656Y-84451057D01*
X117512374Y-84212421D01*
X117522181Y-83969061D01*
X117492823Y-83727280D01*
X117425061Y-83493338D01*
X117320650Y-83273296D01*
X117182293Y-83072852D01*
X117118421Y-83006354D01*
X117086179Y-82944371D01*
X117092565Y-82874794D01*
X117108580Y-82846154D01*
X117190889Y-82736204D01*
X117225568Y-82643227D01*
X117241988Y-82599205D01*
X117241988Y-82599203D01*
X117241989Y-82599201D01*
X117248500Y-82538638D01*
X117248500Y-80441362D01*
X117241989Y-80380799D01*
X117241988Y-80380797D01*
X117241988Y-80380794D01*
X117190889Y-80243796D01*
X117103261Y-80126738D01*
X116986203Y-80039110D01*
X116849205Y-79988011D01*
X116791924Y-79981853D01*
X116791918Y-79981852D01*
X116788638Y-79981500D01*
X114757500Y-79981500D01*
X114690461Y-79961815D01*
X114644706Y-79909011D01*
X114633500Y-79857500D01*
X114633500Y-76083632D01*
X114635789Y-76062887D01*
X114635701Y-76060094D01*
X114635702Y-76060091D01*
X114633561Y-75991968D01*
X114633500Y-75988073D01*
X114633500Y-75964043D01*
X114633500Y-75960144D01*
X114632983Y-75956058D01*
X114632065Y-75944399D01*
X114630674Y-75900111D01*
X114624974Y-75880494D01*
X114621033Y-75861464D01*
X114618474Y-75841203D01*
X114602163Y-75800007D01*
X114598381Y-75788960D01*
X114586018Y-75746408D01*
X114586018Y-75746407D01*
X114575622Y-75728829D01*
X114567069Y-75711371D01*
X114559552Y-75692383D01*
X114533503Y-75656530D01*
X114527099Y-75646780D01*
X114504542Y-75608638D01*
X114490107Y-75594203D01*
X114477469Y-75579406D01*
X114465472Y-75562893D01*
X114431324Y-75534643D01*
X114422685Y-75526781D01*
X112909819Y-74013914D01*
X112876334Y-73952591D01*
X112873500Y-73926233D01*
X112873500Y-73348352D01*
X112893185Y-73281313D01*
X112926373Y-73246779D01*
X113084300Y-73136198D01*
X113246198Y-72974300D01*
X113377523Y-72786749D01*
X113474284Y-72579243D01*
X113533543Y-72358087D01*
X113553498Y-72130000D01*
X113533543Y-71901913D01*
X113474284Y-71680757D01*
X113377523Y-71473251D01*
X113246198Y-71285700D01*
X113084300Y-71123802D01*
X112896749Y-70992477D01*
X112896748Y-70992476D01*
X112896376Y-70992216D01*
X112852751Y-70937638D01*
X112843500Y-70890641D01*
X112843500Y-67848352D01*
X112863185Y-67781313D01*
X112896373Y-67746779D01*
X113054300Y-67636198D01*
X113216198Y-67474300D01*
X113347523Y-67286749D01*
X113444284Y-67079243D01*
X113503543Y-66858087D01*
X113523498Y-66630000D01*
X113503543Y-66401913D01*
X113444284Y-66180757D01*
X113389194Y-66062616D01*
X113347525Y-65973255D01*
X113347524Y-65973254D01*
X113347523Y-65973251D01*
X113216198Y-65785700D01*
X113054300Y-65623802D01*
X112896374Y-65513220D01*
X112852751Y-65458646D01*
X112843500Y-65411653D01*
X112843500Y-62103765D01*
X112863185Y-62036726D01*
X112879814Y-62016089D01*
X116226085Y-58669818D01*
X116287408Y-58636334D01*
X116313766Y-58633500D01*
X122026367Y-58633500D01*
X122047108Y-58635789D01*
X122049905Y-58635701D01*
X122049909Y-58635702D01*
X122118017Y-58633560D01*
X122121913Y-58633500D01*
X122145958Y-58633500D01*
X122149856Y-58633500D01*
X122153724Y-58633011D01*
X122153947Y-58632983D01*
X122165608Y-58632064D01*
X122209889Y-58630673D01*
X122229498Y-58624975D01*
X122248531Y-58621033D01*
X122268797Y-58618474D01*
X122310006Y-58602157D01*
X122321037Y-58598380D01*
X122363593Y-58586018D01*
X122381160Y-58575628D01*
X122398632Y-58567068D01*
X122417617Y-58559552D01*
X122453475Y-58533498D01*
X122463223Y-58527096D01*
X122501362Y-58504542D01*
X122515800Y-58490103D01*
X122530588Y-58477472D01*
X122547107Y-58465472D01*
X122575359Y-58431319D01*
X122583203Y-58422699D01*
X125587570Y-55418333D01*
X125648891Y-55384850D01*
X125707341Y-55386240D01*
X125771913Y-55403543D01*
X126000000Y-55423498D01*
X126228087Y-55403543D01*
X126449243Y-55344284D01*
X126656749Y-55247523D01*
X126844300Y-55116198D01*
X127006198Y-54954300D01*
X127137523Y-54766749D01*
X127166272Y-54705095D01*
X127212446Y-54652656D01*
X127278655Y-54633500D01*
X128971647Y-54633500D01*
X129038686Y-54653185D01*
G37*
%TD.AperFunction*%
%TA.AperFunction,Conductor*%
G36*
X139035442Y-66337805D02*
G01*
X139085716Y-66367013D01*
X139212165Y-66487912D01*
X139336961Y-66570288D01*
X139401226Y-66612709D01*
X139609530Y-66701743D01*
X139830385Y-66752151D01*
X140037234Y-66761441D01*
X140056689Y-66762315D01*
X140056689Y-66762314D01*
X140056691Y-66762315D01*
X140281175Y-66731906D01*
X140496621Y-66661903D01*
X140696106Y-66554556D01*
X140696105Y-66554556D01*
X140705935Y-66549267D01*
X140707896Y-66552911D01*
X140752568Y-66534625D01*
X140821275Y-66547315D01*
X140864578Y-66583658D01*
X140886738Y-66613261D01*
X141003796Y-66700889D01*
X141140794Y-66751988D01*
X141140797Y-66751988D01*
X141140799Y-66751989D01*
X141201362Y-66758500D01*
X141341581Y-66758500D01*
X141408620Y-66778185D01*
X141441899Y-66809615D01*
X141466491Y-66843463D01*
X141472905Y-66853227D01*
X141495458Y-66891362D01*
X141509890Y-66905794D01*
X141522526Y-66920589D01*
X141534526Y-66937105D01*
X141534527Y-66937106D01*
X141534528Y-66937107D01*
X141566960Y-66963937D01*
X141568667Y-66965349D01*
X141577308Y-66973212D01*
X150330181Y-75726085D01*
X150363666Y-75787408D01*
X150366500Y-75813766D01*
X150366500Y-81686233D01*
X150346815Y-81753272D01*
X150330181Y-81773914D01*
X149773914Y-82330181D01*
X149712591Y-82363666D01*
X149686233Y-82366500D01*
X148444011Y-82366500D01*
X148376972Y-82346815D01*
X148356330Y-82330181D01*
X147212027Y-81185878D01*
X147178542Y-81124555D01*
X147183526Y-81054863D01*
X147225398Y-80998930D01*
X147290862Y-80974513D01*
X147310509Y-80974668D01*
X147367330Y-80979640D01*
X147367330Y-80979639D01*
X147367331Y-80979640D01*
X147425933Y-80974513D01*
X147586701Y-80960448D01*
X147799406Y-80903453D01*
X147998984Y-80810389D01*
X148179368Y-80684082D01*
X148335079Y-80528371D01*
X148461386Y-80347987D01*
X148554450Y-80148409D01*
X148611445Y-79935704D01*
X148630637Y-79716333D01*
X148611445Y-79496962D01*
X148554450Y-79284257D01*
X148528455Y-79228511D01*
X148517964Y-79159438D01*
X148546483Y-79095653D01*
X148569714Y-79074534D01*
X148731557Y-78961209D01*
X148886209Y-78806557D01*
X149011667Y-78627385D01*
X149104102Y-78429159D01*
X149152108Y-78250000D01*
X148170581Y-78250000D01*
X148222060Y-78194079D01*
X148268982Y-78087108D01*
X148278628Y-77970698D01*
X148249953Y-77857462D01*
X148186064Y-77759673D01*
X148173636Y-77750000D01*
X149152108Y-77750000D01*
X149152107Y-77749999D01*
X149104102Y-77570840D01*
X149011667Y-77372615D01*
X148886209Y-77193442D01*
X148731557Y-77038790D01*
X148569714Y-76925466D01*
X148526090Y-76870889D01*
X148518897Y-76801390D01*
X148528453Y-76771493D01*
X148554450Y-76715743D01*
X148611445Y-76503038D01*
X148630637Y-76283667D01*
X148611445Y-76064296D01*
X148554450Y-75851591D01*
X148461386Y-75652014D01*
X148335079Y-75471629D01*
X148179368Y-75315918D01*
X147998984Y-75189611D01*
X147883600Y-75135807D01*
X147799407Y-75096547D01*
X147586698Y-75039551D01*
X147367329Y-75020359D01*
X147255845Y-75030112D01*
X147187345Y-75016345D01*
X147137163Y-74967729D01*
X147125264Y-74938678D01*
X147086432Y-74793755D01*
X146993997Y-74595530D01*
X146868539Y-74416357D01*
X146713887Y-74261705D01*
X146534715Y-74136247D01*
X146336489Y-74043812D01*
X146157330Y-73995807D01*
X146157330Y-74973976D01*
X146076215Y-74910843D01*
X145965735Y-74872915D01*
X145878325Y-74872915D01*
X145792114Y-74887301D01*
X145689383Y-74942896D01*
X145657330Y-74977714D01*
X145657330Y-73995807D01*
X145657329Y-73995807D01*
X145478170Y-74043812D01*
X145279945Y-74136247D01*
X145100772Y-74261705D01*
X145098691Y-74263787D01*
X145094642Y-74265997D01*
X145091890Y-74267925D01*
X145091675Y-74267618D01*
X145037368Y-74297272D01*
X144967676Y-74292288D01*
X144923329Y-74263787D01*
X144914711Y-74255169D01*
X144914710Y-74255168D01*
X144914708Y-74255166D01*
X144734324Y-74128859D01*
X144551939Y-74043812D01*
X144534747Y-74035795D01*
X144322038Y-73978799D01*
X144102670Y-73959607D01*
X143883302Y-73978799D01*
X143864359Y-73983874D01*
X143850837Y-73987497D01*
X143780988Y-73985835D01*
X143731063Y-73955404D01*
X138669819Y-68894159D01*
X138636334Y-68832836D01*
X138633500Y-68806478D01*
X138633500Y-66662332D01*
X138653185Y-66595293D01*
X138688361Y-66562745D01*
X138687380Y-66561515D01*
X138769277Y-66496204D01*
X138873218Y-66413314D01*
X138906643Y-66375055D01*
X138965573Y-66337521D01*
X139035442Y-66337805D01*
G37*
%TD.AperFunction*%
%TA.AperFunction,Conductor*%
G36*
X146554436Y-77669456D02*
G01*
X146557234Y-77669368D01*
X146557239Y-77669369D01*
X146570606Y-77668948D01*
X146638229Y-77686515D01*
X146672878Y-77717401D01*
X146697892Y-77750000D01*
X147679419Y-77750000D01*
X147627940Y-77805921D01*
X147581018Y-77912892D01*
X147571372Y-78029302D01*
X147600047Y-78142538D01*
X147663936Y-78240327D01*
X147676364Y-78250000D01*
X146697892Y-78250000D01*
X146745897Y-78429156D01*
X146767296Y-78475048D01*
X146777787Y-78544126D01*
X146749266Y-78607910D01*
X146726037Y-78629027D01*
X146555288Y-78748587D01*
X146399584Y-78904291D01*
X146399581Y-78904294D01*
X146399581Y-78904295D01*
X146280379Y-79074534D01*
X146273273Y-79084682D01*
X146180210Y-79284255D01*
X146140797Y-79431344D01*
X146104431Y-79491005D01*
X146041584Y-79521533D01*
X146010216Y-79522778D01*
X145907330Y-79513777D01*
X145687961Y-79532969D01*
X145475252Y-79589965D01*
X145296929Y-79673119D01*
X145275677Y-79683029D01*
X145100072Y-79805989D01*
X145095288Y-79809339D01*
X145092681Y-79811947D01*
X145087609Y-79814716D01*
X145086406Y-79815559D01*
X145086311Y-79815424D01*
X145031358Y-79845432D01*
X144961666Y-79840448D01*
X144917319Y-79811947D01*
X144914711Y-79809339D01*
X144914708Y-79809336D01*
X144734324Y-79683029D01*
X144628108Y-79633500D01*
X144534747Y-79589965D01*
X144322038Y-79532969D01*
X144102668Y-79513777D01*
X144045853Y-79518747D01*
X143977353Y-79504979D01*
X143927171Y-79456363D01*
X143911239Y-79388334D01*
X143934616Y-79322491D01*
X143947360Y-79307545D01*
X145551420Y-77703486D01*
X145612744Y-77670001D01*
X145639102Y-77667167D01*
X146533697Y-77667167D01*
X146554436Y-77669456D01*
G37*
%TD.AperFunction*%
%TA.AperFunction,Conductor*%
G36*
X135387905Y-49873516D02*
G01*
X135409809Y-49898795D01*
X135500278Y-50037268D01*
X135652760Y-50202906D01*
X135830424Y-50341189D01*
X135877517Y-50366674D01*
X135927108Y-50415894D01*
X135942500Y-50475729D01*
X135942500Y-51110232D01*
X135922815Y-51177271D01*
X135906181Y-51197913D01*
X135611179Y-51492914D01*
X135594896Y-51505961D01*
X135546337Y-51557670D01*
X135543633Y-51560461D01*
X135523865Y-51580230D01*
X135521487Y-51583293D01*
X135521470Y-51583314D01*
X135521311Y-51583521D01*
X135513753Y-51592368D01*
X135483414Y-51624677D01*
X135473582Y-51642563D01*
X135462901Y-51658823D01*
X135450385Y-51674959D01*
X135432786Y-51715628D01*
X135427648Y-51726117D01*
X135406303Y-51764943D01*
X135401226Y-51784718D01*
X135394925Y-51803123D01*
X135386818Y-51821856D01*
X135379888Y-51865610D01*
X135377520Y-51877046D01*
X135366500Y-51919969D01*
X135366500Y-51940384D01*
X135364973Y-51959783D01*
X135361780Y-51979941D01*
X135365950Y-52024057D01*
X135366500Y-52035726D01*
X135366500Y-54686233D01*
X135346815Y-54753272D01*
X135330181Y-54773914D01*
X126773914Y-63330181D01*
X126712591Y-63363666D01*
X126686233Y-63366500D01*
X119313767Y-63366500D01*
X119246728Y-63346815D01*
X119226090Y-63330185D01*
X119145822Y-63249917D01*
X119112339Y-63188598D01*
X119117323Y-63118906D01*
X119159194Y-63062972D01*
X119224658Y-63038555D01*
X119225536Y-63038500D01*
X119228638Y-63038500D01*
X119289201Y-63031989D01*
X119289203Y-63031988D01*
X119289205Y-63031988D01*
X119367124Y-63002924D01*
X119426204Y-62980889D01*
X119543261Y-62893261D01*
X119630889Y-62776204D01*
X119670569Y-62669819D01*
X119681988Y-62639205D01*
X119681988Y-62639203D01*
X119681989Y-62639201D01*
X119683569Y-62624501D01*
X119710307Y-62559951D01*
X119767699Y-62520102D01*
X119837524Y-62517607D01*
X119897613Y-62553259D01*
X119908423Y-62566619D01*
X119913802Y-62574300D01*
X120075700Y-62736198D01*
X120263251Y-62867523D01*
X120263254Y-62867524D01*
X120263255Y-62867525D01*
X120367004Y-62915903D01*
X120470757Y-62964284D01*
X120691913Y-63023543D01*
X120920000Y-63043498D01*
X121148087Y-63023543D01*
X121369243Y-62964284D01*
X121576749Y-62867523D01*
X121764300Y-62736198D01*
X121926198Y-62574300D01*
X122057523Y-62386749D01*
X122077617Y-62343655D01*
X122123790Y-62291215D01*
X122190983Y-62272063D01*
X122257864Y-62292278D01*
X122302382Y-62343655D01*
X122310651Y-62361389D01*
X122322477Y-62386749D01*
X122453802Y-62574300D01*
X122615700Y-62736198D01*
X122803251Y-62867523D01*
X122803254Y-62867524D01*
X122803255Y-62867525D01*
X122907004Y-62915903D01*
X123010757Y-62964284D01*
X123231913Y-63023543D01*
X123383970Y-63036846D01*
X123459999Y-63043498D01*
X123459999Y-63043497D01*
X123460000Y-63043498D01*
X123688087Y-63023543D01*
X123909243Y-62964284D01*
X124116749Y-62867523D01*
X124304300Y-62736198D01*
X124466198Y-62574300D01*
X124597523Y-62386749D01*
X124622308Y-62333596D01*
X124668476Y-62281160D01*
X124735669Y-62262007D01*
X124802551Y-62282221D01*
X124847070Y-62333597D01*
X124869866Y-62382482D01*
X125000341Y-62568819D01*
X125161180Y-62729658D01*
X125347519Y-62860134D01*
X125553673Y-62956266D01*
X125749999Y-63008871D01*
X125750000Y-63008871D01*
X125750000Y-62045686D01*
X125761955Y-62057641D01*
X125874852Y-62115165D01*
X125968519Y-62130000D01*
X126031481Y-62130000D01*
X126125148Y-62115165D01*
X126238045Y-62057641D01*
X126250000Y-62045685D01*
X126250000Y-63008871D01*
X126446326Y-62956266D01*
X126652480Y-62860134D01*
X126838819Y-62729658D01*
X126999658Y-62568819D01*
X127130134Y-62382480D01*
X127226266Y-62176326D01*
X127278872Y-61980000D01*
X126315686Y-61980000D01*
X126327641Y-61968045D01*
X126385165Y-61855148D01*
X126404986Y-61730000D01*
X126385165Y-61604852D01*
X126327641Y-61491955D01*
X126315686Y-61480000D01*
X127278872Y-61480000D01*
X127278871Y-61479999D01*
X127226266Y-61283673D01*
X127130134Y-61077519D01*
X126999658Y-60891180D01*
X126838819Y-60730341D01*
X126652480Y-60599865D01*
X126446326Y-60503733D01*
X126250000Y-60451126D01*
X126250000Y-60451127D01*
X126249999Y-61414313D01*
X126238045Y-61402359D01*
X126125148Y-61344835D01*
X126031481Y-61330000D01*
X125968519Y-61330000D01*
X125874852Y-61344835D01*
X125761955Y-61402359D01*
X125750000Y-61414313D01*
X125750000Y-60389977D01*
X125753348Y-60389977D01*
X125751623Y-60360993D01*
X125784782Y-60301121D01*
X127416084Y-58669819D01*
X127477408Y-58636334D01*
X127503766Y-58633500D01*
X129916367Y-58633500D01*
X129937108Y-58635789D01*
X129939905Y-58635701D01*
X129939909Y-58635702D01*
X130008017Y-58633560D01*
X130011913Y-58633500D01*
X130035958Y-58633500D01*
X130039856Y-58633500D01*
X130043724Y-58633011D01*
X130043947Y-58632983D01*
X130055608Y-58632064D01*
X130099889Y-58630673D01*
X130119498Y-58624975D01*
X130138531Y-58621033D01*
X130158797Y-58618474D01*
X130200006Y-58602157D01*
X130211037Y-58598380D01*
X130253593Y-58586018D01*
X130271160Y-58575628D01*
X130288632Y-58567068D01*
X130307617Y-58559552D01*
X130343475Y-58533498D01*
X130353223Y-58527096D01*
X130391362Y-58504542D01*
X130405800Y-58490103D01*
X130420588Y-58477472D01*
X130437107Y-58465472D01*
X130465359Y-58431319D01*
X130473203Y-58422699D01*
X134424818Y-54471085D01*
X134441097Y-54458044D01*
X134443014Y-54456002D01*
X134443018Y-54456000D01*
X134489691Y-54406296D01*
X134492308Y-54403595D01*
X134512135Y-54383770D01*
X134514660Y-54380513D01*
X134522251Y-54371624D01*
X134552586Y-54339321D01*
X134562419Y-54321432D01*
X134573100Y-54305172D01*
X134585614Y-54289041D01*
X134603207Y-54248381D01*
X134608343Y-54237895D01*
X134629695Y-54199060D01*
X134634773Y-54179277D01*
X134641070Y-54160885D01*
X134649181Y-54142145D01*
X134656112Y-54098376D01*
X134658478Y-54086953D01*
X134669500Y-54044030D01*
X134669500Y-54023614D01*
X134671027Y-54004214D01*
X134674220Y-53984057D01*
X134670050Y-53939942D01*
X134669500Y-53928273D01*
X134669500Y-50475729D01*
X134689185Y-50408690D01*
X134734483Y-50366674D01*
X134781576Y-50341189D01*
X134959240Y-50202906D01*
X135111722Y-50037268D01*
X135202190Y-49898795D01*
X135255337Y-49853438D01*
X135324569Y-49844014D01*
X135387905Y-49873516D01*
G37*
%TD.AperFunction*%
%TA.AperFunction,Conductor*%
G36*
X123132359Y-53871955D02*
G01*
X123074835Y-53984852D01*
X123055014Y-54110000D01*
X123074835Y-54235148D01*
X123132359Y-54348045D01*
X123144314Y-54360000D01*
X121235686Y-54360000D01*
X121247641Y-54348045D01*
X121305165Y-54235148D01*
X121324986Y-54110000D01*
X121305165Y-53984852D01*
X121247641Y-53871955D01*
X121235686Y-53860000D01*
X123144314Y-53860000D01*
X123132359Y-53871955D01*
G37*
%TD.AperFunction*%
%TD*%
M02*
